<?xml version="1.0" encoding="UTF-8" standalone="no"?>
<!-- Created with Inkscape (http://www.inkscape.org/) -->

<svg
   version="1.1"
   id="svg1107"
   width="500"
   height="500"
   viewBox="0 0 500.00001 499.99999"
   sodipodi:docname="logo.svg"
   inkscape:version="1.2.2 (b0a8486541, 2022-12-01)"
   xmlns:inkscape="http://www.inkscape.org/namespaces/inkscape"
   xmlns:sodipodi="http://sodipodi.sourceforge.net/DTD/sodipodi-0.dtd"
   xmlns="http://www.w3.org/2000/svg"
   xmlns:svg="http://www.w3.org/2000/svg">
  <defs
     id="defs1111" />
  <sodipodi:namedview
     id="namedview1109"
     pagecolor="#ffffff"
     bordercolor="#000000"
     borderopacity="0.25"
     inkscape:showpageshadow="2"
     inkscape:pageopacity="0.0"
     inkscape:pagecheckerboard="0"
     inkscape:deskcolor="#d1d1d1"
     showgrid="false"
     inkscape:zoom="0.27232449"
     inkscape:cx="2790.7883"
     inkscape:cy="1850.7333"
     inkscape:window-width="2538"
     inkscape:window-height="1383"
     inkscape:window-x="10"
     inkscape:window-y="45"
     inkscape:window-maximized="1"
     inkscape:current-layer="g1115">
    <inkscape:page
       x="0"
       y="0"
       id="page1113"
       width="500"
       height="500" />
  </sodipodi:namedview>
  <g
     id="g1115"
     inkscape:groupmode="layer"
     inkscape:label="Page 1"
     transform="matrix(1.3333333,0,0,-1.3333333,0,2666.6667)">
    <g
       id="g8091"
       transform="matrix(0.63325342,0,0,0.63324273,-692.24731,1481.7732)">
      <g
         id="g7966">
        <path
           d="m 1389.25,226.18 c -79.09,0 -153.45,30.8 -209.37,86.72 -55.93,55.93 -86.72,130.28 -86.72,209.37 0,79.09 30.79,153.45 86.72,209.37 55.92,55.93 130.28,86.73 209.37,86.73 79.09,0 153.45,-30.8 209.37,-86.73 55.93,-55.92 86.72,-130.28 86.72,-209.37 0,-79.09 -30.79,-153.44 -86.72,-209.37 -55.92,-55.92 -130.28,-86.72 -209.37,-86.72"
           style="fill:#ffffff;fill-opacity:1;fill-rule:nonzero;stroke:none;stroke-width:0.1"
           id="path1429" />
        <path
           d="m 1389.25,245.81 c -73.85,0 -143.27,28.75 -195.49,80.97 -52.22,52.22 -80.97,121.65 -80.97,195.49 0,73.85 28.75,143.27 80.97,195.49 52.22,52.22 121.64,80.98 195.49,80.98 73.85,0 143.27,-28.76 195.49,-80.98 52.22,-52.22 80.97,-121.64 80.97,-195.49 0,-73.84 -28.75,-143.27 -80.97,-195.49 -52.22,-52.22 -121.64,-80.97 -195.49,-80.97"
           style="fill:#05384b;fill-opacity:1;fill-rule:nonzero;stroke:none;stroke-width:0.1"
           id="path1431" />
        <path
           d="m 1646.08,522.27 c 0,-11.72 -0.78,-23.26 -2.31,-34.56 -4.83,-35.9 -17.08,-69.47 -35.16,-99.08 -37.21,-60.95 -99.11,-105.19 -171.79,-118.8 h -0.01 c -9.02,-1.69 -18.18,-2.9 -27.5,-3.62 h -0.01 c -3.35,-0.26 -6.71,-0.46 -10.1,-0.58 -2.1,-0.08 -4.19,-0.14 -6.3,-0.16 -1.21,-0.02 -2.43,-0.03 -3.65,-0.03 -1.85,0 -3.71,0.02 -5.56,0.05 -2.59,0.06 -5.14,0.16 -7.7,0.29 h -0.01 c -3.44,0.17 -6.86,0.41 -10.27,0.73 -9.7,0.87 -19.24,2.3 -28.6,4.23 h -0.01 c -69.13,14.25 -128.1,56.29 -164.74,113.92 -19.46,30.6 -32.63,65.61 -37.65,103.19 -1.52,11.26 -2.29,22.75 -2.29,34.42 0,19.84 2.24,39.15 6.51,57.69 12.45,54.29 42.13,102.02 82.96,137.12 28.66,24.65 62.83,43.09 100.4,53.2 21.35,5.76 43.8,8.83 66.96,8.83 22.51,0 44.33,-2.89 65.13,-8.34 37.19,-9.71 71.1,-27.57 99.7,-51.54 41.27,-34.57 71.51,-81.87 84.69,-135.86 4.78,-19.58 7.31,-40.04 7.31,-61.1"
           style="fill:#f2d041;fill-opacity:1;fill-rule:nonzero;stroke:none;stroke-width:0.1"
           id="path1433" />
        <path
           d="m 1399.2,265.63 154.88,453.6 c 41.27,-34.57 71.51,-81.87 84.69,-135.86 4.78,-19.58 7.31,-40.04 7.31,-61.1 0,-11.72 -0.78,-23.26 -2.31,-34.56 -4.83,-35.9 -17.08,-69.47 -35.16,-99.08 v 0 l -171.79,-118.8 v 0 h -0.01 c -9.02,-1.69 -18.18,-2.9 -27.5,-3.62 h -0.01 c -3.35,-0.26 -6.71,-0.46 -10.1,-0.58"
           style="fill:#e6aa11;fill-opacity:1;fill-rule:nonzero;stroke:none;stroke-width:0.1"
           id="path1435" />
        <path
           d="m 1646.08,522.27 c 0,-11.72 -0.78,-23.26 -2.31,-34.56 -4.83,-35.9 -17.08,-69.47 -35.16,-99.08 -37.21,-60.95 -99.11,-105.19 -171.79,-118.8 h -0.01 c -9.02,-1.69 -18.18,-2.9 -27.5,-3.62 l 229.46,317.16 c 4.78,-19.58 7.31,-40.04 7.31,-61.1"
           style="fill:#da8b04;fill-opacity:1;fill-rule:nonzero;stroke:none;stroke-width:0.1"
           id="path1437" />
        <path
           d="m 1375.98,265.78 c -3.44,0.17 -6.86,0.41 -10.27,0.73 -9.7,0.87 -19.24,2.3 -28.6,4.23 h -0.01 v 0 l -164.74,113.92 v 0 c -19.46,30.6 -32.63,65.61 -37.65,103.19 -1.52,11.26 -2.29,22.75 -2.29,34.42 0,19.84 2.24,39.15 6.51,57.69 12.45,54.29 42.13,102.02 82.96,137.12 l 154.09,-451.3"
           style="fill:#e6aa11;fill-opacity:1;fill-rule:nonzero;stroke:none;stroke-width:0.1"
           id="path1439" />
        <path
           d="m 1138.93,579.96 226.78,-313.45 c -9.7,0.87 -19.24,2.3 -28.6,4.23 h -0.01 c -69.13,14.25 -128.1,56.29 -164.74,113.92 -19.46,30.6 -32.63,65.61 -37.65,103.19 -1.52,11.26 -2.29,22.75 -2.29,34.42 0,19.84 2.24,39.15 6.51,57.69"
           style="fill:#da8b04;fill-opacity:1;fill-rule:nonzero;stroke:none;stroke-width:0.1"
           id="path1441" />
        <path
           d="m 1389.25,265.44 c -1.85,0 -3.71,0.02 -5.56,0.05 v 0 l -61.4,504.79 c 21.35,5.76 43.8,8.83 66.96,8.83 22.51,0 44.33,-2.89 65.13,-8.34 l -61.48,-505.3 v 0 c -1.21,-0.02 -2.43,-0.03 -3.65,-0.03"
           style="fill:#f8e359;fill-opacity:1;fill-rule:nonzero;stroke:none;stroke-width:0.1"
           id="path1443" />
        <path
           d="M 1647.03,485.11 C 1629.95,358 1521.04,259.99 1389.25,259.99 c -131.84,0 -235.6463,73.88042 -252.6863,201.06042 131.8856,98.73428 384.3377,81.32296 505.767,-7.33294"
           style="fill:#05384b;fill-opacity:1;fill-rule:nonzero;stroke:none;stroke-width:0.1"
           id="path1445"
           sodipodi:nodetypes="cscc" />
      </g>
      <g
         id="g7747"
         transform="rotate(0.08106196,275214.98,-87902.055)">
        <path
           d="m 1546.1562,1002.1106 -12.67,-10.85997 -1.81,-10.86 -9.05,32.56997 -1.88,14.1 c 0.51,-0.54 0.78,-0.83 0.78,-0.83 0,0 10.26,-3.42 20.5,0 0.35,0.11 0.76,0.12 1.25,0.01 l -2.55,-11.47 5.43,-12.66"
           style="fill:#14758c;fill-opacity:1;fill-rule:nonzero;stroke:none;stroke-width:0.1"
           id="path1447" />
        <path
           d="m 1444.9559,1033.7199 84.5162,-67.63258 0.1692,-9.12613 -95.8957,76.73791 11.2103,0.021"
           style="fill:#31606e;fill-opacity:1;fill-rule:nonzero;stroke:none;stroke-width:0.296881"
           id="path16" />
        <path
           d="m 1519.1584,1033.8624 c 3.3102,-13.5972 5.7566,-27.3428 7.7516,-41.16263 l -51.3338,41.07953 43.5822,0.083"
           style="fill:#31606e;fill-opacity:1;fill-rule:nonzero;stroke:none;stroke-width:0.296881"
           id="path18" />
        <path
           d="m 1426.7066,1033.6843 -4.9758,-6.2167 102.4301,-81.96603 5.5635,6.95593 0.4988,-26.80543 -20.9569,0.006 0.01,1.11628 h -56.9805 v 49.56435 h -34.1206 v 57.3308 l 8.5354,0.015"
           style="fill:#31606e;fill-opacity:1;fill-rule:nonzero;stroke:none;stroke-width:0.296881"
           id="path20" />
        <path
           d="m 1475.5762,1033.7793 51.3338,-41.07953 c 0.8758,-6.05638 1.6893,-12.12463 2.4077,-18.2107 l 0.1544,-8.40175 -84.5162,67.63258 30.6203,0.059"
           style="fill:#55aea4;fill-opacity:1;fill-rule:nonzero;stroke:none;stroke-width:0.296881"
           id="path22" />
        <path
           d="m 1421.7308,1027.4676 4.9758,6.2167 7.039,0.015 95.8957,-76.73796 0.083,-4.50369 -5.5635,-6.95593 -102.4301,81.96598"
           style="fill:#55aea4;fill-opacity:1;fill-rule:nonzero;stroke:none;stroke-width:0.296881"
           id="path24" />
        <path
           d="m 1687.7396,918.11426 -0.6977,7.27062 c -0.1069,1.13706 -0.7185,2.06926 -1.7189,2.62146 -1.0005,0.55517 -2.1109,0.57595 -3.1351,0.0653 l -18.8995,-9.45864 24.4512,-0.49876"
           style="fill:#07506b;fill-opacity:1;fill-rule:evenodd;stroke:none;stroke-width:0.296881"
           id="path26" />
        <path
           d="m 1683.0815,926.43881 c -0.9174,0 -1.6625,-0.74814 -1.6625,-1.6655 0,-0.92034 0.7451,-1.66254 1.6625,-1.66254 0.9203,0 1.6655,0.7422 1.6655,1.66254 0,0.91736 -0.7452,1.6655 -1.6655,1.6655"
           style="fill:#ffffff;fill-opacity:1;fill-rule:evenodd;stroke:none;stroke-width:0.296881"
           id="path28" />
        <path
           d="m 1702.0938,914.61699 c 0,-6.19888 -1.1341,-29.83658 -2.6719,-31.49021 -2.3306,-2.50865 -32.7758,-4.15931 -44.1344,-4.15931 -15.6338,0 -14.0247,42.38576 -1.428,42.38576 7.5259,0 47.6168,-3.29538 48.2343,-6.73624"
           style="fill:#07516c;fill-opacity:1;fill-rule:evenodd;stroke:none;stroke-width:0.296881"
           id="path30" />
        <path
           d="m 1627.4014,969.29958 h 7.3033 v 26.03947 h -7.3033 v -26.03947"
           style="fill:#3a3a3c;fill-opacity:1;fill-rule:evenodd;stroke:none;stroke-width:0.296881"
           id="path32" />
        <path
           d="m 1527.1059,932.65254 h -47.4891 v -10.41163 h 47.4891 v 10.41163"
           style="fill:#3a3a3c;fill-opacity:1;fill-rule:evenodd;stroke:none;stroke-width:0.296881"
           id="path34" />
        <path
           d="m 1386.7315,961.44113 c -9.4705,0 -17.1508,4.53338 -17.1508,10.12366 0,5.5873 7.6803,10.12068 17.1508,10.12068 9.4675,0 17.1479,-4.53338 17.1479,-10.12068 0,-5.59028 -7.6804,-10.12366 -17.1479,-10.12366"
           style="fill:#0b7ba5;fill-opacity:1;fill-rule:evenodd;stroke:none;stroke-width:0.296881"
           id="path36" />
        <path
           d="m 1369.6727,970.5257 c -0.059,0.34141 -0.092,0.68877 -0.092,1.03909 0,4.35525 4.6669,8.06626 11.2072,9.49426 -2.1731,-5.16276 -6.2226,-9.06972 -11.1152,-10.53335"
           style="fill:#f37016;fill-opacity:1;fill-rule:evenodd;stroke:none;stroke-width:0.296881"
           id="path38" />
        <path
           d="m 1591.55,861.22287 h -167.4411 v 27.31888 H 1591.55 Z"
           style="fill:#3a3a3c;fill-opacity:1;fill-rule:evenodd;stroke:none;stroke-width:0.296881"
           id="path40" />
        <path
           d="m 1453.1884,1032.0603 v -68.33912 h 5.43 v 68.33912 h 68.1016 l -0.9738,4.6076 -103.7838,2.6987 v -7.3063 h 31.226"
           style="fill:#3a3a3c;fill-opacity:1;fill-rule:evenodd;stroke:none;stroke-width:0.296881"
           id="path42" />
        <path
           d="m 1414.3533,1032.6303 -7.5615,-57.41684 11.0172,-0.30876 5.0322,57.0903 -8.4879,0.6353"
           style="fill:#3a3a3c;fill-opacity:1;fill-rule:evenodd;stroke:none;stroke-width:0.296881"
           id="path44" />
        <path
           d="m 1415.9803,986.99074 c 10.0286,-0.006 36.4036,-4.40275 41.8751,-8.59768 10.7026,-8.20877 32.0246,-43.28828 29.5783,-65.58408 -2.5681,-23.42691 -53.0171,-7.27062 -61.2853,27.36356 -1.0658,4.45619 -24.2136,47.61088 -10.1681,46.8182"
           style="fill:#3a3a3c;fill-opacity:1;fill-rule:evenodd;stroke:none;stroke-width:0.296881"
           id="path46" />
        <path
           d="m 1512.5647,1033.5417 h -5.5844 V 913.68182 h 5.5844 v 119.85988"
           style="fill:#3a3a3c;fill-opacity:1;fill-rule:evenodd;stroke:none;stroke-width:0.296881"
           id="path48" />
        <path
           d="m 1616.678,886.7428 6.2434,40.98744 4.4325,17.84852 c 2.0485,8.24736 7.9059,9.26566 14.1761,9.26566 h 19.3685 c 0.039,28.28687 -101.5631,24.14834 -135.1018,24.14834 l 0.3355,-53.33772 h -42.5966 c -5.6734,19.87918 -19.7812,43.15469 -29.6436,48.48371 -77.9492,24.34427 -111.4908,-20.33044 -111.1999,-27.44966 0.8669,-21.23889 42.3294,-5.24292 48.1928,-37.08643 4.2276,-22.97268 21.8267,-39.39913 44.3808,-39.39913 13.4724,0 19.4368,15.65456 33.2032,15.72878 l 148.2091,0.81049"
           style="fill:#075f81;fill-opacity:1;fill-rule:evenodd;stroke:none;stroke-width:0.296881"
           id="path50" />
        <path
           d="m 1660.9045,954.84442 -5.6913,-50.38374 h -47.8335 l 15.2003,52.36097 38.3245,-1.97723"
           style="fill:#3a3a3c;fill-opacity:1;fill-rule:evenodd;stroke:none;stroke-width:0.296881"
           id="path52" />
        <path
           d="m 1658.0039,954.99287 -6.8936,-50.53219 h -2.9183 l 7.0806,50.67172 2.7313,-0.13953"
           style="fill:#211c1d;fill-opacity:1;fill-rule:evenodd;stroke:none;stroke-width:0.296881"
           id="path54" />
        <path
           d="m 1651.6032,955.3224 -6.9382,-50.86172 h -2.9183 l 7.1252,51.00126 2.7313,-0.13954"
           style="fill:#211c1d;fill-opacity:1;fill-rule:evenodd;stroke:none;stroke-width:0.296881"
           id="path56" />
        <path
           d="m 1645.2024,955.65194 -6.9856,-51.19126 h -2.9184 l 7.1727,51.33376 2.7313,-0.1425"
           style="fill:#211c1d;fill-opacity:1;fill-rule:evenodd;stroke:none;stroke-width:0.296881"
           id="path58" />
        <path
           d="m 1638.7987,955.98445 -7.0272,-51.52377 h -2.9184 l 7.2172,51.66627 2.7284,-0.1425"
           style="fill:#211c1d;fill-opacity:1;fill-rule:evenodd;stroke:none;stroke-width:0.296881"
           id="path60" />
        <path
           d="m 1632.3979,956.31399 -7.0747,-51.85331 h -2.9183 l 7.2647,51.99581 2.7283,-0.1425"
           style="fill:#211c1d;fill-opacity:1;fill-rule:evenodd;stroke:none;stroke-width:0.296881"
           id="path62" />
        <path
           d="m 1625.9971,956.64353 -7.1192,-52.18285 h -2.9183 l 7.3092,52.32535 2.7283,-0.1425"
           style="fill:#211c1d;fill-opacity:1;fill-rule:evenodd;stroke:none;stroke-width:0.296881"
           id="path64" />
        <path
           d="m 1327.1979,859.64643 c -0.6621,-4.89261 1.8941,-9.66349 5.9554,-10.87477 4.2781,-1.27659 8.6036,1.86739 9.6635,7.02719 0.4275,2.09004 0.2464,4.18899 -0.3978,6.02966 h 14.948 c 0.8758,0 1.5942,0.25531 1.5942,0.56407 v 2.17614 c 0,0.30876 -0.7184,0.56111 -1.5942,0.56111 h -19.4695 c -0.8788,0 -1.5973,-0.25235 -1.5973,-0.56111 v -2.17614 c 0,-0.30876 0.7185,-0.56407 1.5973,-0.56407 h 1.1727 c -0.015,-0.68283 -0.092,-1.38347 -0.2376,-2.09302 -0.8698,-4.2365 -3.7882,-7.01234 -6.5195,-6.19591 -1.9564,0.58189 -3.2894,2.84709 -3.5655,5.64371 l -1.5497,0.46314"
           style="fill:#096a8e;fill-opacity:1;fill-rule:evenodd;stroke:none;stroke-width:0.296881"
           id="path66" />
        <path
           d="m 1527.3613,975.22237 h -5.5666 v -49.56436 h 5.5666 v 49.56436"
           style="fill:#3a3a3c;fill-opacity:1;fill-rule:evenodd;stroke:none;stroke-width:0.296881"
           id="path68" />
        <path
           d="m 1525.7462,1036.6679 c 0,11.7743 -65.4475,12.3147 -98.8466,9.9634 -11.7714,-0.8254 -11.9317,-8.2029 -12.6294,-14.6363 h 8.571 c 0.5997,2.5858 1.9683,4.6729 12.7303,4.6729 h 90.1747"
           style="fill:#085471;fill-opacity:1;fill-rule:evenodd;stroke:none;stroke-width:0.296881"
           id="path70" />
        <path
           d="m 1529.4483,978.99276 h -72.4568 v -4.7026 l 73.2198,0.20188 -0.763,4.50072"
           style="fill:#3a3a3c;fill-opacity:1;fill-rule:evenodd;stroke:none;stroke-width:0.296881"
           id="path72" />
        <path
           d="m 1415.2232,1029.4359 v 0 c -0.861,2.6482 -3.7288,4.1118 -6.38,3.2508 l -3.2657,-1.0598 3.1262,-9.6309 3.2657,1.0599 c 2.6482,0.861 4.1118,3.7288 3.2538,6.38"
           style="fill:#3a3a3c;fill-opacity:1;fill-rule:evenodd;stroke:none;stroke-width:0.296881"
           id="path74" />
        <path
           d="m 1533.7205,1022.3018 h -6.9827 c -1.2439,0 -2.2593,-1.0153 -2.2593,-2.2622 v -23.64662 c 0,-1.24393 1.0154,-2.25927 2.2593,-2.25927 h 6.9827 c 1.2439,0 2.2622,1.01534 2.2622,2.25927 v 23.64662 c 0,1.2469 -1.0183,2.2622 -2.2622,2.2622"
           style="fill:#3a3a3c;fill-opacity:1;fill-rule:evenodd;stroke:none;stroke-width:0.296881"
           id="path76" />
        <path
           d="m 1529.5819,1018.4928 h 2.1049 v 8.378 c 0,4.2632 -3.4705,7.7546 -7.7367,7.7813 l -10.7085,0.059 -0.012,-2.1019 10.7085,-0.062 c 3.1113,-0.018 5.6437,-2.5651 5.6437,-5.6764 v -8.378"
           style="fill:#3a3a3c;fill-opacity:1;fill-rule:nonzero;stroke:none;stroke-width:0.296881"
           id="path78" />
        <path
           d="m 1651.6032,960.07251 c -15.8357,6.3117 -76.2629,10.94008 -119.9164,12.23448 l -0.4661,-9.09645 c 31.5021,0.36814 84.3559,-1.47847 120.3825,-4.28103 v 1.143"
           style="fill:#0d91c3;fill-opacity:1;fill-rule:evenodd;stroke:none;stroke-width:0.296881"
           id="path80" />
        <path
           d="m 1335.9321,940.95334 c 3.3815,12.09495 48.7776,44.85285 89.4801,32.77868 36.9825,-10.9668 57.3961,-36.15125 58.0195,-87.71955 l -47.8988,0.0326 -99.6008,54.90822"
           style="fill:#3a3a3c;fill-opacity:1;fill-rule:evenodd;stroke:none;stroke-width:0.296881"
           id="path82" />
        <path
           d="m 1405.9516,958.35059 c -39.0963,0 -70.8003,-31.70396 -70.8003,-70.80028 0,-39.09631 31.704,-70.80028 70.8003,-70.80028 39.0933,0 70.8003,31.70397 70.8003,70.80028 0,39.09632 -31.707,70.80028 -70.8003,70.80028"
           style="fill:#3a3a3c;fill-opacity:1;fill-rule:evenodd;stroke:none;stroke-width:0.296881"
           id="path84" />
        <path
           d="m 1405.9516,948.26553 c -33.5268,0 -60.7152,-27.1884 -60.7152,-60.71522 0,-33.52682 27.1884,-60.71522 60.7152,-60.71522 33.5268,0 60.7122,27.1884 60.7122,60.71522 0,33.52682 -27.1854,60.71522 -60.7122,60.71522"
           style="fill:#505256;fill-opacity:1;fill-rule:evenodd;stroke:none;stroke-width:0.296881"
           id="path86" />
        <path
           d="m 1423.9782,956.36149 c -1.3567,0.35329 -2.7283,0.66798 -4.1147,0.94111 l -3.6962,-12.09792 c 1.9564,-0.34438 3.8773,-0.78376 5.7625,-1.31815 l 2.0484,12.47496 m 13.9089,-5.25777 c -1.2558,0.63236 -2.5294,1.22612 -3.8238,1.78426 l -6.1306,-11.06477 c 1.8347,-0.74518 3.622,-1.57941 5.3557,-2.49678 l 4.5987,11.77729 m 12.5076,-8.04252 c -1.0984,0.88174 -2.2206,1.73082 -3.3696,2.54724 l -8.2948,-9.5477 c 1.6358,-1.10737 3.2093,-2.29787 4.7204,-3.55961 l 6.944,10.56007 m 10.572,-10.45023 c -0.8966,1.08956 -1.8199,2.14943 -2.7758,3.18554 l -10.097,-7.61501 c 1.3686,-1.41909 2.666,-2.90647 3.8862,-4.45619 l 8.9866,8.88566 m 8.1761,-12.41558 c -0.6472,1.24987 -1.336,2.48193 -2.0544,3.68727 l -11.4626,-5.3498 c 1.0421,-1.66848 2.001,-3.39039 2.8738,-5.16574 l 10.6432,6.82827 m 5.4062,-13.85248 c -0.3711,1.36268 -0.7778,2.71052 -1.2291,4.03758 l -12.3295,-2.85006 c 0.671,-1.84066 1.2469,-3.72883 1.7338,-5.64965 l 11.8248,4.46213 m 2.3959,-14.67485 c -0.083,1.41315 -0.2049,2.8174 -0.3682,4.20681 l -12.6442,-0.22266 c 0.2702,-1.93567 0.4394,-3.89806 0.5166,-5.89013 l 12.4958,1.90598 m -0.6858,-14.85001 c 0.2107,1.38347 0.377,2.78475 0.5047,4.19197 l -12.4186,2.41067 c -0.1366,-1.98613 -0.3741,-3.94555 -0.7066,-5.86934 l 12.6205,-0.7333 m -3.7645,-14.38391 c 0.4958,1.31222 0.9619,2.64225 1.3775,3.99009 l -11.6496,4.94011 c -0.5463,-1.90301 -1.1875,-3.7704 -1.9179,-5.59028 l 12.19,-3.33992 m -6.6798,-13.28247 c 0.76,1.18456 1.4814,2.3899 2.1702,3.61898 l -10.3612,7.25282 c -0.9322,-1.7427 -1.9475,-3.43492 -3.043,-5.06777 l 11.234,-5.80403 m -9.3013,-11.59916 c 0.9886,1.00049 1.9505,2.03067 2.8768,3.09054 l -8.6274,9.24785 c -1.2677,-1.51112 -2.6126,-2.95397 -4.0257,-4.32853 l 9.7763,-8.00986 m -11.4953,-9.42301 c 1.1757,0.77486 2.3305,1.57941 3.4587,2.41958 l -6.5195,10.84508 c -1.5527,-1.21128 -3.1677,-2.34536 -4.8392,-3.39929 l 7.9,-9.86537 m -13.2023,-6.84015 c 1.3152,0.5136 2.6096,1.06877 3.8832,1.6566 l -4.1237,11.96135 c -1.7634,-0.86096 -3.5774,-1.63879 -5.4359,-2.32161 l 5.6764,-11.29634 m -14.3453,-3.9218 c 1.3983,0.22859 2.7788,0.49579 4.1445,0.80454 l -1.5438,12.55512 c -1.8971,-0.47204 -3.8357,-0.84611 -5.8011,-1.12815 l 3.2004,-12.23151 m -14.8411,-0.85502 c 1.1014,-0.0505 2.2058,-0.0802 3.3221,-0.0802 0.2998,0 0.5997,0.009 0.8995,0.0119 l 1.0985,12.59965 c -0.662,-0.0238 -1.33,-0.0386 -2.001,-0.0386 -1.3122,0 -2.6155,0.0505 -3.9099,0.13656 l 0.5908,-12.62933 m -14.6986,2.22958 c 1.3538,-0.35329 2.7283,-0.66799 4.1118,-0.94409 l 3.6962,12.09792 c -1.9535,0.34735 -3.8773,0.78674 -5.7595,1.32112 l -2.0485,-12.47495 m -13.9119,5.2548 c 1.2558,-0.63236 2.5295,-1.22612 3.8239,-1.78723 l 6.1335,11.07071 c -1.8347,0.7422 -3.6219,1.57644 -5.3587,2.4938 l -4.5987,-11.77728 m -12.5076,8.03955 c 1.0985,-0.87877 2.2207,-1.73082 3.3696,-2.54428 l 8.2979,9.54771 c -1.6388,1.10737 -3.2123,2.29489 -4.7234,3.55961 l -6.9441,-10.56304 m -10.5719,10.45319 c 0.8936,-1.08955 1.8199,-2.15239 2.7758,-3.18554 l 10.097,7.61501 c -1.3687,1.41909 -2.666,2.9035 -3.8862,4.45619 l -8.9866,-8.88566 m -8.1761,12.41261 c 0.6472,-1.24987 1.333,-2.47896 2.0514,-3.68726 l 11.4656,5.3498 c -1.0421,1.66847 -2.001,3.39335 -2.8768,5.16574 l -10.6402,-6.82828 m -5.4092,13.85249 c 0.374,-1.36269 0.7778,-2.71053 1.2291,-4.03759 l 12.3295,2.85006 c -0.671,1.84364 -1.2469,3.72884 -1.7338,5.64966 l -11.8248,-4.46213 m -2.3988,14.67485 c 0.083,-1.41316 0.2048,-2.81741 0.3681,-4.20681 l 12.6472,0.22563 c -0.2702,1.9327 -0.4424,3.89805 -0.5166,5.88716 l -12.4987,-1.90598 m 0.6858,14.85298 c -0.2108,-1.38644 -0.3741,-2.78178 -0.5047,-4.19197 l 12.4185,-2.41068 c 0.1366,1.98614 0.3771,3.94259 0.7066,5.86935 l -12.6204,0.7333 m 3.7644,14.3839 c -0.4958,-1.31221 -0.9589,-2.64224 -1.3775,-3.98712 l 11.6496,-4.94307 c 0.5463,1.90598 1.1905,3.77039 1.9179,5.59028 l -12.19,3.33991 m 6.6799,13.28544 c -0.7601,-1.18455 -1.4815,-2.39286 -2.1702,-3.62195 l 10.3641,-7.24984 c 0.9292,1.74269 1.9446,3.43492 3.0401,5.06479 l -11.234,5.807 m 9.3013,11.59916 c -0.9887,-1.00049 -1.9476,-2.03067 -2.8768,-3.08757 l 8.6303,-9.25082 c 1.2677,1.51113 2.6126,2.95397 4.0257,4.32853 l -9.7792,8.00986 m 11.4982,9.42599 c -1.1757,-0.77486 -2.3305,-1.58238 -3.4587,-2.42256 l 6.5195,-10.84211 c 1.5497,1.21128 3.1677,2.34537 4.8362,3.39633 l -7.897,9.86834 m 13.2023,6.83718 c -1.3122,-0.51361 -2.6066,-1.06581 -3.8832,-1.65363 l 4.1237,-11.96136 c 1.7634,0.86096 3.5774,1.63582 5.4359,2.32162 l -5.6764,11.29337 m 14.3453,3.9218 c -1.3953,-0.2286 -2.7758,-0.49579 -4.1445,-0.80158 l 1.5468,-12.55512 c 1.8971,0.46908 3.8357,0.84612 5.8011,1.12518 l -3.2034,12.23152 m 14.8441,0.85205 0.5908,-12.62637 c -1.2944,0.0861 -2.6007,0.1336 -3.9189,0.1336 -0.668,0 -1.33,-0.0149 -1.992,-0.0386 l 1.0984,12.59965 c 0.2999,0.003 0.5967,0.0119 0.8966,0.0119 1.1133,0 2.2236,-0.0297 3.3251,-0.0802"
           style="fill:#505256;fill-opacity:1;fill-rule:evenodd;stroke:none;stroke-width:0.296881"
           id="path88" />
        <path
           d="m 1405.9516,926.88413 c -21.7228,0 -39.3338,-17.61397 -39.3338,-39.33382 0,-21.71984 17.611,-39.33382 39.3338,-39.33382 21.7198,0 39.3308,17.61398 39.3308,39.33382 0,21.71985 -17.611,39.33382 -39.3308,39.33382"
           style="fill:#f9dd09;fill-opacity:1;fill-rule:evenodd;stroke:none;stroke-width:0.296881"
           id="path90" />
        <path
           d="m 1405.9486,920.02617 c -17.9316,0 -32.4729,-14.54422 -32.4729,-32.47586 0,-17.9346 14.5413,-32.47586 32.4729,-32.47586 17.9346,0 32.4789,14.54126 32.4789,32.47586 0,17.93164 -14.5443,32.47586 -32.4789,32.47586"
           style="fill:#eab512;fill-opacity:1;fill-rule:evenodd;stroke:none;stroke-width:0.296881"
           id="path92" />
        <path
           d="m 1405.9486,901.06436 c -7.4606,0 -13.514,-6.05342 -13.514,-13.51405 0,-7.4636 6.0534,-13.51701 13.514,-13.51701 7.4636,0 13.517,6.05341 13.517,13.51701 0,7.46063 -6.0534,13.51405 -13.517,13.51405"
           style="fill:#f9dd09;fill-opacity:1;fill-rule:evenodd;stroke:none;stroke-width:0.296881"
           id="path94" />
        <path
           d="m 1405.9486,908.72686 c -1.1519,0 -2.087,-0.93517 -2.087,-2.08707 0,-1.1519 0.9351,-2.08708 2.087,-2.08708 1.1549,0 2.0901,0.93518 2.0901,2.08708 0,1.1519 -0.9352,2.08707 -2.0901,2.08707"
           style="fill:#f9dd09;fill-opacity:1;fill-rule:evenodd;stroke:none;stroke-width:0.296881"
           id="path96" />
        <path
           d="m 1418.3998,904.68334 c -0.9351,0.67986 -2.2384,0.47204 -2.9183,-0.46017 -0.6769,-0.9322 -0.4691,-2.23848 0.4631,-2.91834 0.9322,-0.67689 2.2385,-0.46907 2.9154,0.46313 0.6769,0.93221 0.4691,2.23849 -0.4602,2.91538"
           style="fill:#f9dd09;fill-opacity:1;fill-rule:evenodd;stroke:none;stroke-width:0.296881"
           id="path98" />
        <path
           d="m 1426.095,894.09655 c -0.3592,1.09846 -1.5378,1.69816 -2.6333,1.3419 -1.0955,-0.35626 -1.6952,-1.53487 -1.339,-2.63037 0.3563,-1.09846 1.5349,-1.69816 2.6304,-1.3419 1.0955,0.35626 1.6982,1.53488 1.3419,2.63037"
           style="fill:#f9dd09;fill-opacity:1;fill-rule:evenodd;stroke:none;stroke-width:0.296881"
           id="path100" />
        <path
           d="m 1426.095,881.01002 c 0.3563,1.09549 -0.2434,2.27411 -1.3389,2.63036 -1.0955,0.35329 -2.2741,-0.24641 -2.6304,-1.3419 -0.3592,-1.09549 0.2434,-2.27411 1.3389,-2.63037 1.0955,-0.35626 2.2741,0.24344 2.6304,1.34191"
           style="fill:#f9dd09;fill-opacity:1;fill-rule:evenodd;stroke:none;stroke-width:0.296881"
           id="path102" />
        <path
           d="m 1418.4058,870.42025 c 0.9292,0.67689 1.137,1.9802 0.4601,2.91538 -0.6768,0.93221 -1.9831,1.13706 -2.9153,0.46017 -0.9322,-0.67689 -1.1401,-1.98317 -0.4632,-2.91538 0.6769,-0.93221 1.9832,-1.14002 2.9184,-0.46017"
           style="fill:#f9dd09;fill-opacity:1;fill-rule:evenodd;stroke:none;stroke-width:0.296881"
           id="path104" />
        <path
           d="m 1405.9575,866.37079 c 1.1519,0 2.0871,0.93815 2.0871,2.09005 0,1.1519 -0.9352,2.08707 -2.0871,2.08707 -1.1548,0 -2.087,-0.93517 -2.087,-2.08707 0,-1.1519 0.9322,-2.09005 2.087,-2.09005"
           style="fill:#f9dd09;fill-opacity:1;fill-rule:evenodd;stroke:none;stroke-width:0.296881"
           id="path106" />
        <path
           d="m 1393.5093,870.41432 c 0.9322,-0.67689 2.2385,-0.47204 2.9154,0.46313 0.6769,0.93221 0.469,2.23849 -0.4632,2.91538 -0.9322,0.67689 -2.2384,0.47204 -2.9153,-0.46314 -0.6769,-0.9322 -0.4691,-2.23848 0.4631,-2.91537"
           style="fill:#f9dd09;fill-opacity:1;fill-rule:evenodd;stroke:none;stroke-width:0.296881"
           id="path108" />
        <path
           d="m 1385.8141,881.00111 c 0.3563,-1.09549 1.5349,-1.69519 2.6304,-1.33894 1.0955,0.35626 1.6952,1.53488 1.3419,2.63037 -0.3592,1.0955 -1.5349,1.6952 -2.6333,1.33894 -1.0955,-0.35626 -1.6952,-1.53488 -1.339,-2.63037"
           style="fill:#f9dd09;fill-opacity:1;fill-rule:evenodd;stroke:none;stroke-width:0.296881"
           id="path110" />
        <path
           d="m 1385.8112,894.09061 c -0.3563,-1.09549 0.2434,-2.27411 1.3389,-2.63037 1.0985,-0.35626 2.2771,0.24344 2.6333,1.33894 0.3563,1.09549 -0.2464,2.27411 -1.3419,2.63333 -1.0955,0.35329 -2.2741,-0.24641 -2.6303,-1.3419"
           style="fill:#f9dd09;fill-opacity:1;fill-rule:evenodd;stroke:none;stroke-width:0.296881"
           id="path112" />
        <path
           d="m 1393.5034,904.68037 c -0.9322,-0.67689 -1.1401,-1.98317 -0.4632,-2.91537 0.6799,-0.93221 1.9862,-1.14003 2.9154,-0.46314 0.9352,0.67986 1.14,1.98317 0.4631,2.91538 -0.6769,0.9322 -1.9831,1.14002 -2.9153,0.46313"
           style="fill:#f9dd09;fill-opacity:1;fill-rule:evenodd;stroke:none;stroke-width:0.296881"
           id="path114" />
        <path
           d="m 1510.8101,1054.9944 h -3.233 v -27.5298 h 3.233 v 27.5298"
           style="fill:#3a3a3c;fill-opacity:1;fill-rule:evenodd;stroke:none;stroke-width:0.296881"
           id="path116" />
        <path
           d="m 1509.1951,1068.9181 v 0 c -3.0282,0 -5.5012,-2.473 -5.5012,-5.4982 v -3.7377 c 0,-3.0253 2.473,-5.4983 5.5012,-5.4983 3.0252,0 5.4982,2.473 5.4982,5.4983 v 3.7377 c 0,3.0252 -2.473,5.4982 -5.4982,5.4982"
           style="fill:#f37016;fill-opacity:1;fill-rule:evenodd;stroke:none;stroke-width:0.296881"
           id="path118" />
        <path
           d="m 1503.6939,1059.8514 v -0.1692 c 0,-3.0253 2.473,-5.4983 5.5012,-5.4983 3.0252,0 5.4982,2.473 5.4982,5.4983 v 0.1692 h -10.9994"
           style="fill:#3a3a3c;fill-opacity:1;fill-rule:evenodd;stroke:none;stroke-width:0.296881"
           id="path120" />
        <path
           d="m 1622.5682,956.78603 c -21.1261,1.9891 -63.0606,2.74912 -95.204,2.7135 v -33.84449 h -42.365 l 1.6685,-39.62476 113.6966,0.62048 16.6194,50.88251 5.5874,19.25276"
           style="fill:#06465d;fill-opacity:1;fill-rule:evenodd;stroke:none;stroke-width:0.296881"
           id="path122" />
        <path
           d="m 1644.9946,929.63919 v 0 c -0.03,-3.36366 3.8891,-6.1306 8.7164,-6.15435 l 5.9466,-0.0267 0.1128,12.23152 -5.9495,0.0237 c -4.8214,0.0208 -8.7937,-2.71053 -8.8263,-6.0742"
           style="fill:#505256;fill-opacity:1;fill-rule:evenodd;stroke:none;stroke-width:0.296881"
           id="path124" />
        <path
           d="m 1495.7345,919.13553 2.7639,-57.31593 h -10.468 l -3.233,57.31593 h 10.9371"
           style="fill:#05384b;fill-opacity:1;fill-rule:evenodd;stroke:none;stroke-width:0.296881"
           id="path126" />
        <path
           d="m 1542.2647,932.53972 h -29.7 l 3.3518,-65.78892 h 17.9791 c 1.7635,0 3.2212,1.35081 3.3548,3.11132 1.52,20.20872 3.9544,38.50849 9.3161,50.68359 0.4038,0.9144 0.3949,1.86145 -0.027,2.76991 l -4.2751,9.2241"
           style="fill:#505256;fill-opacity:1;fill-rule:evenodd;stroke:none;stroke-width:0.296881"
           id="path128" />
        <path
           d="m 1516.3796,919.13553 2.7729,-57.47031 -10.477,0.15438 -3.236,57.31593 h 10.9401"
           style="fill:#05384b;fill-opacity:1;fill-rule:evenodd;stroke:none;stroke-width:0.296881"
           id="path130" />
        <path
           d="m 1514.0669,908.04107 h -26.8084 v -2.76991 h 26.8084 v 2.76991"
           style="fill:#0d94c6;fill-opacity:1;fill-rule:evenodd;stroke:none;stroke-width:0.296881"
           id="path132" />
        <path
           d="m 1515.3019,888.01345 h -26.8113 v -2.77287 h 26.8113 v 2.77287"
           style="fill:#0d94c7;fill-opacity:1;fill-rule:evenodd;stroke:none;stroke-width:0.296881"
           id="path134" />
        <path
           d="m 1516.534,864.59247 h -26.8084 v -2.77287 h 26.8084 v 2.77287"
           style="fill:#0d8ebe;fill-opacity:1;fill-rule:evenodd;stroke:none;stroke-width:0.296881"
           id="path136" />
        <path
           d="m 1609.5202,921.80746 4.9015,27.67825 c 0.4008,2.27115 -0.2583,4.36119 -1.9416,6.14842 -1.6863,1.78723 -3.9277,2.77584 -6.6026,2.91537 l -8.8679,0.45423 c -4.6966,0.24048 -8.8055,-2.54724 -9.61,-6.52545 l -5.6259,-27.79107 c -0.4721,-2.31568 0.1781,-4.47103 1.9,-6.30279 1.7219,-1.83176 4.0346,-2.83225 6.7749,-2.93022 l 9.5952,-0.34438 c 4.7085,-0.1722 8.7698,2.69865 9.4764,6.69764"
           style="fill:#042835;fill-opacity:1;fill-rule:evenodd;stroke:none;stroke-width:0.296881"
           id="path138" />
        <path
           d="m 1607.638,924.05485 3.5834,23.59911 c 0.2968,1.93863 -0.1871,3.71992 -1.4191,5.24292 -1.2321,1.52597 -2.8739,2.36615 -4.8303,2.4849 l -6.4869,0.38891 c -3.4378,0.20485 -6.4423,-2.17317 -7.0331,-5.56355 l -4.1148,-23.69708 c -0.3443,-1.97426 0.1307,-3.81196 1.3894,-5.37355 1.2618,-1.5616 2.954,-2.41662 4.958,-2.49974 l 7.0182,-0.29392 c 3.4468,-0.14547 6.4156,2.30083 6.9352,5.712"
           style="fill:#05384b;fill-opacity:1;fill-rule:evenodd;stroke:none;stroke-width:0.296881"
           id="path140" />
        <path
           d="m 1612.3317,946.11017 -24.2612,2.37802 0.1722,-2.71646 24.089,-2.37802 v 2.71646"
           style="fill:#0fa6de;fill-opacity:1;fill-rule:evenodd;stroke:none;stroke-width:0.296881"
           id="path142" />
        <path
           d="m 1609.6835,930.27155 -23.4596,6.62639 -0.3117,-2.70756 23.2904,-6.59076 0.4809,2.67193"
           style="fill:#0d93c5;fill-opacity:1;fill-rule:evenodd;stroke:none;stroke-width:0.296881"
           id="path144" />
        <path
           d="m 1642.8659,933.20474 c -51.3129,18.33539 -96.7299,-17.82476 -94.4914,-58.58955 2.2059,-0.7333 4.4117,-1.46956 6.6145,-2.20583 7.8051,53.66132 45.126,67.76022 83.1268,58.24814 -0.7333,1.07471 5.4864,1.47253 4.7501,2.54724"
           style="fill:#65686c;fill-opacity:1;fill-rule:evenodd;stroke:none;stroke-width:0.296881"
           id="path146" />
        <path
           d="m 1542.2647,932.53972 h -29.7 l 0.5225,-10.29881 h 33.7584 c -0.039,0.36219 -0.1396,0.72142 -0.3058,1.07471 l -4.2751,9.2241"
           style="fill:#65686c;fill-opacity:1;fill-rule:evenodd;stroke:none;stroke-width:0.296881"
           id="path148" />
        <path
           d="m 1538.9515,941.01272 h -4.1623 c -0.76,0 -1.3834,-0.62345 -1.3834,-1.38347 v -7.39531 c 0,-0.76596 0.6234,-1.38941 1.3834,-1.38941 h 4.1623 c 0.763,0 1.3864,0.62345 1.3864,1.38941 v 7.39531 c 0,0.76002 -0.6234,1.38347 -1.3864,1.38347"
           style="fill:#505256;fill-opacity:1;fill-rule:evenodd;stroke:none;stroke-width:0.296881"
           id="path150" />
        <path
           d="m 1516.3855,932.65254 h -35.1359 c 1.9565,-5.87825 2.2949,-9.78224 3.0282,-13.64764 h 32.1077 v 13.64764"
           style="fill:#3a3a3c;fill-opacity:1;fill-rule:evenodd;stroke:none;stroke-width:0.296881"
           id="path152" />
        <path
           d="m 1620.1367,930.02514 c -31.3626,0 -56.7964,-25.43383 -56.7964,-56.79639 0,-31.36255 25.4338,-56.79638 56.7964,-56.79638 31.3626,0 56.7964,25.43383 56.7964,56.79638 0,31.36256 -25.4338,56.79639 -56.7964,56.79639"
           style="fill:#3a3a3c;fill-opacity:1;fill-rule:evenodd;stroke:none;stroke-width:0.296881"
           id="path154" />
        <path
           d="m 1620.1367,921.93512 c -26.8945,0 -48.7064,-21.81188 -48.7064,-48.70637 0,-26.89448 21.8119,-48.70339 48.7064,-48.70339 26.8945,0 48.7034,21.80891 48.7034,48.70339 0,26.89449 -21.8089,48.70637 -48.7034,48.70637"
           style="fill:#505256;fill-opacity:1;fill-rule:evenodd;stroke:none;stroke-width:0.296881"
           id="path156" />
        <path
           d="m 1634.5978,928.42792 c -1.0896,0.285 -2.188,0.53438 -3.3013,0.75704 l -2.9659,-9.70505 c 1.5705,-0.2761 3.1113,-0.62939 4.6254,-1.0569 l 1.6418,10.00491 m 11.1598,-4.21572 c -1.0065,0.5047 -2.0307,0.98268 -3.0698,1.43097 l -4.9163,-8.87676 c 1.4695,-0.59673 2.9035,-1.26768 4.2958,-2.00395 l 3.6903,9.44974 m 10.0316,-6.45123 c -0.8788,0.70657 -1.7813,1.38643 -2.7016,2.03957 l -6.6561,-7.65657 c 1.3122,-0.89064 2.5769,-1.84363 3.7882,-2.856 l 5.5695,8.473 m 8.4789,-8.38394 c -0.7155,0.87284 -1.4577,1.72489 -2.2236,2.55319 l -8.1019,-6.10686 c 1.0955,-1.14002 2.1375,-2.33051 3.1172,-3.57445 l 7.2083,7.12812 m 6.5611,-9.96037 c -0.5195,1.00346 -1.0717,1.98911 -1.6477,2.95694 l -9.1974,-4.28993 c 0.8372,-1.33894 1.6062,-2.72241 2.3098,-4.14447 l 8.5353,5.47746 m 4.3374,-11.11227 c -0.2998,1.09253 -0.6264,2.17317 -0.9886,3.23898 l -9.8891,-2.28599 c 0.5374,-1.47847 1.0035,-2.98959 1.3894,-4.53338 l 9.4883,3.58039 m 1.9209,-11.77135 c -0.065,1.13112 -0.1633,2.25927 -0.294,3.37258 l -10.1444,-0.17813 c 0.2167,-1.55269 0.3533,-3.12616 0.4156,-4.72339 l 10.0228,1.52894 m -0.5493,-11.91385 c 0.1693,1.11034 0.3029,2.23255 0.4038,3.36367 l -9.9604,1.9327 c -0.1098,-1.59426 -0.3028,-3.16179 -0.567,-4.70854 l 10.1236,-0.58783 m -3.0193,-11.53978 c 0.3979,1.05393 0.769,2.11973 1.1044,3.20038 l -9.3458,3.96634 c -0.4394,-1.52894 -0.953,-3.02522 -1.5378,-4.48588 l 9.7792,-2.68084 m -5.3616,-10.6521 c 0.6115,0.94705 1.1905,1.91488 1.7427,2.90053 l -8.3127,5.81887 c -0.7452,-1.39831 -1.5586,-2.75506 -2.4404,-4.06727 l 9.0104,-4.65213 m -7.4577,-9.30724 c 0.7927,0.80158 1.5616,1.62988 2.3068,2.47896 l -6.9203,7.41907 c -1.0183,-1.21128 -2.096,-2.36911 -3.2331,-3.47054 l 7.8466,-6.42749 m -9.2241,-7.5586 c 0.9441,0.62048 1.8704,1.26769 2.7758,1.94161 l -5.231,8.69862 c -1.2439,-0.9708 -2.5413,-1.87926 -3.8802,-2.72537 l 6.3354,-7.91486 m -10.5898,-5.48637 c 1.054,0.41267 2.0931,0.85502 3.1143,1.32706 l -3.3072,9.59521 c -1.4162,-0.69173 -2.8679,-1.31221 -4.3612,-1.86145 l 4.5541,-9.06082 m -11.5041,-3.14694 c 1.1163,0.18407 2.2266,0.39782 3.3221,0.64423 l -1.241,10.07319 c -1.52,-0.37704 -3.0757,-0.67986 -4.6521,-0.90549 l 2.571,-9.81193 m -11.9109,-0.6858 c 0.8847,-0.0386 1.7724,-0.0623 2.666,-0.0623 l 0.7214,0.009 0.8818,10.10584 c -0.5315,-0.0178 -1.0658,-0.0297 -1.6032,-0.0297 -1.0539,0 -2.1019,0.0386 -3.138,0.10688 l 0.472,-10.1296 m -11.7892,1.78723 c 1.0866,-0.28204 2.1881,-0.53439 3.2984,-0.75705 l 2.9658,9.70803 c -1.5705,0.2761 -3.1113,0.62938 -4.6224,1.05689 l -1.6418,-10.00787 m -11.1597,4.21869 c 1.0064,-0.50767 2.0277,-0.98565 3.0668,-1.43394 l 4.9193,8.87675 c -1.4726,0.59673 -2.9065,1.26769 -4.2989,2.00395 l -3.6872,-9.44676 m -10.0346,6.44826 c 0.8817,-0.70658 1.7813,-1.3894 2.7046,-2.04254 l 6.6531,7.65954 c -1.3122,0.88767 -2.574,1.84066 -3.7853,2.856 l -5.5724,-8.473 m -8.479,8.38393 c 0.7155,-0.87283 1.4577,-1.72488 2.2237,-2.55318 l 8.1019,6.10685 c -1.0985,1.13706 -2.1376,2.33052 -3.1173,3.57445 l -7.2083,-7.12812 m -6.561,9.9574 c 0.5195,-1.00345 1.0687,-1.9891 1.6477,-2.95693 l 9.1973,4.2929 c -0.8372,1.33597 -1.6061,2.71943 -2.3067,4.1415 l -8.5383,-5.47747 m -4.3375,11.11228 c 0.2969,-1.09253 0.6235,-2.17318 0.9857,-3.23898 l 9.8891,2.28599 c -0.5374,1.47847 -1.0005,2.99256 -1.3894,4.53338 l -9.4854,-3.58039 m -1.9238,11.77134 c 0.065,-1.13111 0.1633,-2.25629 0.2939,-3.37257 l 10.1445,0.17813 c -0.2167,1.55269 -0.3533,3.12913 -0.4156,4.72635 l -10.0228,-1.53191 m 0.5493,11.91682 c -0.1693,-1.11033 -0.3029,-2.23254 -0.4038,-3.36366 l 9.9604,-1.9327 c 0.1098,1.59128 0.2998,3.16179 0.567,4.70854 l -10.1236,0.58782 m 3.0163,11.53979 c -0.3949,-1.05393 -0.766,-2.11974 -1.1014,-3.20039 l 9.3458,-3.96336 c 0.4364,1.52894 0.953,3.02225 1.5378,4.48291 l -9.7822,2.68084 m 5.3617,10.65507 c -0.6086,-0.94705 -1.1876,-1.91785 -1.7427,-2.9035 l 8.3156,-5.81591 c 0.7452,1.39831 1.5586,2.75506 2.4404,4.06431 l -9.0133,4.6551 m 7.4636,9.30723 c -0.7957,-0.80455 -1.5646,-1.62988 -2.3098,-2.47896 l 6.9233,-7.41906 c 1.0153,1.21127 2.096,2.36911 3.2271,3.47054 l -7.8406,6.42748 m 9.2211,7.56157 c -0.9441,-0.62345 -1.8704,-1.26768 -2.7729,-1.94457 l 5.2281,-8.69863 c 1.2439,0.97377 2.5413,1.88223 3.8802,2.72834 l -6.3354,7.91486 m 10.5898,5.4834 c -1.054,-0.41266 -2.0901,-0.85502 -3.1143,-1.32706 l 3.3072,-9.59521 c 1.4162,0.69174 2.8709,1.31222 4.3612,1.86145 l -4.5541,9.06082 m 11.51,3.14694 c -1.1192,-0.18406 -2.2295,-0.39782 -3.325,-0.64423 l 1.238,-10.07318 c 1.523,0.37703 3.0786,0.67985 4.6551,0.90548 l -2.5681,9.81193 m 11.908,0.68283 0.475,-10.12959 c -1.0421,0.0713 -2.0871,0.10688 -3.144,0.10688 -0.5374,0 -1.0688,-0.0119 -1.6002,-0.0297 l 0.8817,10.10584 0.7185,0.009 c 0.8966,0 1.7843,-0.0208 2.669,-0.0624"
           style="fill:#505256;fill-opacity:1;fill-rule:evenodd;stroke:none;stroke-width:0.296881"
           id="path158" />
        <path
           d="m 1620.1367,904.78131 c -17.424,0 -31.5526,-14.12859 -31.5526,-31.55256 0,-17.42397 14.1286,-31.55255 31.5526,-31.55255 17.424,0 31.5526,14.12858 31.5526,31.55255 0,17.42397 -14.1286,31.55256 -31.5526,31.55256"
           style="fill:#f9dd09;fill-opacity:1;fill-rule:evenodd;stroke:none;stroke-width:0.296881"
           id="path160" />
        <path
           d="m 1620.1367,899.2801 c -14.3869,0 -26.0513,-11.66744 -26.0513,-26.05135 0,-14.38687 11.6644,-26.05134 26.0513,-26.05134 14.3839,0 26.0513,11.66447 26.0513,26.05134 0,14.38391 -11.6674,26.05135 -26.0513,26.05135"
           style="fill:#eab512;fill-opacity:1;fill-rule:evenodd;stroke:none;stroke-width:0.296881"
           id="path162" />
        <path
           d="m 1620.1367,884.07086 c -5.9851,0 -10.8421,-4.85401 -10.8421,-10.84211 0,-5.9881 4.857,-10.84211 10.8421,-10.84211 5.9851,0 10.8421,4.85401 10.8421,10.84211 0,5.9881 -4.857,10.84211 -10.8421,10.84211"
           style="fill:#f9dd09;fill-opacity:1;fill-rule:evenodd;stroke:none;stroke-width:0.296881"
           id="path164" />
        <path
           d="m 1620.1367,890.21631 c -0.9263,0 -1.6744,-0.75111 -1.6744,-1.67441 0,-0.9233 0.7481,-1.67441 1.6744,-1.67441 0.9233,0 1.6744,0.75111 1.6744,1.67441 0,0.9233 -0.7511,1.67441 -1.6744,1.67441"
           style="fill:#f9dd09;fill-opacity:1;fill-rule:evenodd;stroke:none;stroke-width:0.296881"
           id="path166" />
        <path
           d="m 1630.1208,886.97436 c -0.7452,0.5433 -1.7931,0.37704 -2.3364,-0.3711 -0.5463,-0.74517 -0.38,-1.79613 0.3681,-2.33942 0.7481,-0.5433 1.7961,-0.37704 2.3394,0.3711 0.5433,0.74814 0.3771,1.79613 -0.3711,2.33942"
           style="fill:#f9dd09;fill-opacity:1;fill-rule:evenodd;stroke:none;stroke-width:0.296881"
           id="path168" />
        <path
           d="m 1636.296,878.48059 c -0.2851,0.87876 -1.2321,1.35971 -2.1109,1.07471 -0.8787,-0.28501 -1.3597,-1.22909 -1.0747,-2.11083 0.285,-0.87877 1.2291,-1.35972 2.1108,-1.07471 0.8758,0.285 1.3598,1.23206 1.0748,2.11083"
           style="fill:#f9dd09;fill-opacity:1;fill-rule:evenodd;stroke:none;stroke-width:0.296881"
           id="path170" />
        <path
           d="m 1636.296,867.98286 c 0.285,0.8758 -0.196,1.82285 -1.0748,2.10786 -0.8787,0.285 -1.8228,-0.19595 -2.1108,-1.07471 -0.285,-0.87877 0.196,-1.82582 1.0777,-2.11083 0.8788,-0.28501 1.8228,0.19594 2.1079,1.07768"
           style="fill:#f9dd09;fill-opacity:1;fill-rule:evenodd;stroke:none;stroke-width:0.296881"
           id="path172" />
        <path
           d="m 1630.1268,859.48611 c 0.7481,0.5433 0.9144,1.59129 0.3711,2.33943 -0.5463,0.74814 -1.5913,0.91439 -2.3395,0.3711 -0.7481,-0.54626 -0.9144,-1.59128 -0.3711,-2.33943 0.5433,-0.74814 1.5913,-0.91439 2.3395,-0.3711"
           style="fill:#f9dd09;fill-opacity:1;fill-rule:evenodd;stroke:none;stroke-width:0.296881"
           id="path174" />
        <path
           d="m 1620.1397,856.2412 c 0.9262,0 1.6773,0.74814 1.6773,1.67441 0,0.9233 -0.7511,1.67441 -1.6773,1.67441 -0.9233,0 -1.6715,-0.75111 -1.6715,-1.67441 0,-0.92627 0.7482,-1.67441 1.6715,-1.67441"
           style="fill:#f9dd09;fill-opacity:1;fill-rule:evenodd;stroke:none;stroke-width:0.296881"
           id="path176" />
        <path
           d="m 1610.1555,859.48314 c 0.7482,-0.54329 1.7962,-0.37704 2.3395,0.37111 0.5433,0.74517 0.377,1.79613 -0.3711,2.33645 -0.7482,0.54626 -1.7962,0.38001 -2.3395,-0.36813 -0.5432,-0.74814 -0.377,-1.79613 0.3711,-2.33943"
           style="fill:#f9dd09;fill-opacity:1;fill-rule:evenodd;stroke:none;stroke-width:0.296881"
           id="path178" />
        <path
           d="m 1603.9834,867.97692 c 0.285,-0.87877 1.2291,-1.36268 2.1108,-1.07768 0.8758,0.28798 1.3597,1.23206 1.0747,2.11083 -0.288,0.88174 -1.232,1.36268 -2.1108,1.07471 -0.8788,-0.28501 -1.3627,-1.22909 -1.0747,-2.10786"
           style="fill:#f9dd09;fill-opacity:1;fill-rule:evenodd;stroke:none;stroke-width:0.296881"
           id="path180" />
        <path
           d="m 1603.9804,878.47465 c -0.285,-0.87877 0.196,-1.82285 1.0747,-2.11083 0.8788,-0.28501 1.8258,0.19891 2.1108,1.07768 0.2851,0.87877 -0.1959,1.82285 -1.0747,2.10786 -0.8787,0.28797 -1.8258,-0.19297 -2.1108,-1.07471"
           style="fill:#f9dd09;fill-opacity:1;fill-rule:evenodd;stroke:none;stroke-width:0.296881"
           id="path182" />
        <path
           d="m 1610.1526,886.97139 c -0.7482,-0.54329 -0.9144,-1.59128 -0.3711,-2.33942 0.5433,-0.74814 1.5913,-0.9144 2.3364,-0.3711 0.7511,0.54329 0.9144,1.59128 0.3711,2.33942 -0.5433,0.74814 -1.5913,0.9144 -2.3364,0.3711"
           style="fill:#f9dd09;fill-opacity:1;fill-rule:evenodd;stroke:none;stroke-width:0.296881"
           id="path184" />
        <path
           d="m 1620.8848,816.47393 c 0.03,0 0.062,0 0.092,0 v 1.06878 l -0.092,-1.06878 m -3.426,0.0208 -0.377,8.12268 c -1.9179,0.11875 -3.8001,0.34735 -5.6497,0.68283 l -2.378,-7.7872 c 2.7373,-0.54033 5.5458,-0.88471 8.4047,-1.01831 m -11.7387,1.78426 1.3182,8.02767 c -1.8407,0.51361 -3.6368,1.13112 -5.3825,1.84661 l -3.9455,-7.11922 c 2.5769,-1.11034 5.2548,-2.03364 8.0098,-2.75506 m -11.1063,4.20087 2.9569,7.57642 c -1.6862,0.8847 -3.3132,1.86441 -4.8777,2.93022 l -5.3379,-6.14248 c 2.2978,-1.62691 4.7233,-3.08757 7.2587,-4.36416 m -9.9901,6.42452 4.4711,6.79561 c -1.4636,1.21128 -2.8531,2.50568 -4.1653,3.87727 l -6.4987,-4.90151 c 1.9179,-2.07223 3.9871,-4.00196 6.1929,-5.77137 m -8.4373,8.35127 5.7832,5.71794 c -1.1786,1.4844 -2.2711,3.04006 -3.2746,4.6551 l -7.3745,-3.44383 c 1.4517,-2.43442 3.0786,-4.74713 4.8659,-6.92921 m -6.5284,9.91881 6.846,4.39088 c -0.8431,1.69222 -1.5883,3.44085 -2.2325,5.23698 l -7.9327,-1.83175 c 0.9174,-2.69569 2.0277,-5.29934 3.3192,-7.79611 m -4.3167,11.06477 7.6091,2.87084 c -0.4661,1.82286 -0.8313,3.68727 -1.0837,5.58731 l -8.1375,-0.1425 c 0.2108,-1.80207 0.5077,-3.58336 0.8818,-5.33199 0.2167,-1.00643 0.4601,-1.99801 0.7303,-2.98366 m -1.909,11.72088 8.0426,1.22909 c -0.03,0.67392 -0.045,1.35675 -0.045,2.03957 0,1.22612 0.048,2.44334 0.1366,3.64571 l -7.992,1.55269 c -0.1544,-1.71301 -0.2346,-3.44383 -0.2346,-5.1984 0,-1.09846 0.03,-2.18801 0.092,-3.26866 m 8.6749,11.39134 c 0.3147,1.88816 0.7422,3.7407 1.2707,5.54871 l -7.4963,3.1796 c -0.8283,-2.6749 -1.4666,-5.42996 -1.8941,-8.25627 l 8.1197,-0.47204 m 2.7343,9.80896 c 0.7006,1.77535 1.5052,3.4943 2.4018,5.1598 l -6.668,4.66698 c -1.3745,-2.45224 -2.5739,-5.0173 -3.5804,-7.67439 l 7.8466,-2.15239 m 4.7234,9.02223 c 1.0539,1.58238 2.1999,3.10241 3.426,4.54525 l -5.5517,5.94951 c -1.8614,-2.11974 -3.5685,-4.37901 -5.1004,-6.75999 l 7.2261,-3.73477 m 6.4957,7.8436 c 1.3538,1.32706 2.7878,2.57397 4.29,3.73774 l -4.1949,6.97375 c -2.2653,-1.69223 -4.3998,-3.55071 -6.386,-5.55762 l 6.2909,-5.15387 m 7.9773,6.32952 c 1.5972,1.01533 3.2567,1.9416 4.9727,2.7699 l -2.6541,7.69517 c -2.5769,-1.1905 -5.05,-2.56803 -7.4013,-4.11775 l 5.0827,-6.34732 m 9.1172,4.53634 c 1.7664,0.65611 3.5863,1.21425 5.4418,1.66551 l -0.9916,8.07814 c -2.7847,-0.62642 -5.4893,-1.45769 -8.1019,-2.47599 l 3.6517,-7.26766 m 9.8654,2.52647 c 1.8584,0.27016 3.7496,0.43938 5.6674,0.49579 l 0.7096,8.10486 c -2.8709,-0.0356 -5.6853,-0.28501 -8.4374,-0.7333 l 2.0604,-7.86735"
           style="fill:#282626;fill-opacity:1;fill-rule:nonzero;stroke:none;stroke-width:0.296881"
           id="path1060" />
        <path
           d="m 1617.0818,824.61739 -0.083,1.75457 c 1.0361,-0.0683 2.0841,-0.10688 3.138,-0.10688 0.2791,0 0.5611,0.003 0.8402,0.009 v 15.41111 c -0.2791,-0.006 -0.5611,-0.009 -0.8402,-0.009 -17.424,0 -31.5526,14.12858 -31.5526,31.55255 0,17.42397 14.1286,31.55256 31.5526,31.55256 0.2791,0 0.5611,-0.003 0.8402,-0.009 v 15.41409 c -0.2791,0.003 -0.5582,0.006 -0.8402,0.006 -0.5374,0 -1.0688,-0.0119 -1.6002,-0.0297 v 0 0 l 0.1514,1.7516 c -1.9178,-0.0564 -3.809,-0.22563 -5.6674,-0.49579 l 0.4453,-1.69817 c -1.5765,-0.22563 -3.1321,-0.52845 -4.6551,-0.90548 l -0.2138,1.74269 c -1.8555,-0.45126 -3.6754,-1.0094 -5.4418,-1.66551 l 0.7867,-1.56753 c -1.4903,-0.54923 -2.945,-1.16971 -4.3612,-1.86145 l -0.57,1.66254 c -1.716,-0.8283 -3.3755,-1.75457 -4.9727,-2.7699 l 1.0954,-1.36863 c -1.3389,-0.84611 -2.6363,-1.75457 -3.8802,-2.72834 l -0.9025,1.50519 c -1.5022,-1.16377 -2.9362,-2.41068 -4.29,-3.73774 l 1.3568,-1.1133 c -1.1311,-1.10143 -2.2118,-2.25927 -3.2271,-3.47054 l -1.1994,1.28549 c -1.2261,-1.44284 -2.3721,-2.96287 -3.426,-4.54525 l 1.5616,-0.80455 c -0.8818,-1.30925 -1.6952,-2.666 -2.4404,-4.06431 l -1.4428,1.00643 c -0.8966,-1.6655 -1.7012,-3.38445 -2.4018,-5.1598 l 1.6922,-0.46313 c -0.5848,-1.46066 -1.1014,-2.95397 -1.5378,-4.48291 l -1.618,0.68579 c -0.5285,-1.80801 -0.956,-3.66055 -1.2707,-5.54871 l 1.7516,-0.10094 c -0.2672,-1.54675 -0.4572,-3.11726 -0.567,-4.70854 l -1.7249,0.33251 c -0.089,-1.20237 -0.1366,-2.41959 -0.1366,-3.64571 0,-0.68282 0.015,-1.36565 0.045,-2.03957 l 1.7338,0.26422 c 0.062,-1.59722 0.1989,-3.17366 0.4156,-4.72635 l -1.7576,-0.0297 c 0.2524,-1.90004 0.6176,-3.76445 1.0837,-5.58731 l 1.6447,0.62049 c 0.3889,-1.54082 0.852,-3.05491 1.3894,-4.53338 l -1.713,-0.39486 c 0.6442,-1.79613 1.3894,-3.54476 2.2325,-5.23698 l 1.4815,0.95002 c 0.7006,-1.42207 1.4695,-2.80553 2.3067,-4.1415 l -1.5972,-0.74517 c 1.0035,-1.61504 2.096,-3.1707 3.2746,-4.6551 l 1.2469,1.23502 c 0.9797,-1.24393 2.0188,-2.43739 3.1173,-3.57445 l -1.4043,-1.0569 c 1.3122,-1.37159 2.7017,-2.66599 4.1653,-3.87727 l 0.9648,1.46957 c 1.2113,-1.01534 2.4731,-1.96833 3.7853,-2.856 l -1.1519,-1.32706 c 1.5645,-1.06581 3.1915,-2.04552 4.8777,-2.93022 l 0.6383,1.63878 c 1.3924,-0.73626 2.8263,-1.40722 4.2989,-2.00395 l -0.8521,-1.53784 c 1.7457,-0.71549 3.5418,-1.333 5.3825,-1.84661 l 0.285,1.73082 c 1.5111,-0.42751 3.0519,-0.78079 4.6224,-1.05689 l -0.5136,-1.68035 c 1.8496,-0.33548 3.7318,-0.56408 5.6497,-0.68283"
           style="fill:#363637;fill-opacity:1;fill-rule:nonzero;stroke:none;stroke-width:0.296881"
           id="path1062" />
        <path
           d="m 1620.1367,816.43237 c 0.2523,0 0.4988,0.0297 0.7481,0.0416 l 0.092,1.06878 v 8.73128 c -0.2791,-0.006 -0.5611,-0.009 -0.8402,-0.009 -1.0539,0 -2.1019,0.0386 -3.138,0.10688 l 0.083,-1.75457 0.377,-8.12268 c 0.8877,-0.0416 1.7813,-0.0623 2.6779,-0.0623 m -11.0826,1.08065 v 0 l 2.378,7.7872 0.5136,1.68035 c -1.5705,0.2761 -3.1113,0.62938 -4.6224,1.05689 l -0.285,-1.73082 -1.3182,-8.02767 c 1.1015,-0.28797 2.2118,-0.54329 3.334,-0.76595 m -11.3438,3.52101 v 0 l 3.9455,7.11922 0.8521,1.53784 c -1.4726,0.59673 -2.9065,1.26769 -4.2989,2.00395 l -0.6383,-1.63878 -2.9569,-7.57642 c 1.0153,-0.5136 2.0455,-0.99455 3.0965,-1.44581 m -10.3552,5.80997 v 0 l 5.3379,6.14248 1.1519,1.32706 c -1.3122,0.88767 -2.574,1.84066 -3.7853,2.856 l -0.9648,-1.46957 -4.4711,-6.79561 c 0.8907,-0.71252 1.8021,-1.40128 2.7314,-2.06036 m -8.9243,7.83173 v 0 l 6.4987,4.90151 1.4043,1.0569 c -1.0985,1.13706 -2.1376,2.33052 -3.1173,3.57445 l -1.2469,-1.23502 -5.7832,-5.71794 c 0.7214,-0.88174 1.4725,-1.74269 2.2444,-2.5799 m -7.1103,9.50911 v 0 l 7.3745,3.44383 1.5972,0.74517 c -0.8372,1.33597 -1.6061,2.71943 -2.3067,4.1415 l -1.4815,-0.95002 -6.846,-4.39088 c 0.5225,-1.01237 1.0776,-2.01286 1.6625,-2.9896 m -4.9817,10.78571 v 0 l 7.9327,1.83175 1.713,0.39486 c -0.5374,1.47847 -1.0005,2.99256 -1.3894,4.53338 l -1.6447,-0.62049 -7.6091,-2.87084 c 0.2998,-1.1044 0.6353,-2.19395 0.9975,-3.26866 m -2.6096,11.58431 v 0 l 8.1375,0.1425 1.7576,0.0297 c -0.2167,1.55269 -0.3533,3.12913 -0.4156,4.72635 l -1.7338,-0.26422 -8.0426,-1.22909 c 0.065,-1.14596 0.1633,-2.28005 0.2969,-3.40523 m 9.5626,9.98709 c 0.1098,1.59128 0.2998,3.16179 0.567,4.70854 l -1.7516,0.10094 -8.1197,0.47204 c -0.1722,-1.11924 -0.3087,-2.25333 -0.4126,-3.39632 l 7.992,-1.55269 1.7249,-0.33251 m 1.7041,9.6724 c 0.4364,1.52894 0.953,3.02225 1.5378,4.48291 l -1.6922,0.46313 -7.8466,2.15239 c -0.4008,-1.06283 -0.7748,-2.14348 -1.1133,-3.23304 l 7.4963,-3.1796 1.618,-0.68579 m 3.6902,9.09941 c 0.7452,1.39831 1.5586,2.75506 2.4404,4.06431 l -1.5616,0.80455 -7.2261,3.73477 c -0.6146,-0.95893 -1.2053,-1.93567 -1.7635,-2.93022 l 6.668,-4.66698 1.4428,-1.00643 m 5.5042,8.12862 c 1.0153,1.21127 2.096,2.36911 3.2271,3.47054 l -1.3568,1.1133 -6.2909,5.15387 c -0.8015,-0.81049 -1.5794,-1.64473 -2.3305,-2.50271 l 5.5517,-5.94951 1.1994,-1.28549 m 7.0628,6.81639 c 1.2439,0.97377 2.5413,1.88223 3.8802,2.72834 l -1.0954,1.36863 -5.0827,6.34732 c -0.9529,-0.62642 -1.8881,-1.28253 -2.7995,-1.96535 l 4.1949,-6.97375 0.9025,-1.50519 m 8.3275,5.20433 c 1.4162,0.69174 2.8709,1.31222 4.3612,1.86145 l -0.7867,1.56753 -3.6517,7.26766 c -1.0658,-0.41563 -2.1138,-0.86392 -3.1469,-1.33893 l 2.6541,-7.69517 0.57,-1.66254 m 9.2301,3.3518 c 1.523,0.37703 3.0786,0.67985 4.6551,0.90548 l -0.4453,1.69817 -2.0604,7.86735 c -1.1282,-0.18406 -2.2504,-0.40079 -3.3548,-0.65017 l 0.9916,-8.07814 0.2138,-1.74269 m 9.7258,1.34784 c 0.5314,0.0178 1.0628,0.0297 1.6002,0.0297 0.282,0 0.5611,-0.003 0.8402,-0.006 v 9.79708 c -0.2821,0.003 -0.5552,0.0416 -0.8402,0.0416 -0.2464,0 -0.4958,-0.003 -0.7392,-0.006 l -0.7096,-8.10486 -0.1514,-1.7516"
           style="fill:#363637;fill-opacity:1;fill-rule:nonzero;stroke:none;stroke-width:0.296881"
           id="path1064" />
        <path
           d="m 1620.1367,841.6762 c 0.2791,0 0.5611,0.003 0.8402,0.009 v 5.50418 c -0.2791,-0.009 -0.5582,-0.0119 -0.8402,-0.0119 -14.3869,0 -26.0513,11.66447 -26.0513,26.05134 0,14.38391 11.6644,26.05135 26.0513,26.05135 0.282,0 0.5611,-0.003 0.8402,-0.0119 v 5.50418 c -0.2791,0.006 -0.5611,0.009 -0.8402,0.009 -17.424,0 -31.5526,-14.12859 -31.5526,-31.55256 0,-17.42397 14.1286,-31.55255 31.5526,-31.55255"
           style="fill:#a3931f;fill-opacity:1;fill-rule:nonzero;stroke:none;stroke-width:0.296881"
           id="path1066" />
        <path
           d="m 1620.1367,847.17741 c 0.282,0 0.5611,0.003 0.8402,0.0119 v 9.27458 c -0.2464,-0.1425 -0.5314,-0.22266 -0.8372,-0.22266 -0.9233,0 -1.6715,0.74814 -1.6715,1.67441 0,0.9233 0.7482,1.67441 1.6715,1.67441 0.3058,0 0.5908,-0.0831 0.8372,-0.22266 v 3.05194 c -0.2761,-0.0238 -0.5582,-0.0327 -0.8402,-0.0327 -5.9851,0 -10.8421,4.85401 -10.8421,10.84211 0,5.9881 4.857,10.84211 10.8421,10.84211 0.282,0 0.5641,-0.0119 0.8402,-0.0327 v 3.05491 c -0.2464,-0.14251 -0.5344,-0.22563 -0.8402,-0.22563 -0.9263,0 -1.6744,0.75111 -1.6744,1.67441 0,0.9233 0.7481,1.67441 1.6744,1.67441 0.3058,0 0.5938,-0.0831 0.8402,-0.22563 v 9.27754 c -0.2791,0.009 -0.5582,0.0119 -0.8402,0.0119 -14.3869,0 -26.0513,-11.66744 -26.0513,-26.05135 0,-14.38687 11.6644,-26.05134 26.0513,-26.05134 m -8.9955,15.33392 c 0.3414,0 0.6858,-0.1039 0.9827,-0.32063 0.7481,-0.54032 0.9144,-1.59128 0.3711,-2.33645 -0.3296,-0.45126 -0.8402,-0.69174 -1.3568,-0.69174 -0.3414,0 -0.6858,0.10391 -0.9827,0.32063 -0.7481,0.5433 -0.9143,1.59129 -0.3711,2.33943 0.3296,0.45126 0.8372,0.68876 1.3568,0.68876 m -5.5665,7.65658 c 0.7065,0 1.3627,-0.4483 1.5942,-1.15784 0.285,-0.87877 -0.1989,-1.82285 -1.0747,-2.11083 -0.1722,-0.0534 -0.3473,-0.0802 -0.5166,-0.0802 -0.7065,0 -1.3656,0.44829 -1.5942,1.15784 -0.288,0.87877 0.1959,1.82285 1.0747,2.10786 0.1722,0.0564 0.3473,0.0831 0.5166,0.0831 m 0,9.46458 c 0.1722,0 0.3473,-0.0267 0.5195,-0.0831 0.8788,-0.28501 1.3598,-1.22909 1.0747,-2.10786 -0.2285,-0.70955 -0.8876,-1.15784 -1.5942,-1.15784 -0.1692,0 -0.3444,0.0267 -0.5166,0.0802 -0.8787,0.28798 -1.3597,1.23206 -1.0747,2.11083 0.2316,0.70954 0.8877,1.15784 1.5913,1.15784 m 5.5636,7.65657 c 0.5165,0 1.0272,-0.23751 1.3537,-0.68877 0.5433,-0.74814 0.38,-1.79613 -0.3711,-2.33942 -0.2968,-0.21673 -0.6383,-0.32064 -0.9797,-0.32064 -0.5195,0 -1.0302,0.24048 -1.3567,0.69174 -0.5433,0.74814 -0.3771,1.79613 0.3711,2.33942 0.2969,0.21376 0.6412,0.31767 0.9827,0.31767"
           style="fill:#98771f;fill-opacity:1;fill-rule:nonzero;stroke:none;stroke-width:0.296881"
           id="path1068" />
        <path
           d="m 1620.1367,862.38664 c 0.282,0 0.5641,0.009 0.8402,0.0327 v 21.61891 c -0.2761,0.0208 -0.5582,0.0327 -0.8402,0.0327 -5.9851,0 -10.8421,-4.85401 -10.8421,-10.84211 0,-5.9881 4.857,-10.84211 10.8421,-10.84211"
           style="fill:#a3931f;fill-opacity:1;fill-rule:nonzero;stroke:none;stroke-width:0.296881"
           id="path1070" />
        <path
           d="m 1620.1367,886.86749 c 0.3058,0 0.5938,0.0831 0.8402,0.22563 v 2.89756 c -0.2464,0.1425 -0.5344,0.22563 -0.8402,0.22563 -0.9263,0 -1.6744,-0.75111 -1.6744,-1.67441 0,-0.9233 0.7481,-1.67441 1.6744,-1.67441"
           style="fill:#a3931f;fill-opacity:1;fill-rule:nonzero;stroke:none;stroke-width:0.296881"
           id="path1072" />
        <path
           d="m 1620.1397,856.2412 c 0.3058,0 0.5908,0.0802 0.8372,0.22266 v 2.9035 c -0.2464,0.13953 -0.5314,0.22266 -0.8372,0.22266 -0.9233,0 -1.6715,-0.75111 -1.6715,-1.67441 0,-0.92627 0.7482,-1.67441 1.6715,-1.67441"
           style="fill:#a3931f;fill-opacity:1;fill-rule:nonzero;stroke:none;stroke-width:0.296881"
           id="path1074" />
        <path
           d="m 1611.1382,859.16251 c 0.5166,0 1.0272,0.24048 1.3568,0.69174 0.5433,0.74517 0.377,1.79613 -0.3711,2.33645 -0.2969,0.21673 -0.6413,0.32063 -0.9827,0.32063 -0.5196,0 -1.0272,-0.2375 -1.3568,-0.68876 -0.5432,-0.74814 -0.377,-1.79613 0.3711,-2.33943 0.2969,-0.21672 0.6413,-0.32063 0.9827,-0.32063"
           style="fill:#a3931f;fill-opacity:1;fill-rule:nonzero;stroke:none;stroke-width:0.296881"
           id="path1076" />
        <path
           d="m 1605.5776,866.81908 c 0.1693,0 0.3444,0.0267 0.5166,0.0802 0.8758,0.28798 1.3597,1.23206 1.0747,2.11083 -0.2315,0.70954 -0.8877,1.15784 -1.5942,1.15784 -0.1693,0 -0.3444,-0.0267 -0.5166,-0.0831 -0.8788,-0.28501 -1.3627,-1.22909 -1.0747,-2.10786 0.2286,-0.70955 0.8877,-1.15784 1.5942,-1.15784"
           style="fill:#a3931f;fill-opacity:1;fill-rule:nonzero;stroke:none;stroke-width:0.296881"
           id="path1078" />
        <path
           d="m 1605.5717,876.28366 c 0.7066,0 1.3657,0.44829 1.5942,1.15784 0.2851,0.87877 -0.1959,1.82285 -1.0747,2.10786 -0.1722,0.0564 -0.3473,0.0831 -0.5195,0.0831 -0.7036,0 -1.3597,-0.4483 -1.5913,-1.15784 -0.285,-0.87877 0.196,-1.82285 1.0747,-2.11083 0.1722,-0.0534 0.3474,-0.0802 0.5166,-0.0802"
           style="fill:#a3931f;fill-opacity:1;fill-rule:nonzero;stroke:none;stroke-width:0.296881"
           id="path1080" />
        <path
           d="m 1611.1382,883.94023 c 0.3414,0 0.6829,0.10391 0.9797,0.32064 0.7511,0.54329 0.9144,1.59128 0.3711,2.33942 -0.3265,0.45126 -0.8372,0.68877 -1.3537,0.68877 -0.3415,0 -0.6858,-0.10391 -0.9827,-0.31767 -0.7482,-0.54329 -0.9144,-1.59128 -0.3711,-2.33942 0.3265,-0.45126 0.8372,-0.69174 1.3567,-0.69174"
           style="fill:#a3931f;fill-opacity:1;fill-rule:nonzero;stroke:none;stroke-width:0.296881"
           id="path1082" />
        <path
           d="m 1402.6147,816.82722 -0.4751,10.12663 c -2.3869,0.14547 -4.7352,0.43344 -7.039,0.84908 l -2.9659,-9.70506 c 3.4112,-0.67392 6.9144,-1.1044 10.48,-1.27065 m -14.6333,2.22364 1.6417,10.00491 c -2.2949,0.64126 -4.5334,1.41018 -6.7095,2.3038 l -4.9193,-8.87379 c 3.2152,-1.38347 6.5492,-2.53537 9.9871,-3.43492 m -13.8466,5.23699 3.6873,9.4438 c -2.1049,1.10143 -4.1326,2.32458 -6.0801,3.65461 l -6.6532,-7.65657 c 2.8649,-2.0277 5.8872,-3.85055 9.046,-5.44184 m -12.4512,8.00986 5.5695,8.47003 c -1.8228,1.50816 -3.5566,3.12319 -5.1895,4.83323 l -8.0989,-6.10685 c 2.3899,-2.58584 4.9698,-4.99355 7.7189,-7.19641 m -10.5215,10.41163 7.2083,7.12516 c -1.4666,1.84957 -2.8322,3.7882 -4.0791,5.80403 l -9.1945,-4.28994 c 1.8081,-3.03413 3.8387,-5.91981 6.0653,-8.63925 m -8.1375,12.36215 8.5354,5.47449 c -1.051,2.11083 -1.9802,4.28697 -2.7848,6.52842 l -9.8861,-2.28599 c 1.14,-3.35772 2.5264,-6.60561 4.1355,-9.71692 m -5.3795,13.79014 9.4854,3.58336 c -0.5819,2.27114 -1.0361,4.59572 -1.3538,6.96483 l -10.1415,-0.18109 c 0.1099,-0.93518 0.2375,-1.86442 0.383,-2.78772 0.4067,-2.57693 0.95,-5.10339 1.6269,-7.57938 m -2.378,14.61547 10.0197,1.52894 c -0.033,0.84314 -0.05,1.69222 -0.05,2.54427 0,1.53191 0.056,3.04601 0.1662,4.54823 l -9.9603,1.93269 c -0.193,-2.13457 -0.291,-4.29587 -0.291,-6.48092 0,-1.36862 0.039,-2.72537 0.1158,-4.07321 m 10.8095,14.19984 c 0.3948,2.35427 0.9262,4.66104 1.5853,6.91437 l -9.3429,3.96336 c -1.0331,-3.33397 -1.8287,-6.76889 -2.3631,-10.28991 l 10.1207,-0.58782 m 3.4082,12.22854 c 0.8758,2.21177 1.8762,4.35525 2.9985,6.43046 l -8.3127,5.8159 c -1.716,-3.05491 -3.2123,-6.25232 -4.4651,-9.56849 l 9.7793,-2.67787 m 5.8901,11.24587 c 1.3122,1.97129 2.7402,3.8654 4.2691,5.6645 l -6.9203,7.4161 c -2.3186,-2.64225 -4.4443,-5.45668 -6.3562,-8.4255 l 9.0074,-4.6551 m 8.0989,9.77631 c 1.6863,1.65363 3.4735,3.20929 5.3439,4.66104 l -5.2251,8.69268 c -2.8264,-2.11082 -5.4864,-4.42947 -7.9594,-6.92921 l 7.8406,-6.42451 m 9.9426,7.89111 c 1.9891,1.26471 4.0583,2.41958 6.1988,3.44976 l -3.3072,9.5952 c -3.2123,-1.4844 -6.2969,-3.20335 -9.2271,-5.13307 l 6.3355,-7.91189 m 11.3646,5.65262 c 2.2028,0.81939 4.471,1.51706 6.7867,2.07817 l -1.241,10.07022 c -3.4675,-0.7808 -6.8431,-1.81692 -10.0969,-3.08757 l 4.5512,-9.06082 m 12.2998,3.14991 c 2.3157,0.33844 4.6729,0.54626 7.0658,0.61751 l 0.8787,10.10585 c -3.5744,-0.0445 -7.0836,-0.35626 -10.5125,-0.9144 l 2.568,-9.80896"
           style="fill:#282626;fill-opacity:1;fill-rule:nonzero;stroke:none;stroke-width:0.296881"
           id="path1084" />
        <path
           d="m 1402.1396,826.95385 -0.1009,2.18801 c 1.2944,-0.0861 2.5977,-0.13656 3.9099,-0.13656 0,0 0.01,0 0.01,0 v 19.21119 c 0,0 -0.01,0 -0.01,0 -21.7228,0 -39.3338,17.61398 -39.3338,39.33382 0,21.71985 17.611,39.33382 39.3338,39.33382 0,0 0,0 0.01,0 v 19.2112 c 0,0 -0.01,0 -0.01,0 -0.668,0 -1.33,-0.0149 -1.992,-0.0386 v 0 0 l 0.19,2.18208 c -2.3929,-0.0713 -4.7501,-0.27907 -7.0658,-0.61751 l 0.5552,-2.11677 c -1.9654,-0.27906 -3.904,-0.6561 -5.8011,-1.12518 l -0.2672,2.17021 c -2.3157,-0.56111 -4.5839,-1.25878 -6.7867,-2.07817 l 0.9827,-1.95051 c -1.8585,-0.6858 -3.6725,-1.46066 -5.4359,-2.32162 l -0.7126,2.06927 c -2.1405,-1.03018 -4.2097,-2.18505 -6.1988,-3.44976 l 1.3656,-1.71004 c -1.6685,-1.05096 -3.2865,-2.18505 -4.8362,-3.39633 l -1.1281,1.8763 c -1.8704,-1.45175 -3.6576,-3.00741 -5.3439,-4.66104 l 1.6922,-1.38644 c -1.4131,-1.37456 -2.758,-2.8174 -4.0257,-4.32853 l -1.4963,1.60316 c -1.5289,-1.7991 -2.9569,-3.69321 -4.2691,-5.6645 l 1.9446,-1.00643 c -1.0955,-1.62987 -2.1109,-3.3221 -3.0401,-5.06479 l -1.7961,1.25581 c -1.1223,-2.07521 -2.1227,-4.21869 -2.9985,-6.43046 l 2.1108,-0.57891 c -0.7274,-1.81989 -1.3716,-3.6843 -1.9179,-5.59028 l -2.0158,0.85502 c -0.6591,-2.25333 -1.1905,-4.5601 -1.5853,-6.91437 l 2.185,-0.12766 c -0.3295,-1.92676 -0.57,-3.88321 -0.7066,-5.86935 l -2.1524,0.41861 c -0.1098,-1.50222 -0.1662,-3.01632 -0.1662,-4.54823 0,-0.85205 0.018,-1.70113 0.05,-2.54427 l 2.1673,0.32954 c 0.074,-1.98911 0.2464,-3.95446 0.5166,-5.88716 l -2.194,-0.0386 c 0.3177,-2.36911 0.7719,-4.69369 1.3538,-6.96483 l 2.0485,0.77189 c 0.4869,-1.92082 1.0628,-3.80602 1.7338,-5.64966 l -2.1376,-0.49282 c 0.8046,-2.24145 1.7338,-4.41759 2.7848,-6.52842 l 1.8436,1.18456 c 0.8758,-1.77239 1.8347,-3.49727 2.8768,-5.16574 l -1.9891,-0.92627 c 1.2469,-2.01583 2.6125,-3.95446 4.0791,-5.80403 l 1.5557,1.54081 c 1.2202,-1.55269 2.5175,-3.0371 3.8862,-4.45619 l -1.7487,-1.31815 c 1.6329,-1.71004 3.3667,-3.32507 5.1895,-4.83323 l 1.2024,1.83176 c 1.5111,-1.26472 3.0846,-2.45224 4.7234,-3.55961 l -1.4369,-1.65363 c 1.9475,-1.33003 3.9752,-2.55318 6.0801,-3.65461 l 0.7956,2.04254 c 1.7368,-0.91736 3.524,-1.7516 5.3587,-2.4938 l -1.0628,-1.92082 c 2.1761,-0.89362 4.4146,-1.66254 6.7095,-2.3038 l 0.3563,2.16129 c 1.8822,-0.53438 3.806,-0.97377 5.7595,-1.32112 l -0.6383,-2.09301 c 2.3038,-0.41564 4.6521,-0.70361 7.039,-0.84908"
           style="fill:#363637;fill-opacity:1;fill-rule:nonzero;stroke:none;stroke-width:0.296881"
           id="path1086" />
        <path
           d="m 1405.9516,816.75003 h 0.01 v 12.25527 c 0,0 -0.01,0 -0.01,0 -1.3122,0 -2.6155,0.0505 -3.9099,0.13656 l 0.1009,-2.18801 0.4751,-10.12663 c 1.1073,-0.0505 2.2177,-0.0772 3.3369,-0.0772 m -13.8169,1.34784 2.9659,9.70506 0.6383,2.09301 c -1.9535,0.34735 -3.8773,0.78674 -5.7595,1.32112 l -0.3563,-2.16129 -1.6417,-10.00491 c 1.3686,-0.35625 2.7521,-0.67392 4.1533,-0.95299 m -14.1404,4.38791 4.9193,8.87379 1.0628,1.92082 c -1.8347,0.7422 -3.6219,1.57644 -5.3587,2.4938 l -0.7956,-2.04254 -3.6873,-9.4438 c 1.2647,-0.63829 2.5532,-1.24096 3.8595,-1.80207 m -12.9055,7.24391 6.6532,7.65657 1.4369,1.65363 c -1.6388,1.10737 -3.2123,2.29489 -4.7234,3.55961 l -1.2024,-1.83176 -5.5695,-8.47003 c 1.1074,-0.89064 2.2415,-1.74566 3.4052,-2.56802 m -11.1241,9.76443 8.0989,6.10685 1.7487,1.31815 c -1.3687,1.41909 -2.666,2.9035 -3.8862,4.45619 l -1.5557,-1.54081 -7.2083,-7.12516 c 0.9026,-1.09846 1.8377,-2.17317 2.8026,-3.21522 m -8.8679,11.85447 9.1945,4.28994 1.9891,0.92627 c -1.0421,1.66847 -2.001,3.39335 -2.8768,5.16574 l -1.8436,-1.18456 -8.5354,-5.47449 c 0.6532,-1.26175 1.3449,-2.50568 2.0722,-3.7229 m -6.2077,13.43982 9.8861,2.28599 2.1376,0.49282 c -0.671,1.84364 -1.2469,3.72884 -1.7338,5.64966 l -2.0485,-0.77189 -9.4854,-3.58336 c 0.3741,-1.37456 0.7897,-2.73131 1.244,-4.07322 m -3.2539,14.44032 v 0 l 10.1415,0.18109 2.194,0.0386 c -0.2702,1.9327 -0.4424,3.89805 -0.5166,5.88716 l -2.1673,-0.32954 -10.0197,-1.52894 c 0.08,-1.428 0.2019,-2.84412 0.3681,-4.24837 m 11.9198,12.4512 c 0.1366,1.98614 0.3771,3.94259 0.7066,5.86935 l -2.185,0.12766 -10.1207,0.58782 c -0.2108,-1.39831 -0.383,-2.81146 -0.5136,-4.23353 l 9.9603,-1.93269 2.1524,-0.41861 m 2.1227,12.05636 c 0.5463,1.90598 1.1905,3.77039 1.9179,5.59028 l -2.1108,0.57891 -9.7793,2.67787 c -0.5018,-1.32409 -0.9649,-2.66896 -1.3865,-4.02868 l 9.3429,-3.96336 2.0158,-0.85502 m 4.6017,11.34384 c 0.9292,1.74269 1.9446,3.43492 3.0401,5.06479 l -1.9446,1.00643 -9.0074,4.6551 c -0.766,-1.19643 -1.4993,-2.41364 -2.1969,-3.65461 l 8.3127,-5.8159 1.7961,-1.25581 m 6.8609,10.13256 c 1.2677,1.51113 2.6126,2.95397 4.0257,4.32853 l -1.6922,1.38644 -7.8406,6.42451 c -1.0005,-1.01236 -1.9713,-2.05145 -2.9095,-3.12022 l 6.9203,-7.4161 1.4963,-1.60316 m 8.8055,8.49971 c 1.5497,1.21128 3.1677,2.34537 4.8362,3.39633 l -1.3656,1.71004 -6.3355,7.91189 c -1.1905,-0.7808 -2.3513,-1.59723 -3.4883,-2.44928 l 5.2251,-8.69268 1.1281,-1.8763 m 10.382,6.48686 c 1.7634,0.86096 3.5774,1.63582 5.4359,2.32162 l -0.9827,1.95051 -4.5512,9.06082 c -1.3271,-0.51954 -2.6333,-1.07471 -3.9218,-1.66848 l 3.3072,-9.5952 0.7126,-2.06927 m 11.5071,4.18009 c 1.8971,0.46908 3.8357,0.84612 5.8011,1.12518 l -0.5552,2.11677 -2.568,9.80896 c -1.4102,-0.2286 -2.8056,-0.49876 -4.1861,-0.81048 l 1.241,-10.07022 0.2672,-2.17021 m 12.1217,1.67738 c 0.662,0.0237 1.324,0.0386 1.992,0.0386 0,0 0.01,0 0.01,0 v 12.25526 h -0.01 c -0.3088,0 -0.6175,-0.003 -0.9263,-0.006 l -0.8787,-10.10585 -0.19,-2.18208"
           style="fill:#363637;fill-opacity:1;fill-rule:nonzero;stroke:none;stroke-width:0.296881"
           id="path1088" />
        <path
           d="m 1405.9516,848.21649 c 0,0 0,0 0.01,0 v 6.85796 c 0,0 -0.01,0 -0.01,0 -17.9316,0 -32.4729,14.54126 -32.4729,32.47586 0,17.93164 14.5413,32.47586 32.4729,32.47586 0,0 0.01,0 0.01,0 v 6.85796 c 0,0 -0.01,0 -0.01,0 -21.7228,0 -39.3338,-17.61397 -39.3338,-39.33382 0,-21.71984 17.611,-39.33382 39.3338,-39.33382"
           style="fill:#a3931f;fill-opacity:1;fill-rule:nonzero;stroke:none;stroke-width:0.296881"
           id="path1090" />
        <path
           d="m 1405.9486,855.07445 c 0,0 0.01,0 0.01,0 v 11.29634 0 c -1.1548,0 -2.087,0.93815 -2.087,2.09005 0,1.1519 0.9322,2.08707 2.087,2.08707 v 0 3.48539 c 0,0 -0.01,0 -0.01,0 -7.4606,0 -13.514,6.05341 -13.514,13.51701 0,7.46063 6.0534,13.51405 13.514,13.51405 0,0 0.01,0 0.01,0 v 3.48835 c 0,0 -0.01,0 -0.01,0 -1.1519,0 -2.087,0.93518 -2.087,2.08708 0,1.1519 0.9351,2.08707 2.087,2.08707 0,0 0.01,0 0.01,0 v 11.29931 c 0,0 -0.01,0 -0.01,0 -17.9316,0 -32.4729,-14.54422 -32.4729,-32.47586 0,-17.9346 14.5413,-32.47586 32.4729,-32.47586 m -11.2102,19.1162 c 0.4245,0 0.852,-0.13063 1.2231,-0.39782 0.9322,-0.67689 1.1401,-1.98317 0.4632,-2.91538 -0.4097,-0.56407 -1.045,-0.86095 -1.6893,-0.86095 -0.4275,0 -0.855,0.13062 -1.2261,0.39782 -0.9322,0.67689 -1.14,1.98317 -0.4631,2.91537 0.4097,0.56408 1.045,0.86096 1.6922,0.86096 m -6.9381,9.54474 c 0.8787,0 1.6981,-0.56111 1.9861,-1.44285 0.3533,-1.09549 -0.2464,-2.27411 -1.3419,-2.63037 -0.2138,-0.0683 -0.4334,-0.1039 -0.6472,-0.1039 -0.8788,0 -1.6982,0.5611 -1.9832,1.44284 -0.3562,1.09549 0.2435,2.27411 1.339,2.63037 0.2137,0.0713 0.4334,0.10391 0.6472,0.10391 m 0,11.79806 c 0.2138,0 0.4305,-0.0326 0.6442,-0.10094 1.0955,-0.35922 1.6982,-1.53784 1.3419,-2.63333 -0.2879,-0.88174 -1.1073,-1.44285 -1.9861,-1.44285 -0.2138,0 -0.4334,0.0327 -0.6472,0.10391 -1.0955,0.35626 -1.6952,1.53488 -1.3389,2.63037 0.2879,0.88174 1.1073,1.44284 1.9861,1.44284 m 6.9322,9.54474 c 0.6442,0 1.2825,-0.29688 1.6892,-0.86095 0.6769,-0.93221 0.4721,-2.23552 -0.4631,-2.91538 -0.3681,-0.26719 -0.7986,-0.39782 -1.2232,-0.39782 -0.6472,0 -1.2825,0.29985 -1.6922,0.86096 -0.6769,0.9322 -0.469,2.23848 0.4632,2.91537 0.3711,0.27016 0.7986,0.39782 1.2261,0.39782"
           style="fill:#98771f;fill-opacity:1;fill-rule:nonzero;stroke:none;stroke-width:0.296881"
           id="path1092" />
        <path
           d="m 1405.9486,874.0333 c 0,0 0.01,0 0.01,0 v 27.03106 c 0,0 -0.01,0 -0.01,0 -7.4606,0 -13.514,-6.05342 -13.514,-13.51405 0,-7.4636 6.0534,-13.51701 13.514,-13.51701"
           style="fill:#a3931f;fill-opacity:1;fill-rule:nonzero;stroke:none;stroke-width:0.296881"
           id="path1094" />
        <path
           d="m 1405.9486,904.55271 c 0,0 0.01,0 0.01,0 v 4.17415 c 0,0 -0.01,0 -0.01,0 -1.1519,0 -2.087,-0.93517 -2.087,-2.08707 0,-1.1519 0.9351,-2.08708 2.087,-2.08708"
           style="fill:#a3931f;fill-opacity:1;fill-rule:nonzero;stroke:none;stroke-width:0.296881"
           id="path1096" />
        <path
           d="m 1405.9575,866.37079 v 0 4.17712 0 c -1.1548,0 -2.087,-0.93517 -2.087,-2.08707 0,-1.1519 0.9322,-2.09005 2.087,-2.09005"
           style="fill:#a3931f;fill-opacity:1;fill-rule:nonzero;stroke:none;stroke-width:0.296881"
           id="path1098" />
        <path
           d="m 1394.7354,870.0165 c 0.6443,0 1.2796,0.29688 1.6893,0.86095 0.6769,0.93221 0.469,2.23849 -0.4632,2.91538 -0.3711,0.26719 -0.7986,0.39782 -1.2231,0.39782 -0.6472,0 -1.2825,-0.29688 -1.6922,-0.86096 -0.6769,-0.9322 -0.4691,-2.23848 0.4631,-2.91537 0.3711,-0.2672 0.7986,-0.39782 1.2261,-0.39782"
           style="fill:#a3931f;fill-opacity:1;fill-rule:nonzero;stroke:none;stroke-width:0.296881"
           id="path1100" />
        <path
           d="m 1387.7973,879.55827 c 0.2138,0 0.4334,0.0356 0.6472,0.1039 1.0955,0.35626 1.6952,1.53488 1.3419,2.63037 -0.288,0.88174 -1.1074,1.44285 -1.9861,1.44285 -0.2138,0 -0.4335,-0.0327 -0.6472,-0.10391 -1.0955,-0.35626 -1.6952,-1.53488 -1.339,-2.63037 0.285,-0.88174 1.1044,-1.44284 1.9832,-1.44284"
           style="fill:#a3931f;fill-opacity:1;fill-rule:nonzero;stroke:none;stroke-width:0.296881"
           id="path1102" />
        <path
           d="m 1387.7973,891.35633 c 0.8788,0 1.6982,0.56111 1.9861,1.44285 0.3563,1.09549 -0.2464,2.27411 -1.3419,2.63333 -0.2137,0.0683 -0.4304,0.10094 -0.6442,0.10094 -0.8788,0 -1.6982,-0.5611 -1.9861,-1.44284 -0.3563,-1.09549 0.2434,-2.27411 1.3389,-2.63037 0.2138,-0.0712 0.4334,-0.10391 0.6472,-0.10391"
           style="fill:#a3931f;fill-opacity:1;fill-rule:nonzero;stroke:none;stroke-width:0.296881"
           id="path1104" />
        <path
           d="m 1394.7324,900.90404 c 0.4246,0 0.8551,0.13063 1.2232,0.39782 0.9352,0.67986 1.14,1.98317 0.4631,2.91538 -0.4067,0.56407 -1.045,0.86095 -1.6892,0.86095 -0.4275,0 -0.855,-0.12766 -1.2261,-0.39782 -0.9322,-0.67689 -1.1401,-1.98317 -0.4632,-2.91537 0.4097,-0.56111 1.045,-0.86096 1.6922,-0.86096"
           style="fill:#a3931f;fill-opacity:1;fill-rule:nonzero;stroke:none;stroke-width:0.296881"
           id="path1106" />
      </g>
      <text
         xml:space="preserve"
         style="font-size:29px;font-family:'Cascadia Code';-inkscape-font-specification:'Cascadia Code, Normal';fill:#ffffff;fill-opacity:1;stroke-width:0.75"
         x="1193.4075"
         y="-374.28052"
         id="text7803"
         transform="scale(1,-1)"><tspan
           sodipodi:role="line"
           id="tspan7801"
           style="font-style:normal;font-variant:normal;font-weight:bold;font-stretch:normal;font-size:85px;font-family:Calibri;-inkscape-font-specification:'Calibri, Bold';font-variant-ligatures:normal;font-variant-caps:normal;font-variant-numeric:normal;font-variant-east-asian:normal;fill:#ffffff;stroke-width:0.75"
           x="1193.4075"
           y="-374.28052">AgroComm</tspan></text>
    </g>
  </g>
</svg>
