<?xml version="1.0" encoding="UTF-8"?>
<svg enable-background="new 0 0 800 600" version="1.1" viewBox="0 0 800 600" xmlns="http://www.w3.org/2000/svg">
 <rect width="800" height="600" fill="#EA5D5A"/>
 <circle cx="279.8" cy="403.5" r="189.08" fill="#FFD6C4"/>
 <path d="m11.116 581.22c0.567 1.617 1.529 1.355 2.622 2.622l1.312-1.312c1.005 0.613 1.704 2.448 2.623 3.061-1.137-0.918 0.175-1.924 0.874-2.624l0.437 0.438c0.177 0.394-0.218 0.612-0.437 0.874 0 1.354 1.486 2.799 3.061 2.187l-0.874-1.312c1.137-1.704 2.579-0.132 3.935 0 0.175 0.394-0.218 0.611-0.438 0.874-0.305 1.792-4.372 1.312-3.497 4.371 1.748 1.354 1.312-0.568 2.622-1.312 2.145 0.656 1.881-3.06 3.937-1.312 0.394 1.574-1.748 1.705-2.186 2.186l0.438 0.438 0.436-0.438c1.793-0.567 0.875 1.574 1.749 2.188-0.393 0.874-1.923 0-1.749 1.311-2.186 2.274-2.01-1.441-3.934-0.873 0.611 0.961 1.967 2.71 0.436 3.497-0.436-0.262-0.655-1.05-1.311-0.874 0 0.48 0.131 1.049-0.438 1.312 0.438 0.831 0.438 1.617 1.748 1.312 0.559 0.473 0.02 1.533-0.412 2.153h691.66c0.137-0.354 0.381-0.66 0.816-0.839 0.109 0.353 0.324 0.619 0.596 0.839h3.146c0.153-0.041 0.323-0.043 0.514 0h13.67l0.864-1.728c0.699 0.438 1.485 0.438 2.186 0 0.13 0.654-0.284 1.229-0.312 1.728h7.023c-0.517-1.156 1.847-0.579 2.042-1.714 0.47 0.813 1.493 1.113 1.641 1.714h1.284c0.144-0.2 0.323-0.357 0.573-0.403 0.153 0.128 0.296 0.305 0.463 0.403h0.389c-0.498-0.697-0.443-1.635 0.46-2.153-1.486-2.534 0.611-3.454 2.187-5.246 1.354 0.481 0.437 1.969 1.311 2.624-0.306 0.829-1.137 0.263-1.747 0.437v2.623c0.438 0.263 0.655 1.049 1.312 0.875 0.175-0.7-0.396-1.75 0.437-2.188 0.787 0 1.138 0.873 1.75 1.312 0.612-0.176 1.442 0.394 1.748-0.438 0-0.917 0.132-1.924-0.438-2.621 0.262-0.221 0.48-0.612 0.875-0.438 0-0.48-0.089-1.048 0.438-1.312 0.654-0.174 0.875 0.613 1.312 0.876v-0.438c0.35-0.831 1.138-0.264 1.75-0.438 0.567 0.265 0.436 0.832 0.436 1.312-0.087 1.528-1.792 1.05-2.621 1.748l0.873 0.874c-0.699 0.524-0.394 1.529-0.873 2.188 2.188 0.438 0.829-2.143 2.621-2.623 1.006 0.655 1.485-1.305 2.186-5e-3 7e-3 -0.351 0.071-0.686 0.438-0.87 0.396-0.175 0.612 0.219 0.875 0.438 2.317-1.792 2.448 1.312 4.373 1.749 2.577 0.306 1.312-3.235 3.497-3.06l-1.312-2.624c1.268-1.967 2.667 1.925 3.936-0.437 2.315 0.174 1.048 3.322 3.496 3.061l-1.748 0.873h3.935v-0.873c-0.395 0.174-0.612-0.221-0.873-0.438 0-0.48-0.088-1.048 0.437-1.312 1.093 0.089 1.53 1.619 2.623 1.751l0.875-1.312 0.874 1.748c-0.175-0.395 0.219-0.612 0.438-0.874l0.438 0.438c0.48 0.263 1.486 1.267 2.622 0.873v-0.438l-0.438 0.438-2.186-2.186 2.622-1.312c1.486-1.312-1.05-2.623 0.438-3.935 0.393-0.175 0.61 0.22 0.874 0.438 0.246-0.231 0.465-0.625 0.857-0.45-0.525-0.698-1.53-0.393-2.186-0.875-0.875 1.575 0.262 4.81-2.623 4.81-1.095-0.568-0.83-1.661-0.874-2.622 0.349-0.83 1.136-0.262 1.749-0.438-0.921-2.134-3.24 0.652-3.479-1.438-0.068 0.216-0.304 0.381-0.458 0.564-1.65 0.33-1.294-0.673-0.867-1.319l-7e-3 8e-3 -0.438-0.438c-0.395-0.176-0.612 0.218-0.874 0.438l-0.874-0.874c0.174-0.613-0.395-1.443 0.437-1.75 1.312 2.23 2.404-0.611 3.936-0.437v-1.312c-0.48 0-1.05-0.13-1.312 0.438-0.611-1.531-2.447-2.536-1.312-4.372 0.48-0.481 0.918-1.138 1.748-0.874v-1.312l-0.874 0.874c-0.611-1.138-4.24-0.788-2.622-3.061h-0.438c-0.831-0.352-0.263-1.138-0.437-1.748-0.656 0.218-1.619 0.873-2.188 0l-0.437 0.437 0.437 0.438c-0.262 0.698-1.269 1.181-0.873 2.186 0.655-0.568 1.968-0.699 2.622 0 0.175 0.656-0.611 0.875-0.874 1.312 0.176 0.7-0.394 1.749 0.438 2.187l-0.438 0.438c-1.093 0.479-1.486-0.874-2.187-1.312l0.875-0.874c-0.48 0-1.051-0.131-1.312 0.438-1.137-1.53-0.044-3.497-0.438-5.246-0.176 1.267-1.138 2.143-2.623 1.749-0.219-0.264-0.611-0.482-0.438-0.874 0.438-0.263 0.654-1.05 1.312-0.873l-1.749-2.624 1.312-0.875c-0.612-0.218-1.269-0.262-1.75-0.873l1.312-1.312c0.654-0.175 0.874 0.611 1.312 0.874-0.062 0.441 0.508 0.905 0.438 1.311l0.437-0.437c0.396 0.92 0.918 0.961 1.75 1.312v-1.748c0.785-2.229 2.011 0.7 3.06-0.875-1.355-0.48-0.438-1.966-1.312-2.623-0.657-0.176-0.874 0.612-1.312 0.875l-0.875-0.875c0.655-1.049 1.749-1.136 2.622-1.748 0.22 0.262 0.612 0.48 0.438 0.875h0.875c0-0.481-0.087-1.05 0.438-1.312 2.755 2.358 1.354-2.405 3.936-1.748 0.314-0.791-0.257-1.237-0.451-1.839 3e-3 0.03 0.011 0.06 0.013 0.091-0.697 1.136-1.485-0.264-2.185-0.438 0-0.479-0.087-1.048 0.438-1.312-0.7-0.175-1.748 0.395-2.187-0.438 2.229-2.143-3.06-3.278 0-5.246h-1.749c-0.438 0.612-0.218 1.794-1.312 1.749l-1.312-1.312c-1.704-3.892 2.579 0.438 3.497-2.188l0.438 0.438c0.611-0.176 1.443 0.393 1.748-0.438-0.612-1.485-2.272-2.577-3.498-2.622-0.175 0.612 0.395 1.399-0.438 1.748-1.093-0.567-1.53-2.534-2.623-3.061l-0.438 0.438c-3.062-1.968 2.23-1.441 0.438-3.935h-0.438c0.699 2.886-2.842 1.137-3.062 3.498-1.049-0.394-1.792 1.181-2.623 0l-2.186 1.749-0.438-0.438c-1.575 1.137-3.892 1.704-4.81-0.438l-0.438 0.438 0.438 0.438c0.174 0.655-0.612 0.875-0.874 1.312-0.831 0.263-1.27-0.394-1.748-0.875-0.395-1.747 1.923-1.529 2.185-2.622-1.354-0.176-1.967 1.485-3.497 0.873-1.181-0.262-4.021 0.701-5.247-0.873l1.312 2.187c-0.306 0.875-1.574 2.623-2.623 1.312 0 0.743-0.873 1.138-1.312 1.748-0.611-0.174-1.398 0.395-1.748-0.437l0.437-0.438c-0.918-0.611 0.045-2.403-0.873-2.621-0.437 1.617-0.612 3.759-2.623 4.37-0.262-0.698-1.269-1.223-0.874-2.186 1.793-0.873 0-3.235 2.188-3.935-0.264-0.219-0.481-0.611-0.873-0.438-0.526 0.394-1.794 0.088-1.312 1.312-0.087 1.27-1.354 2.493-2.623 2.623-0.832-0.611-0.262-1.748-0.438-2.623-1.793-2.358-3.234 0.875-5.246 0.438-0.262-0.438-1.05-0.655-0.874-1.311-0.176 0.479-1.138 2.489-2.624 1.748-0.831-0.438-0.263-1.486-0.438-2.188 0.481-0.611 1.138-0.655 1.749-0.873l-3.06 0.438c-1.181-0.265-4.023 0.697-5.246-0.875l1.312 2.186c-0.307 0.874-1.574 2.624-2.622 1.312 0.174 0.654-0.612 0.872-0.874 1.312-0.263-0.438-1.05-0.657-0.874-1.312-1.705 0.654-0.917-1.662-1.749-1.748-0.875 1.484-1.094 3.539-2.623 4.37-0.219-0.263-0.612-0.479-0.438-0.874-0.701-1.748 1.137-3.496 1.748-5.245-1.704 0.307-2.798-3.498-4.372-0.874l2.188 1.749-0.438 0.436c-0.918-0.35-2.492 0.044-2.623-1.311-0.961 0.394-1.485-0.612-2.186-0.874 0-0.481-0.088-1.051 0.437-1.312l-0.437-0.438c-1.618-0.655-1.53 0.962-2.187 1.749 0.48 0 1.048-0.132 1.312 0.438-0.174 0.611 0.394 1.398-0.438 1.748-1.705-2.186-3.585-1.311-5.683-1.311-0.744-0.438-0.7-1.269-1.312-1.749l-0.438 0.438-2.188-2.187c0.175 0.699-0.394 2.142 0.438 2.187l0.438-0.438 0.438 0.438c0.479 1.092-0.875 1.486-1.312 2.188h0.438c0.83 0.306 0.262 1.137 0.438 1.748-0.743 1.529-2.359 1.137-3.498 1.747-1.398-1.88 1.661-1.005 2.188-2.186l-0.875-0.875c-0.655-0.174-0.874 0.613-1.312 0.875l-0.438-0.437-0.875 1.311c-2.447-2.753-4.765-4.939-4.81-8.742-3.934-4.109-6.295-8.787-9.616-13.116-4.896-6.031-6.207-13.508-9.618-20.109-10.011-8.438-15.563-18.317-24.482-27.542-5.771-4.503 3.454-5.946 1.749-10.931 0.479-9.663 12.284-16.22 6.994-26.668 4.154-6.075 8.919-10.711 14.426-16.177 4.941 1.181 10.406 2.274 15.303 2.188 10.271 3.06 23.171 7.256 26.668 19.233 1.924 1.27 3.979 2.144 6.558 1.749 4.329-1.311 8-5.944 9.182-10.055-1.968-2.58-1.05-7.127-4.371-8.308-0.176-0.654 0.61-0.872 0.874-1.311l0.873 0.874c1.006-2.886-2.448-0.788-3.061-2.623-0.218-2.316-1.093-4.373-2.623-6.12-2.229-6.251-6.163-11.805-6.557-18.799-0.656-2.012-4.547-3.323-3.062-5.684l1.748 1.748c-1.397-4.416-5.9-7.562-6.557-12.24 3.935-2.579 1.312-7.825 3.935-10.93-0.523-1.442-2.011-0.699-3.061-0.875-1.355 0.963-3.717 2.361-3.497 4.373-1.748 1.922-1.137 6.646-5.247 5.684-3.802-2.799-8.743-0.264-13.114-0.438-0.918 0.611-1.793 2.709-3.061 1.312-6.995 1.05-13.991 3.321-20.984 3.062-1.269-0.481-1.925 1.924-3.06 0.438-1.05 2.798-3.235 0.264-4.812 0.438-1.572 1.75-3.802 2.012-5.682 3.062l-0.438-0.438c-0.829-0.263-1.27 0.395-1.748 0.874-1.748-1.793-1.27 1.529-3.062 0.874-1.792 1.924-4.896 1.795-6.995 1.75-3.06 0.699-5.855 2.143-9.18 2.186-8.524-4.547-15.127-13.728-22.732-20.547-1.748-3.543-2.358-7.914-6.559-10.056-3.672 3.322-6.295-2.534-9.619-1.312-0.829-1.049-0.262-2.623-0.437-3.934-4.415-2.013-3.104-7.171-5.247-10.494-0.917-1.354 0.22-3.978-2.186-4.369 0.349-2.58-3.322-4.592-1.749-6.559-0.961-2.404 1.88-3.847 0.873-5.684 3.323-1.792-0.654-3.76-0.873-5.684 3.847-1.75 8.569-2.143 11.804-4.371-2.188-3.279-5.509-3.761-8.306-5.685-1.968-1.749-6.731 0.263-6.558-3.937-4.372-2.84-9.882-0.437-13.991 1.312-2.055 2.273-7.169 4.021-3.935 7.869-3.234 3.542-5.771 7.432-9.181 10.93 2.798 0.7 5.507-1.137 8.306-1.748l0.438 0.438c-2.887 4.589-3.324 10.229-6.122 14.862-1.092 1.181 0.438 3.455-1.311 4.373 1.048 5.639-9.793 11.147-0.875 15.301-0.175 2.143 0.219 4.109 0.438 6.119-3.76 5.334 1.793 11.148-0.874 16.613-8.48-1.66-4.59 9.573-12.241 10.93-0.742 0.656-2.272 0.656-3.06 0l-0.438 0.438c-5.64-1.749-11.761-2.316-17.925-2.623-19.455 4.854-45.685 2.711-53.772 25.793-2.012 4.896-3.018 10.274-4.81 15.301-7.3 1.705-15.125 2.014-22.731 3.062-1.312-1.136-3.018 0.875-4.373-0.438 1.968-3.717 5.379-6.819 5.246-11.366l-1.748 4.81c-3.498 2.622-4.984 9.137-10.492 7.869-2.012-0.831 0.262-2.011 0.438-3.061h-0.438c0.175 0.655-0.611 0.875-0.873 1.312-0.526-1.355-0.482-2.886-2.188-3.498-1.049-5.728-5.508-10.055-5.684-16.175-1.312-3.104-2.929-6.604-2.186-10.057-3.761-4.853-1.05-12.809-7.433-16.176-3.455-2.142-2.273-5.64-1.749-8.744-0.612-2.447-0.481-5.246-1.75-7.432-3.583 2.273-5.944 5.945-6.119 10.055-1.705 2.36-4.896 0.874-6.993 2.188-2.493-1.926-6.646 0.175-9.181-1.749-6.427 3.542-10.974-2.843-17.486-1.748-1.794 0.086-2.623 2.579-4.81 1.748-1.312-1.136-3.017 0.874-4.372-0.438-1.312 1.137-2.623-0.263-3.934-0.437-3.673 0.61-7.521 0.479-10.931 1.747-4.24-0.394-9.006 0.613-13.553 0.873-0.611 0.438-1.704 0.964-2.186 0.438-0.394-0.174-0.611 0.22-0.874 0.438-0.263-0.568-0.831-0.438-1.312-0.438-4.152 0.481-8.088 1.269-11.804 1.75-2.23 0.175-5.771-0.394-8.307 0.437l-10.492-10.491c-0.83-1.224-1.967-2.315-1.749-3.935 0.438-2.143 2.667-1.703 4.372-1.75 0.48-0.479 1.137-0.916 0.875-1.748-1.793-1.924-4.372-1.791-6.995-1.748-1.093 0.525-0.83 1.617-0.875 2.623-0.523 1.094-1.618 2.668-3.061 2.623-0.394 1.181-1.835 1.924-1.312 3.498-4.983 7.521-13.115 12.983-21.422 15.301-12.109 6.119-13.64-10.491-22.732-13.115-1.181-0.567-4.196-1.049-3.935 1.312-6.295-3.674-10.098 3.935-14.864 6.557-3.017 2.888-2.272 7.391-4.81 10.492-8.175-0.131-15.607-2.1-24.044-1.748-12.022 2.711-23.827 6.076-34.102 13.115-3.759 0.7-8.131 0.176-11.365 2.187-20.374 17.312-21.946 44.023-39.784 62.079-5.071 5.945-13.99 5.204-20.984 3.936l6.995 2.187v0.438c-3.935 0.611-8.132-0.831-11.804-2.187 4.152 1.529 7.693 4.459 12.678 3.935-1.618 1.094-4.021 1.53-5.683 1.312-4.546 1.923-9.271-1.926-13.115 0.437 1.486 0.438 3.278-0.043 4.372 1.312-1.312 0.829-3.235 0.262-4.81 0.438v0.874c5.596-0.656 11.936-0.656 17.486 0l0.438-0.438h7.432c-4.241 3.322-9.618 4.108-14.428 6.122l-0.438-0.438c-3.061 1.269-8.044 1.137-10.055 1.748 1.312 1.486 2.623-1.048 3.935 0.438 2.885-0.438 6.82-0.83 10.056-1.747l0.438 0.437c-1.575 2.012-4.197 1.4-6.122 2.624-1.923 1.091-5.289-0.438-6.557 1.31 1.354 0.177 2.36 1.312 3.935 0.874h5.684c1.529-0.61 3.892-0.653 5.247-0.437-1.094-0.175-1.53 2.359-2.623 0.873-1.487 2.056-4.854 0.48-6.121 2.188 0.611 0.175 1.442-0.395 1.749 0.438-1.269 1.574-4.372 0.612-6.559 0.875l4.373 1.312-0.875 0.874c-2.402 1.05-4.152-0.219-6.557 0.874-0.612 2.012 1.879 0.524 2.185 2.188 2.361-0.263 4.635-1.924 6.996-0.874-3.104 1.573-7.432 3.017-8.744 6.119 2.317-1.53 5.159-1.704 7.869-2.187 1.75-0.264 3.499-3.235 5.247-0.874-3.804 3.321-8.568 6.295-13.116 8.742 0.831 0.875 2.404-0.437 3.061 0-0.087 1.53-1.792 1.05-2.623 1.75l1.311 0.873c3.411-1.138 6.385-3.06 10.057-3.497 7.126-3.979 14.339-7.65 20.984-12.68l0.438 0.438c-2.011 4.373-6.732 6.121-10.054 9.183 2.447-0.176 4.327-3.192 6.558-2.624-4.197 3.453-8.262 7.302-13.116 9.181 6.121-1.968 11.629-5.29 16.613-10.056 5.071-4.722 8.001-10.273 12.241-15.302l1.75 1.748-1.312 1.749c0.174 1.049-0.394 2.273 0.438 3.062-0.655 4.635-1.967 9.006-3.935 13.114-0.918 4.811-3.235 9.007-4.81 13.554 0.175 3.454-3.715 5.246-3.498 8.743-2.886 3.366-3.234 7.869-4.81 11.805l0.438 0.438c0.174 0.395-0.218 0.613-0.438 0.874 0.787 1.05-0.262 2.8 1.312 3.497-1.312 0.7 0.655 1.182 0 2.188-2.711-0.044-4.109 2.579-6.56 1.748-0.088 1.748-2.272 0.218-3.061 1.312-0.437-0.701-1.792-1.094-1.311-2.188h-0.868c-0.176 0.875-1.574 1.749-0.438 2.623-0.306 0.831-1.136 0.262-1.75 0.438-0.611-0.48-0.655-1.136-0.873-1.748-1.398 0.525-3.804 2.405-4.809 0.438l-0.875 1.748-1.312-0.874c-1.574 3.498-6.731 0.219-7.432 3.935l-0.874-0.875c-1.093 1.618-1.355-1.224-2.624-0.437v0.874c-0.438 0.874-1.268-0.176-1.749-0.438l-1.312 2.188c-0.394 0.174-0.611-0.219-0.875-0.438-1.049 1.706-3.453-0.218-4.37 2.188-1.138-1.27-1.05 0.438-2.187 0.438-0.438-1.443-0.744-1.749-2.186-2.186 0.394 1.967-0.743 3.321 0.875 4.372-1.312 0.698-2.404 1.924-3.937 2.186-0.218-0.262-0.61-0.479-0.437-0.873-0.611-0.175-1.399 0.394-1.75-0.438v1.749c-2.187 1.093 0.875 2.842-1.312 3.935l-0.875-1.749c-1.398 0.044-1.048 1.618-2.623 1.312-0.176 0.698 0.395 1.747-0.438 2.186-1.269 0.262-2.142-0.395-3.061-0.874-0.175 0.612 0.394 1.399-0.437 1.748l0.874 0.874c0.263 0.83-0.395 1.269-0.874 1.749-0.7-1.312-3.454-1.968-2.188-3.937h-1.731v0.438c0.655-0.175 0.875 0.613 1.312 0.874-0.174 0.612 0.394 1.398-0.437 1.749-0.832-2.886-3.761 0.044-5.247-0.875 0.263-0.438 1.049-0.655 0.875-1.312-1.923-0.479-2.274-1.092-3.936 0.438-0.83-0.438-0.262-1.486-0.437-2.188h-0.875c0.175-1.092-2.36-1.528-0.873-2.621 0.829-0.178 1.485 0.218 2.185 0.437-0.743-3.278-5.857-0.655-6.994-3.936l-1.312 1.312c-0.656 0.176-0.875-0.611-1.312-0.873 1.007-0.263 2.143-1.137 2.624-1.749l-0.875-0.873c0.176 1.616-1.705 0.263-2.186 1.312-0.174 0.394 0.219 0.61 0.437 0.873-0.262 0.22-0.48 0.612-0.875 0.438-0.087 0.612 1.05 1.269 0 1.748-1.136-1.486-2.359 1.049-3.498-0.438v0.874c0.611 0.174 1.443-0.395 1.749 0.437 0.176 0.394-0.218 0.612-0.436 0.874-1.269 0.262-2.144-0.393-3.061-0.874-1.574 0-1.618-2.404-0.438-2.623-0.482 0-1.049 0.089-1.311-0.437 0.13 0.612-1.05 1.268 0 1.749l-0.875 0.874c0.703 1.48 3.413 1.568 1.752 3.492zm13.114 6.983l-1.181-0.396c0.527 0.111 0.573-0.805 1.181-0.479v0.875zm755.01-6.122l0.874 1.312c-0.088 0.832-2.404 0.046-1.749 1.75h-0.875c0.175-0.395-0.218-0.612-0.437-0.875h-0.874c1.049-0.699 1.354-2.142 3.061-2.187zm-3.935-26.23h1.312c-0.174 0.394 0.221 0.611 0.438 0.873-0.395-0.174-0.611 0.22-0.874 0.438-0.397-0.786-1.183-0.262-0.876-1.311zm-3.936-7.869v1.312h-0.874c0.043-0.569 0.394-1.355 0.874-1.312zm-1.311 3.935c1.968 0.395 1.574-2.535 3.498-2.186-1.05 1.093-1.924 1.269-0.875 3.06 0.262 0.219 0.48 0.613 0.875 0.438-0.525 0.481-0.613 1.837-1.749 1.312 0.218-1.969-2.885-0.263-1.749-2.624zm0 13.115c0.263 0.218 0.48 0.612 0.875 0.438-0.83 0.308-0.262 1.138-0.438 1.749-0.698-0.219-1.354-0.611-2.186-0.438l1.749-1.749zm-0.873 30.602c-0.219 0.263-0.875 1.269-1.75 0.875-0.087-1.049 1.05-0.875 1.75-0.875zm-13.991-45.466c0.657-0.044 1.006 0.7 1.75 0.438 0.174 0.392-0.22 0.611-0.438 0.874-0.83 0.306-1.618-0.48-1.312-1.312zm-7.87 45.904c0 0.48 0.13 1.049-0.437 1.311l-0.875-0.874 1.312-0.437zm-19.236-47.653c0.655-0.043 1.005 0.7 1.749 0.438 0.176 0.393-0.219 0.611-0.438 0.874-0.83 0.306-1.617-0.481-1.311-1.312zm-48.091-131.15c2.449-1.049 2.362 2.012 3.498 3.062l4.811 3.934c-5.641 0.263-10.23-2.01-15.303-3.061 0.876-3.017 4.593-2.756 6.994-3.935zm-3.467 6.573c0.89 0.111 1.773 0.23 2.596 0.422-0.921-1e-3 -1.769-0.18-2.596-0.422-1.953-0.244-3.923-0.455-5.273-1.327 1.923 0.029 3.546 0.818 5.273 1.327zm-599.4 85.234c1.661-2.23 4.852-0.656 6.995-1.748-1.705 1.181-4.241 2.185-6.995 1.748zm3.06-8.743c2.886-1.137 5.858-2.361 8.744-3.497-2.229 1.792-5.289 3.671-8.744 3.497zm111.04 63.388c-0.103-0.299-0.219-0.553-0.346-0.773-0.033-0.033-0.062-0.064-0.091-0.099 3e-3 -0.014 7e-3 -0.023 0.011-0.036 0.028 0.044 0.054 0.09 0.08 0.135 0.219 0.221 0.499 0.431 0.346 0.773zm59.052-21.419c-0.532-0.053-1.063-0.096-1.345 0.438l-0.437-0.438 0.437-0.437-0.437-0.438 0.437-0.437c0.484 0.302 0.821 1.042 1.345 1.312 0.296 0.03 0.592 0.064 0.841 0-0.337 0.148-0.607 0.121-0.841 0zm27.947 6.995l-0.438-0.438c-0.218 0.263-0.611 0.479-0.437 0.874-0.48 0-1.049 0.087-1.312-0.438l0.437-1.312c0.657-0.042 1.005 0.699 1.749 0.438v0.876zm41.968-24.484l0.374-0.745c0.226-1.134-0.371-2.681 1.376-2.751l-1.376 2.751c-0.056 0.286-0.162 0.546-0.374 0.745zm1.75-7.868c0.48-0.481 0.918-1.139 1.748-0.873 0.219 1.617-0.918 2.71-1.748 3.933h-0.874c0.175-0.393-0.219-0.609-0.438-0.873l1.749-1.75-0.437-0.437zm14.427 34.975c-0.395-0.175-0.611 0.22-0.873 0.438 0.043-0.568 0.393-1.354 0.873-1.312v0.874zm17.487-11.367l0.438-2.188 0.438 0.438c-0.219 0.263-0.611 0.48-0.438 0.873 0.568 0.875 1.529 0.218 2.187 0-0.526 1.096-1.619 0.833-2.625 0.877zm20.986-2.187l-0.875-1.311 0.875 0.873v0.438zm30.601-3.06l0.873-1.749 0.875 0.875c-0.524 0.263-0.437 0.83-0.437 1.312 0.35 0.829 1.136 0.262 1.748 0.438l2e-3 0.437c-1.048-0.438-2.404 0.043-3.061-1.313zm6.121 6.559l0.438-1.312 0.875 0.873c-0.264 0.527-0.832 0.439-1.313 0.439zm3.061-3.935c-0.263-0.784-0.263-1.006 0-1.748 0.393-0.176 0.611 0.219 0.874 0.438l-0.874 1.31zm4.372 1.748l-0.438 0.438c-2.931-1.663 1.879-1.881 0.438-4.372 1.66 0.525 0.175 2.666 0 3.934zm2.185-11.804c-0.524 0.264-0.438 0.831-0.438 1.312 0.394 0.873 1.924 0 1.749 1.312-1.27 0.393-2.229 0.918-3.062 1.748 1.095-1.704-0.698-3.977 1.751-4.372zm0.436 11.368l0.876-0.876c-1.925-0.654 0.479-1.748-0.876-2.621l1.312-1.749c0.174 0.394-0.218 0.611-0.437 0.874 1.747-0.044 0.218 2.011 1.311 2.623-0.48 0.83-0.655 2.36-2.186 1.749zm5.685-7.87h-0.438c0.395-0.568 0.132-1.792 1.312-1.312 0.175 0.656-0.611 0.875-0.874 1.312zm0.71-13.425c-0.896 1.659-1.482 3.411-3.334 4.683 0.58-1.775 2.235-3.129 3.334-4.683 0.184-0.339 0.379-0.675 0.601-1.001-0.167 0.345-0.373 0.677-0.601 1.001zm2.788 22.17l-0.438-0.875c0.613 0.175 1.444-0.395 1.751 0.437-0.266 0.525-0.834 0.438-1.313 0.438zm14.865 0.436h1.748c-0.306 0.655-1.793 0.655-1.748 0zm0-2.623c1.091-0.61-0.438-2.667 1.31-2.623 0.613 0.919 0.656 2.013 0.875 3.06-0.701-0.175-1.749 0.394-2.185-0.437zm26.663 8.318c1e-3 -4e-3 5e-3 -6e-3 7e-3 -9e-3 0.09 0.041 0.156 0.096 0.214 0.157-0.078-0.048-0.152-0.097-0.221-0.148zm1.318 1.74c-1.173 0.155-0.601-1.051-1.093-1.589 0 1e-3 1e-3 1e-3 1e-3 1e-3 0.421 0.256 0.974 0.429 1.53 0.275 0 0.481 0.131 1.051-0.438 1.313zm3.057-6.561c0.655-0.174 0.874 0.613 1.312 0.875v1.312c-1.532 0.087-0.438-1.661-1.312-2.187zm1.311 6.122l-0.874-0.875c0.35-0.83 1.136-0.262 1.748-0.438-0.174 0.394 0.218 0.611 0.438 0.874-0.263 0.527-0.832 0.439-1.312 0.439zm1.749 3.496c0.875-0.262 1.486-1.269 2.623-0.874 0.044 1.573-2.229 0.656-2.623 0.874zm38.471-3.935c-1.485-0.043-3.104 0.306-3.936-1.312v-1.311c0.919 0.175 1.486 1.311 2.624 0.873 1.049-0.437-0.306-0.655 0-1.312h1.312c-1.31 1.052 0.656 1.751 0 3.062zm3.061-3.933c-1.486-0.438-2.492-2.447-0.873-3.498 0.655-0.174 0.873 0.613 1.311 0.875-0.176 0.873 0.393 2.009-0.438 2.623zm5.683-3.499c-0.61-0.174-1.397 0.396-1.748-0.437 0.351-0.655 1.442-0.655 1.748 0v0.437zm5.684-4.371c-0.875-2.012 1.528-1.749 2.623-1.749-0.089 1.53-1.793 1.049-2.623 1.749zm6.121-3.061c-0.83 0.263-1.27-0.394-1.748-0.874 0.479-0.481 0.918-1.137 1.748-0.874v1.748zm30.602 15.739c0.701-0.438 1.095-1.793 2.187-1.312-0.439 0.176-1.093 1.793-2.187 1.312zm2.185 3.935l-0.438-0.437c-0.043-1.925 3.455-3.41 3.499-0.874-0.087 1.747-2.274 0.218-3.061 1.311zm7.434-0.875c-0.657 0.044-0.963-0.7-1.75-0.437 0.045-0.788 1.093-3.674 1.75-1.312v1.749zm11.365-1.311c0.175-0.395-0.219-0.612-0.438-0.874 0.438-0.875 1.268 0.175 1.748 0.438-0.259 0.523-0.828 0.436-1.31 0.436zm5.246 3.496h-0.873v-0.874h1.312c0.173 0.395-0.219 0.613-0.439 0.874zm31.473-66.452l3.06 1.312 27.543 20.984c1.748 3.453 7.214 5.333 9.182 9.18 3.673 6.821 8.7 13.729 7.87 21.86 1.529 2.842 5.639 1.266 6.119 4.809-0.651 2.188 0.136 4.244-2.619 5.248-0.873-1.312-2.359-3.017-1.747-4.372-0.612-0.438-1.704-1.005-2.188-0.438l1.312 3.498c-0.48 0.83-2.359 0.263-3.496 0.438-0.264-0.438-1.052-0.656-0.876-1.312 0.481 0 1.05-0.131 1.312 0.437 1.441-0.699 0.263-1.354 0-2.186l-0.437-0.438-1.312 1.312c0.874-0.874-0.175-2.144-0.438-3.061-0.613 0.875-2.711-0.044-2.188 1.748-0.48 0-1.049-0.132-1.312 0.438l1.312 2.186c-0.961-0.13-1.924 1.924-3.498 1.312 1.27-0.044 1.138-1.486 1.748-2.187-1.572-4.064-2.841 2.272-4.809-0.438 0.568-0.263 0.438-0.83 0.438-1.312-0.7-0.175-1.485-1.574-2.186-0.438 0.438 0.875 0.873 1.749 1.312 2.624-1.573 0.698-2.929 2.141-4.81 2.186-2.188-1.136-4.591 2.448-6.559 0.438-1.398-0.131-2.448 3.277-3.935 0.874 1.442-1.27-0.7-2.144-1.312-3.062l-1.749 1.312c0.612 0.479 0.568 1.312 1.312 1.749-0.699-0.219-1.354-0.612-2.186-0.438l-0.438 0.438c0.568 0.262 0.438 0.83 0.438 1.312-4.636 2.187-10.932 0.394-15.739 2.187-1.181-1.749-4.415 1.748-5.245-1.312-1.618 0.263-2.144 3.322-4.373 2.187l-7.432-9.618c0.699-5.422 0.174-11.323 2.187-16.177-0.264-1.269 0.395-2.144 0.874-3.061-0.524-1.442 0.131-3.409 0.874-4.809 4.635-11.803 6.079-24.96 13.991-35.41zm-5.68-90.931c-1.397 0.481-3.365-0.263-5.245 0l-6.56 1.312c-2.01-2.011-5.201-3.234-6.119-6.12 1.748-0.219 1.748-2.623 2.623-3.936l-1.312-3.498c5.379 4.546 11.544 7.956 16.613 12.242zm-14.426 1.748c-1.573 0.396-1.485-1.486-2.187-2.185 0.919 0.262 1.925 1.269 2.187 2.185zm5.684-10.054c-3.717-3.06-9.662-5.071-10.492-10.492l10.492 10.492zm-10.93 1.748c-2.272-0.22-2.71-3.062-4.372-3.937l2.187-2.623c0.7 1.795 2.141 4.111 2.185 6.56zm-11.803-7.433c1.006 0.045 2.098-0.217 2.623 0.875 1.924-0.612 3.76-1.137 5.682-1.748l0.874 0.873c-2.185-0.217-4.021 0.219-5.683 1.312 0.262 0.83-0.393 1.27-0.873 1.749-0.875-0.698-1.531-1.924-2.623-2.187v-0.874zm-19.673 97.492l-0.875 7.869c-3.453-2.359-4.633-6.383-6.994-9.618 2.84 0.044 5.028 1.749 7.869 1.749zm-63.832 1.746c1.223-4.284 2.229-10.448 7.869-10.93 4.416-2.448 5.64-6.995 7.433-10.929 1.661-2.668 4.284-1.312 6.12 0 4.109 3.06 8.524 6.163 12.241 9.181 3.628 1.354 7.345 2.403 10.491 4.809 8.045 3.979 10.056 22.996 22.298 16.177 3.103-2.449 3.715-5.946 3.933-9.619 2.624 1.529 7.215-1.529 8.743 2.624 1.094-0.22 1.969 1.093 2.624-0.438-0.612-0.438-0.962-1.312-1.748-1.312v-0.438c2.974 0.48 6.951 1.048 9.617-0.438 1.006 0.743 2.187 0.962 3.498 0.874-0.308 1.094 0.395 1.924 1.311 2.187 2.974-1.354 4.767 2.711 8.307 1.312-2.186 10.316-4.372 20.722-6.558 31.038 2.364 3.764-0.607 7.611-0.87 11.372-0.394-0.178-0.611 0.218-0.874 0.437l0.438 0.438-3.936 17.486h-2.188c-0.306-1.225 1.575-2.013 0.438-3.061-0.438 1.967-2.447 1.312-3.496 2.623l-0.875-2.188-2.187 1.312 1.749 3.935-0.874-0.875c-1.093 0.963-2.623 2.579-2.623 4.372-1.312-0.831 0.613-1.312 0.438-2.186 0.219-1.487 0.567-3.278 0.438-4.371l-0.874-0.875c-2.623 1.792-0.961 6.12-3.934 6.995-0.177 0.697 0.393 1.748-0.438 2.186l-0.874-0.876c0.218-0.262 0.611-0.479 0.438-0.873l-0.874-0.874-0.438 0.438c-1.312-1.486-1.049-3.542-1.748-5.247 1.486-0.174 3.19 0.394 4.371-0.437-0.612-2.188-4.021-1.094-5.683-2.624h-1.312l0.875-1.748c-1.095-1.269-2.843-0.875-3.936-2.187 0.132-0.917 2.316-0.611 1.75-2.187-1.574-1.312-4.459 0.743-6.56-0.438-1.529 0.306-0.044 2.271-1.75 2.186-0.087-0.61 1.051-1.268 0-1.748-1.137 0.219-2.229 0.611-3.496 0.438 0.176-0.612-0.395-1.442 0.438-1.748-0.263-0.437-1.051-0.656-0.875-1.312 0.613-0.132 1.268 1.049 1.749 0-0.874-0.438-1.749-2.844-3.498-2.188 0.787-1.529-1.617-3.891 0.874-5.247 0-0.479 0.132-1.048-0.437-1.312-1.051 0.7-1.618 2.403-3.062 2.187 1.356-2.797-2.447-2.315-1.749-4.809-0.481-0.613-1.312-0.569-1.748-1.312l0.438-0.438c-2.666-1.486-2.666-4.723-4.81-6.559-1.704-0.044-0.655 2.188-2.185 2.188 1.137 0.873-0.264 1.748-0.438 2.622-1.486 3.104-3.367-2.579-4.372 1.749-0.088 1.181-0.7 2.229-1.75 3.06-0.262-0.044-1.136-1.661-1.749-0.438-0.174 0.655 0.613 0.874 0.875 1.312-0.218 1.181-2.842 0.831-1.312 2.188h1.312l-1.312 2.622-0.438-0.438c0.567-0.263 0.438-0.831 0.438-1.312l-0.438-0.438c-2.493 1.53-3.586 3.716-6.12 5.246h-1.312c0.263-1.136-0.7-2.886 0.874-3.497 1.048-0.393 1.792 1.182 2.622 0-0.174-0.612 0.394-1.443-0.437-1.749l-2.624 0.438c0.567-0.263 0.438-0.83 0.438-1.312-0.263-0.568-0.83-0.437-1.312-0.437-0.523 0.263-0.437 0.829-0.437 1.312h-0.438c-0.656-2.012 3.278-1.486 1.312-3.498-0.613 0.176-1.399-0.394-1.749 0.438-0.481-0.481-0.918-1.138-1.75-0.874l-0.438 0.438c2.229 1.049-0.698 2.623 0.874 3.937-0.611 0.698-1.619 1.268-1.749 2.186 0.918 1.137 1.793-0.569 3.062 0-0.438 2.012 1.093 4.896-1.312 6.121-2.271 2.798-5.29-4.634-5.247 0.438-0.437 0.263-0.655 1.049-1.312 0.874 0.831-0.438 0.262-1.485 0.438-2.187-2.359-1.792 1.269-4.854-2.623-5.685-1.925 0.263-2.799-0.655-4.371 0.438 0.131 0.611-1.051 1.268 0 1.749 1.224-0.396 1.924-1.879 3.497-1.312l0.874 2.187c-0.656-0.175-0.874 0.613-1.312 0.875 0.918 0.262 1.661 1.093 1.312 2.186-2.144 0.83-2.711 2.711-4.809 4.371 2.229 1.137-0.481 1.27-0.438 2.623-2.579-0.654-2.446-6.557-5.683-3.936 0 0.481-0.088 1.051 0.438 1.312h0.873c-0.263 0.438-1.05 0.657-0.873 1.312-1.27-0.22-1.138-1.748-1.749-2.624 0.83-0.698 3.234-0.219 3.497-2.186-1.486-1.312-2.622 0.654-4.371 0-2.887-6.077-7.171-13.465-4.81-20.983-2.619-12.458 4.594-21.902 3.94-34.099zm-10.49 59.021v1.75l-1.312-2.188c0.481 0 1.049-0.13 1.312 0.438zm-2.184-8.302c0.786 2.008-1.182 2.139-2.188 3.057 1.093 0.918 1.138 2.843 0.438 3.935l-0.438 0.438c0.044-0.569 0.044-3.191-0.873-4.372-0.263 0.523-0.831 0.438-1.312 0.438-0.175-0.611 0.394-1.442-0.438-1.748-1.268 0.219-1.618 1.529-1.75 2.623 1.75-0.176 1.312 1.923 2.624 2.187 0.176 0.394-0.22 0.611-0.438 0.875 0.567 0.262 0.438 0.831 0.438 1.312-1.05 1.355-0.611-0.698-1.748-0.437l-1.312-1.312c-2.229 1.182 0.701 2.886-0.873 4.373l0.437 2.186c-2.012-2.143-2.403 2.492-3.935-0.873-0.437 0.262-0.654 1.049-1.311 0.873-0.481-0.479-1.138-0.917-0.874-1.748 0.828-0.264 1.485-1.094 2.185-1.748 0.438 0.174 1.094 1.792 2.188 1.312 1.136-1.312-0.263-2.624-0.438-3.936-0.961 2.011-2.403-0.043-3.497-0.438-0.611-0.48-0.523-1.312-1.312-1.748-0.7 0.22-1.355 0.612-2.187 0.438 0.174-0.654-0.612-0.874-0.874-1.311-0.656-0.045-0.962 0.698-1.748 0.437l-0.438-0.437c0.699-0.612 2.142-0.481 2.186-1.75l-0.436-0.44c0.219-0.263 0.61-0.481 0.438-0.874-0.306-0.831-1.137-0.262-1.748-0.438-0.875 0.656-0.044 1.969-0.875 2.623-0.394 0.176-0.611-0.219-0.875-0.438l-2.623 3.06 3.498 0.875-1.749 1.748c1.356 0.919 2.887 1.792 3.499 3.062l-0.874 0.875c-0.48-1.27-2.36-1.139-3.498-1.75-1.269 1.093 1.05 1.837 0.873 3.061 0.082 0.136 0.235 0.295 0.432 0.445-0.268 0.431-1.042 0.651-0.868 1.304-1.27 0.524-2.144-1.137-3.062 0-1.748-3.06 3.017-4.547 3.062-7.432-0.875-1.138-1.749 0.262-2.623 0.437 0.612 1.836-1.093 1.705-1.749 3.062-2.449-0.655-0.524-3.717-1.749-5.245 0.612-0.176 1.441 0.393 1.749-0.438-2.187-0.828-0.83-3.453-1.312-4.809 1.138-7.606 1.05-15.694 3.498-22.733 0.352-5.026 4.811-8.351 7.869-12.24 3.278-3.062 6.775-5.685 10.492-7.87-1.704 5.685-0.044 12.767-3.062 17.925 2.623 8.086 5.684 15.954 9.181 23.604zm-32.787-63.395c0.262-0.438 1.049-0.657 0.875-1.312h0.437c-0.919 1.312-1.924 3.76-0.875 4.809 2.536-5.201 5.422-10.973 9.182-14.863 1.146-3.325 1.971-6.762 1.823-10.596-0.185-0.347-0.25-0.736-0.074-1.21 0.038 0.408 0.061 0.81 0.074 1.21 0.276 0.518 0.818 0.942 1.236 1.414 0.875 8.569 9.618 17.225 2.623 25.794-5.333 5.421-9.836 11.979-16.613 14.863-4.417 6.647-2.362 16.003-3.499 24.046-1.925 0.962 0 2.493-0.438 3.935-1.312 5.509-0.655 11.894-3.934 16.613 0.567 0.262 0.438 0.831 0.438 1.312l-1.748 1.749c-1.836-0.919-2.711-3.017-4.809-3.061-0.178 1.704-2.014 1.137-3.062 1.748l-0.875-0.874c-0.656 2.622-3.454 1.836-5.247 2.622l-0.874-2.188c2.623-0.043 3.541-6.163 6.559-3.06 0.131-1.355 4.416-1.705 1.748-3.498-0.612 0.438-1.793 0.22-1.748 1.312-0.655 0.175-0.874-0.611-1.312-0.874-0.218-1.094 1.094-1.969-0.437-2.623-0.655 0.963-2.448 1.529-1.749 3.061l0.437 0.438c-0.83 1.617-3.146 1.486-3.06 3.497h-0.438c-0.394-2.186 2.623-4.064 0.874-5.684-0.523-2.229 5.29-3.104 1.312-4.371l-0.438 0.438c-0.7-0.612-1.269-1.66-2.186-1.748-0.803 0.918-2.074 1.636-1.327 2.618 7e-3 2e-3 0.011 3e-3 0.017 4e-3 3e-3 9e-3 6e-3 0.017 0.01 0.022 0.104 0.132 0.243 0.271 0.428 0.413 2.887 1.138-2.011 2.361 0.875 3.497 1.093 2.187-2.36 3.017-0.875 4.81-0.742 1.05-1.748 1.574-3.06 1.312 0.219-1.53 1.094-2.403 2.623-2.622-0.044-1.705-1.485-2.012-2.187-3.06h-0.873c0.131-1.873 3.947-2.229 3.068-4.35-8e-3 -9e-3 -0.019-0.019-0.023-0.026-2.168-0.681-1.826 1.973-3.483 2.628 0.352-3.674 2.404-6.951 5.247-9.184 0 0.482 0.132 1.051-0.438 1.312l0.438 0.438c2.229-2.667 2.579-6.994 4.81-10.055 1.967-1.704 1.312-5.597 3.935-6.995 4.853-11.496 13.071-21.64 16.613-33.661zm-129.84-20.11c1.792-1.66 2.185-3.89 2.623-6.119 8.786-7.563 19.499-10.492 29.291-15.737 4.503-0.044 9.006-0.176 12.679 1.748 0.044 3.321 5.42 5.552 2.186 9.18 0.875 0.612 1.356 2.055 2.623 1.748 1.574-1.312 1.967-2.885 3.936-1.312 1.706 3.146 5.071 5.245 8.307 6.994 1.137 2.447-3.804 5.289 0.438 6.119 0.918-1.137 1.748-3.104 2.623-3.496-1.138 1.617 1.312 2.71-0.438 4.371-3.499 1.792-4.546 6.165-8.306 7.434 0.174 0.611-0.395 1.397 0.438 1.748-7.87 12.327-22.297 7.956-34.976 8.306-7.389-1.573-14.515-4.633-19.235-11.804-1.621-2.884-4.202-5.638-2.189-9.18zm62.517 7.432v0.874c-0.832 0.262-1.269-0.394-1.749-0.874 0.349-0.656 1.442-0.656 1.749 0zm-66.888 8.743c2.798-2.842-0.088-6.34 2.623-9.181 4.503 6.776 11.849 13.945 20.109 15.302-8.176 2.143-15.914 5.334-24.481 6.559 1.529-3.062 2.402-6.472 2.624-10.056-0.265-0.876-1.269-1.487-0.875-2.624zm23.17 8.745c-1.269 2.712-4.153 5.115-6.558 6.995-5.291 3.278-13.071 3.278-18.36 0 6.688-2.229 14.252-4.109 21.422-6.12 1.44 0.393 2.358-0.613 3.496-0.875zm-24.483-6.557l-1.748 8.743c0.394-3.018 0.612-6.078 1.748-8.743zm-1.748 10.928l-0.437 1.312-0.874-0.875c0.262-0.567 0.83-0.437 1.311-0.437zm-0.875-7.873c-0.829 3.497-2.229 7.869-0.437 11.366 6.603 3.278 15.958 5.246 22.297 0l8.743-7.432c-0.831-0.438-0.262-1.487-0.438-2.187 11.192-1.749 24.001 4.371 31.914-5.247 1.75-1.137 3.235-3.017 5.246-3.496 1.75 0.917 4.11 1.924 6.12 0.873-1.836-1.312-5.289-0.611-3.934-4.373 2.974-2.533 3.628-6.03 6.121-8.741 1.793 2.71 1.441 6.774 5.245 8.306 2.099 1.748 5.509 0.218 7.868 1.312 2.667-4.328 8.088-7.477 6.559-13.553 2.359 0 4.94-1.968 6.995 0 3.277-2.973 8.044-2.404 12.239-3.06 5.071-0.701 9.969-2.145 15.302-2.188-1.704 11.148-4.634 21.815-10.93 31.039 1.749 1.53-1.312 2.145-1.312 3.498 0.566 5.202-3.497 8.48-5.246 12.678 0.875 1.748-1.312 3.278-1.312 5.247-0.918 5.508-4.634 9.88-6.994 14.862l0.438 0.438c1.05-0.656 1.137-1.748 1.75-2.624-1.575 7.528-9.923 12.729-13.116 19.244 0-0.48 0.132-1.051-0.438-1.312h-0.438l0.874-0.873c-1.312-0.395-3.235 0.612-4.809 0.873 0.611 1.356 0.566 3.062 1.312 4.372 1.968-0.568 3.892 0.263 5.247-2.186 0.174 1.967-2.711 3.715-0.876 5.244h0.876c-0.744 1.4-2.188 2.58-3.498 3.062-0.263-0.875-1.269-1.486-0.875-2.623 1.006-0.699 1.312-1.704 1.749-2.622-0.523-0.919-1.486-1.006-2.186-0.438l-0.875 0.873 0.438 0.438c-0.218 1.792-2.841 1.486-2.622 3.496-3.499-0.917 1.53-5.42-2.624-4.371v0.875c-1.049 0.393-1.792-1.225-2.623 0 0.875 1.398-1.093 2.186-1.748 3.059-0.263-0.218-0.479-0.61-0.875-0.437-0.175-1.312 1.355-0.438 1.75-1.312-0.438-0.262-0.656-1.049-1.312-0.875 0.393-0.262 0.917-1.136 1.312-1.748-0.831-1.312-1.312 0.612-2.188 0.438-1.967-2.013-3.062-1.487-5.246-2.624 0.569-0.699 0.481-1.66-0.438-2.188-0.219 0.265-0.611 0.482-0.438 0.875-1.312 0.176-2.23-1.748-3.499-0.438 0.482 1.18 2.799 1.136 1.312 2.622-0.175 0.395 0.218 0.612 0.438 0.875 0.699-0.263 1.224-1.269 2.185-0.875 0 2.492 4.81 4.634 1.312 6.995-1.574 0.875-2.142-1.53-3.06-1.312-0.176-0.61 0.393-1.441-0.438-1.748-0.7 1.051-0.174 3.322-2.186 3.062-1.094-0.48 0.437-3.278-1.312-3.497l-1.311 3.497c-0.7-1.093-0.743-3.278-1.312-4.81-0.264 0.524-0.832 0.438-1.312 0.438 0-0.481 0.131-1.051-0.438-1.312-1.136-0.567-1.18 0.83-1.748 1.312 0 0.479-0.087 1.049 0.438 1.311 2.011 0.175 1.485 2.887 2.187 4.373-1.399 0.218-2.011-1.485-3.061-2.188-0.914 1.746-1.147 3.729-0.53 5.8-0.326-0.706-1.427-1.295-2.531-0.99-0.174 1.355-1.836 0.873-2.623 1.748-0.48-0.48-1.137-0.918-0.873-1.748 0.611-0.875 2.753 0.044 2.186-1.749 0.437 0.175 1.093 1.793 2.185 1.312 1.138-1.312-0.262-2.621-0.437-3.935-0.218 0.263-0.612 0.481-0.438 0.875-1.485-1.137-4.196-1.049-4.372-3.498-0.523 0.743-1.311 0.962-2.185 0.874 0.174-0.656-0.613-0.874-0.874-1.312-0.656-0.043-0.963 0.698-1.749 0.437l-0.438-0.437c0.612-0.787 1.705-0.265 2.188-1.312-0.175-0.7 0.393-1.748-0.438-2.187-0.612 0.175-1.399-0.394-1.75 0.438-0.175 0.395 0.22 0.611 0.438 0.874-0.262 0.438-1.05 0.656-0.875 1.312-0.394 0.174-0.612-0.22-0.874-0.438l-2.624 3.062 3.498 0.873-1.748 1.312c0.656 1.748 3.76 1.355 2.623 3.935-0.962-0.875-2.361-0.875-3.498-1.312-1.048 1.049 0.613 2.011 0.875 3.062-0.831-0.263-1.269 0.393-1.749 0.875-0.262-0.219-0.48-0.613-0.875-0.438 0-0.479-0.086-1.048 0.438-1.31-0.264-0.222-0.481-0.613-0.874-0.438 0.699-1.573 3.234-3.016 2.187-4.809-0.656-0.044-0.962 0.698-1.75 0.438 0.13 1.792-1.792 2.667-2.622 3.498-0.219-1.093 1.092-1.969-0.438-2.623-2.8 0.394-5.729 5.114-7.869 0-3.018-1.968-1.53 4.021-3.937 0.873l-1.31 1.749 0.437 0.438c-0.7 0.219-1.399 1.182-1.748 2.186-1.573-1.748 1.355-3.759-0.875-5.245-2.886 0.873 0.481 5.508-3.497 4.81-0.088 1.485-1.355 1.398-2.187 2.623 0.262 0.523 0.831 0.437 1.312 0.437-0.219 0.263-0.611 0.481-0.437 0.876 0.569 0.742 1.312 0.96 2.187 0.873-0.175 0.394 0.219 0.613 0.438 0.874-1.181 0.656-0.963 1.967-2.187 2.623-0.918-0.701-3.235-2.535-3.497 0 0.175 0.394-0.219 0.611-0.438 0.874-0.612-1.225 1.004-2.623 0.438-4.372-0.744-1.049-2.93-2.229-3.062-3.935-3.935 1.312 2.448 4.548-2.186 4.81 1.237 0.729-0.31 1.456 0 2.187v-1e-3l0.438 0.438c-0.247-0.146-0.376-0.292-0.438-0.438-0.875 1.31-1.487-0.656-2.623-2e-3 -1.749-1.442 1.879-4.982-2.187-3.933-1.049 1.048 0.611 2.011 0.875 3.059-1.181 0.395-1.137 1.182-2.624 0.874-0.657-1.004 1.312-1.485 0-2.186-1.967-0.874-1.355 1.53-3.06 1.312h-3.062c0.438-4.546 3.847-6.688 6.994-10.055-0.523-1.88 0.787-3.278 2.188-3.935-0.438-0.263-0.657-1.049-1.312-0.873 1.967-7.825 3.979-15.652 8.743-22.297l-1.748-10.492c-7.914-7.65-16.394-15.869-19.672-25.793 1.888-1.706 4.337-2.843 5.691-4.811zm-29.727 68.639c0-14.207 6.558-25.705 7.87-39.347 1.049-2.229 1.442-4.809 2.624-6.994 1.092 0.088 1.53 1.617 2.622 1.75-0.218 2.71-2.359 4.633-3.497 6.993l0.875 0.875c2.402-1.442 2.796-4.415 4.372-6.559 5.246 3.935 12.459 5.902 15.737 11.805-0.742 2.188 1.748 3.018 0.875 5.247-0.7-0.568-1.617-0.481-2.187 0.438-0.262-0.568-0.83-0.438-1.312-0.438l-1.312 1.748c0.263 0.219 0.482 0.611 0.875 0.438l0.438-0.438c0.655 1.966 4.633-2.667 3.059 1.312-0.699-0.219-1.355-0.613-2.186-0.438-0.213 0.566-0.913 0.99-0.962 1.667 0.096 0.143 0.146 0.308 0.089 0.519-0.074-0.189-0.1-0.361-0.089-0.519-0.195-0.299-0.608-0.498-0.786-0.794-0.747 2e-3 -1.14 0.876-1.752 1.313 0.175 2.491-0.306 5.857-2.623 7.868 1.968 0.743 0 2.013 0 3.061-0.48-0.175-1.049 0.395-0.874 0.875v1.312c-0.875 0.176-1.355-1.747-2.186-0.437l-0.438-0.438c0.481 0 1.05 0.089 1.312-0.438-0.219-1.355-1.749-1.486-2.624-2.187v-0.438c0.438 0.83 1.486 0.262 2.187 0.438 0.263-0.438 1.05-0.656 0.875-1.312-1.794-2.187-3.936 0.263-5.684 0.874-0.481 0.482-1.137 0.918-0.875 1.748 2.011-0.218 2.231 1.969 3.497 2.624l-0.437 0.436-1.312-1.748c-1.312 1.968-4.591 2.579-3.934 4.81-0.219 0.263-0.612 0.48-0.438 0.875 1.138 1.486 1.793-0.918 3.062-0.438 1.793-0.175 3.235-1.312 5.247-0.875-0.263 2.058-2.58 1.139-3.498 2.624 0.566 0.263 0.437 0.829 0.437 1.312-0.306 0.831-1.137 0.262-1.748 0.438l-0.438-0.438-0.438 0.438c-0.306-0.829-1.137-0.262-1.749-0.438-2.055 1.749 1.049 2.402 0 4.809-2.185 2.58-4.677 0.481-7.432 1.749-0.83-0.786-0.262-2.012-0.438-3.061 1.093-0.567 0.83-1.661 0.874-2.624-1.18-1.136-2.272-2.621-3.935-2.621-0.262 0.438-1.049 0.655-0.874 1.311 1.137 0.264 1.923 1.05 2.187 2.188 0.218 1.268 0.175 1.529-0.438 2.623l-0.874 0.873c0.874 0.524 0.874 1.485 1.312 2.188-0.612-0.176-1.398 0.394-1.749-0.438l0.438-0.438c-0.306-0.831-1.137-0.263-1.748-0.438-0.915-1.572 1.445-3.452 3e-3 -5.245zm20.983-6.119l-1.748-0.874c0.394-0.568 1.791-0.043 1.748 0.874zm-3.933 0c-0.7 0.438-2.056 1.137-3.499 0.875 0.482-0.918 2.362-1.923 3.499-0.875zm-94.431-139.9c-1.704 2.711 1.269 4.678 0.874 7.433-1.923 1.485-3.759-1.05-5.684 0.437 1.355-2.757 2.405-5.599 4.81-7.87zm-17.054 92.245c-0.043-3.19 2.667-5.159 2.624-8.307 7.649 0.262 12.896 6.295 20.547 6.558 5.509 0.7 10.842 2.144 16.611 2.188 0.132 2.667-1.617 6.208 0.875 8.306 1.093 0.088 2.447-0.044 2.623-1.312 0.438 2.448-1.092 5.771 1.312 7.433l1.748-1.748v-13.115c3.848-1.572 8.744-0.438 12.68-1.749 3.628-1.312 7.606-1.748 11.365-2.622-0.394 1.573 1.487 1.485 2.188 2.187l3.497-0.875c2.536 3.454 7.693 3.454 11.805 2.623-1.093 2.792 0.438 6.641-1.31 9.175 0.568 0.482 0 1.574-0.437 2.188 1.441 8.699-5.027 16.352-0.874 24.045-1.181 6.602-0.307 14.077-3.062 20.108-0.479 2.579-0.479 5.685-3.061 6.995l-1.312-1.312c-0.437 0.263-0.654 1.051-1.312 0.875l-0.438-0.438c0.042 1.486-2.799 0.481-1.749 2.623-0.919-0.174-1.485-1.312-2.623-0.873l-1.312 1.312c-1.574-0.656-0.612-3.761-0.874-4.81l-0.874 0.875c-1.923-1.441-0.917-5.203-3.062-6.56-0.522 1.312-0.917 2.843-0.873 3.936-0.395 1.05 1.224 1.792 0 2.624-0.264-0.22-0.482-0.612-0.874-0.438 0.219-0.265 0.611-0.481 0.437-0.875-1.704-1.006-3.017 0.262-4.372-1.312l-5.683-0.875c0.174-0.392-0.221-0.611-0.438-0.873-0.48 0-1.048-0.13-1.312 0.438-0.307-0.829-1.137-0.262-1.749-0.438-1.792-1.312-3.234 2.359-5.246 0.438-0.438 0.83-1.486 0.262-2.187 0.437-0.699-0.437-1.092-1.792-2.187-1.31l-0.438 0.437c-0.263-0.218-0.481-0.61-0.875-0.437-0.044-0.657 0.699-1.006 0.438-1.751-0.918-0.438-1.923-0.785-2.622-1.748-0.744 2.667-3.761 0.175-4.81 2.187 0.875 1.312 2.667 1.574 1.75 3.062-0.963 0.655-1.485-1.312-2.188 0-0.042 1.836 1.312 2.711 0 4.371-2.054 2.666-4.415 4.679-7.432 5.684-12.416-1.793-15.17-14.862-23.17-22.732-0.744-1.925 0.262-4.548-1.312-6.121l0.438-0.438c-3.537-11.85-0.607-25.358-0.87-38.036zm-70.819-3.937c4.503-7.649 7.126-16.087 9.62-24.48 0.83 0.48 0.262 2.359 0.437 3.497l-0.437 0.438c0.393 1.923-0.613 4.371-0.875 6.559 0.61 6.646-3.935 11.235-6.558 16.612l-10.055 12.24h-0.874c2.798-4.329 5.159-8.875 6.995-13.554l1.747-1.312zm-4.809 3.061l-0.438 2.187-0.438 0.438 0.876-2.625zm-1.312 3.934c-0.262 2.622-2.142 4.982-3.936 6.558l3.936-6.558zm-6.994 12.241c-0.306-1.442 1.662-1.88 1.749-3.061-0.089 1.183-0.744 2.186-1.749 3.061zm7.857 22.732c4.197-6.339 10.711-11.63 13.991-18.361 10.317-9.531 16.655-20.329 27.979-27.543 3.322 4.11 7.387 7.478 10.054 12.241 1.969 8.177 3.278 16.613 3.936 25.356-0.438 2.36-3.499 4.635-1.312 6.995 1.355 0.861 1.823 2.765 3.217 3.028 0.084-0.021 0.176-0.017 0.279 0.03-0.098-2e-3 -0.19-0.013-0.279-0.03-0.232 0.057-0.401 0.31-0.595 0.467 0.655 1.051 1.137 2.144 2.187 3.062 0.262-0.568 0.83-0.438 1.312-0.438l-1.312 1.312c2.316 3.716 3.717 8.175 7.432 10.929-0.174 0.613 0.395 1.399-0.437 1.748 0.48 1.925 2.58-0.174 3.061 1.75l-0.875 0.873c2.842 5.335 8.962 9.354 11.367 14.865-0.207 0.615-0.252 1.271-0.864 1.75-0.043-1.267-0.262-2.229-1.748-3.06-0.262 0.438-1.048 0.655-0.874 1.312l0.438 0.438c-0.22 0.263-0.612 0.48-0.438 0.873-1.53 0.045-0.438-3.76-2.624-1.747-1.967 0.741 0 2.01 0 3.059-1.268-1.312-2.359 0.831-3.498-0.875-1.125 0.259-1.901 1.033-2.174 2.146-1.623-2.576-4.894 0.085-7.005-2.583l-2.622 1.312c-0.657-0.479-0.657-2.623 0-3.497 1.136-1.575 2.622 1.355 3.498-0.874-0.525-0.263-0.438-0.831-0.438-1.312l0.438-0.438c0.262 0.524 0.83 0.438 1.311 0.438 1.138-0.874-0.262-1.748-0.437-2.623-1.75-0.219-1.75 1.749-2.624 2.623-0.524-0.917-2.492-2.012-3.499-0.438l0.438 0.438-0.438 0.438 0.875 0.875-1.312 1.312c-1.486-0.657-0.917-1.75-0.438-3.062 0.175-0.394-0.218-0.612-0.437-0.874-2.842-1.225-2.145 2.491-3.499 3.062l0.438 0.438c-0.307 1.136-1.575 1.924-2.623 2.187l-0.437-0.438c-0.874 1.137-1.75-0.262-2.624-0.438-0.263 1.05-1.924 2.013-0.875 3.062h0.875c-0.22 0.263-0.613 0.479-0.438 0.874l0.875 0.875c0.262-0.438 1.049-0.657 0.875-1.312h1.312c0.262 1.704-2.012 0.043-1.75 1.748l-2.186-1.748-0.875 0.873-0.437-0.437c-0.832 2.447-2.229-1.573-3.062 0.875-0.7-0.569-1.618-0.482-2.188 0.437l-0.438-0.437 0.875-0.875c-0.7-1.53-1.968-2.58-3.499-1.312-0.044 0.962 0.221 2.057-0.874 2.623-0.48 0-1.049 0.088-1.312-0.437-0.699 0.087-0.043 1.18-0.875 0.873-2.186 0.743-3.018-1.748-5.246-0.873 0.174-0.396-0.219-0.613-0.438-0.875-1.616 1.137-2.841-0.481-4.371 0.875l1.747 1.748c-1.617 0.174-4.546-0.481-6.994 0.873-0.831-1.924-2.143-0.438-3.935-0.873-0.176-0.613 0.395-1.442-0.438-1.748-1.923 0.218-3.892 4.197-5.685 0.873-0.48 0.48-0.918 1.137-1.75 0.875 0-0.481 0.132-1.051-0.437-1.312-1.617-0.567-2.448 0.83-3.496 1.748v0.874c-4.023-0.043-8.525-0.917-10.058-5.246-6.116-14.121 5.076-26.449 8.31-39.347zm-103.6 55.086c1e-3 0.481 0.134 1.049-0.436 1.312h-0.875c-0.306-0.831 0.482-1.66 1.311-1.312z" fill="#31261E"/>
</svg>
