<?xml version="1.0" encoding="UTF-8" standalone="no"?>
<!-- Created with Inkscape (http://www.inkscape.org/) -->

<svg
   version="1.1"
   id="svg2"
   width="500"
   height="500"
   viewBox="0 0 500 500"
   sodipodi:docname="logo.svg"
   inkscape:version="1.2.2 (b0a8486541, 2022-12-01)"
   xmlns:inkscape="http://www.inkscape.org/namespaces/inkscape"
   xmlns:sodipodi="http://sodipodi.sourceforge.net/DTD/sodipodi-0.dtd"
   xmlns="http://www.w3.org/2000/svg"
   xmlns:svg="http://www.w3.org/2000/svg">
  <defs
     id="defs6" />
  <sodipodi:namedview
     id="namedview4"
     pagecolor="#ffffff"
     bordercolor="#000000"
     borderopacity="0.25"
     inkscape:showpageshadow="2"
     inkscape:pageopacity="0.0"
     inkscape:pagecheckerboard="0"
     inkscape:deskcolor="#d1d1d1"
     showgrid="false"
     inkscape:zoom="1.7116667"
     inkscape:cx="286.5628"
     inkscape:cy="300.29211"
     inkscape:window-width="2560"
     inkscape:window-height="1371"
     inkscape:window-x="0"
     inkscape:window-y="0"
     inkscape:window-maximized="1"
     inkscape:current-layer="g10">
    <inkscape:page
       x="0"
       y="0"
       id="page8"
       width="500"
       height="500" />
  </sodipodi:namedview>
  <g
     id="g10"
     inkscape:groupmode="layer"
     inkscape:label="Page 1"
     transform="matrix(1.3333333,0,0,-1.3333333,0,600)">
    <g
       id="g5322"
       transform="matrix(-2.9688142,0,0,2.9688142,841.63822,-659.00062)">
      <g
         id="g5210">
        <path
           d="m 243.793,341.103 -28.468,-22.781 -0.057,-3.074 32.301,25.848 -3.776,0.007"
           style="fill:#31606e;fill-opacity:1;fill-rule:nonzero;stroke:none;stroke-width:0.1"
           id="path16" />
        <path
           d="m 218.799,341.151 c -1.115,-4.58 -1.939,-9.21 -2.611,-13.865 l 17.291,13.837 -14.68,0.028"
           style="fill:#31606e;fill-opacity:1;fill-rule:nonzero;stroke:none;stroke-width:0.1"
           id="path18" />
        <path
           d="m 249.94,341.091 1.676,-2.094 -34.502,-27.609 -1.874,2.343 -0.168,-9.029 7.059,0.002 -0.002,0.376 h 19.193 v 16.695 h 11.493 v 19.311 l -2.875,0.005"
           style="fill:#31606e;fill-opacity:1;fill-rule:nonzero;stroke:none;stroke-width:0.1"
           id="path20" />
        <path
           d="m 233.479,341.123 -17.291,-13.837 c -0.295,-2.04 -0.569,-4.084 -0.811,-6.134 l -0.052,-2.83 28.468,22.781 -10.314,0.02"
           style="fill:#55aea4;fill-opacity:1;fill-rule:nonzero;stroke:none;stroke-width:0.1"
           id="path22" />
        <path
           d="m 251.616,338.997 -1.676,2.094 -2.371,0.005 -32.301,-25.848 -0.028,-1.517 1.874,-2.343 34.502,27.609"
           style="fill:#55aea4;fill-opacity:1;fill-rule:nonzero;stroke:none;stroke-width:0.1"
           id="path24" />
        <path
           d="m 162.015,302.163 0.235,2.449 c 0.036,0.383 0.242,0.697 0.579,0.883 0.337,0.187 0.711,0.194 1.056,0.022 l 6.366,-3.186 -8.236,-0.168"
           style="fill:#2a8646;fill-opacity:1;fill-rule:evenodd;stroke:none;stroke-width:0.1"
           id="path26" />
        <path
           d="m 163.584,304.967 c 0.309,0 0.56,-0.252 0.56,-0.561 0,-0.31 -0.251,-0.56 -0.56,-0.56 -0.31,0 -0.561,0.25 -0.561,0.56 0,0.309 0.251,0.561 0.561,0.561"
           style="fill:#ffffff;fill-opacity:1;fill-rule:evenodd;stroke:none;stroke-width:0.1"
           id="path28" />
        <path
           d="m 157.18,300.985 c 0,-2.088 0.382,-10.05 0.9,-10.607 0.785,-0.845 11.04,-1.401 14.866,-1.401 5.266,0 4.724,14.277 0.481,14.277 -2.535,0 -16.039,-1.11 -16.247,-2.269"
           style="fill:#2eaa49;fill-opacity:1;fill-rule:evenodd;stroke:none;stroke-width:0.1"
           id="path30" />
        <path
           d="m 182.339,319.404 h -2.46 v 8.771 h 2.46 v -8.771"
           style="fill:#3a3a3c;fill-opacity:1;fill-rule:evenodd;stroke:none;stroke-width:0.1"
           id="path32" />
        <path
           d="m 216.122,307.06 h 15.996 v -3.507 h -15.996 v 3.507"
           style="fill:#3a3a3c;fill-opacity:1;fill-rule:evenodd;stroke:none;stroke-width:0.1"
           id="path34" />
        <path
           d="m 263.405,316.757 c 3.19,0 5.777,1.527 5.777,3.41 0,1.882 -2.587,3.409 -5.777,3.409 -3.189,0 -5.776,-1.527 -5.776,-3.409 0,-1.883 2.587,-3.41 5.776,-3.41"
           style="fill:#2a8646;fill-opacity:1;fill-rule:evenodd;stroke:none;stroke-width:0.1"
           id="path36" />
        <path
           d="m 269.151,319.817 c 0.02,0.115 0.031,0.232 0.031,0.35 0,1.467 -1.572,2.717 -3.775,3.198 0.732,-1.739 2.096,-3.055 3.744,-3.548"
           style="fill:#f37016;fill-opacity:1;fill-rule:evenodd;stroke:none;stroke-width:0.1"
           id="path38" />
        <path
           d="m 194.415,283 h 56.4 v 9.20195 h -56.4 z"
           style="fill:#3a3a3c;fill-opacity:1;fill-rule:evenodd;stroke:none;stroke-width:0.1"
           id="path40" />
        <path
           d="m 241.02,340.544 v -23.019 h -1.829 v 23.019 h -22.939 l 0.328,1.552 34.958,0.909 v -2.461 H 241.02"
           style="fill:#3a3a3c;fill-opacity:1;fill-rule:evenodd;stroke:none;stroke-width:0.1"
           id="path42" />
        <path
           d="m 254.101,340.736 2.547,-19.34 -3.711,-0.104 -1.695,19.23 2.859,0.214"
           style="fill:#3a3a3c;fill-opacity:1;fill-rule:evenodd;stroke:none;stroke-width:0.1"
           id="path44" />
        <path
           d="m 253.553,325.363 c -3.378,-0.002 -12.262,-1.483 -14.105,-2.896 -3.605,-2.765 -10.787,-14.581 -9.963,-22.091 0.865,-7.891 17.858,-2.449 20.643,9.217 0.359,1.501 8.156,16.037 3.425,15.77"
           style="fill:#3a3a3c;fill-opacity:1;fill-rule:evenodd;stroke:none;stroke-width:0.1"
           id="path46" />
        <path
           d="m 221.02,341.043 h 1.881 V 300.67 h -1.881 v 40.373"
           style="fill:#3a3a3c;fill-opacity:1;fill-rule:evenodd;stroke:none;stroke-width:0.1"
           id="path48" />
        <path
           d="m 185.951,291.596 -2.103,13.806 -1.493,6.012 c -0.69,2.778 -2.663,3.121 -4.775,3.121 h -6.524 c -0.013,9.528 34.21,8.134 45.507,8.134 l -0.113,-17.966 h 14.348 c 1.911,6.696 6.663,14.536 9.985,16.331 26.256,8.2 37.554,-6.848 37.456,-9.246 -0.292,-7.154 -14.258,-1.766 -16.233,-12.492 -1.424,-7.738 -7.352,-13.271 -14.949,-13.271 -4.538,0 -6.547,5.273 -11.184,5.298 l -49.922,0.273"
           style="fill:#2eaa49;fill-opacity:1;fill-rule:evenodd;stroke:none;stroke-width:0.1"
           id="path50" />
        <path
           d="m 171.054,314.535 1.917,-16.971 h 16.112 l -5.12,17.637 -12.909,-0.666"
           style="fill:#3a3a3c;fill-opacity:1;fill-rule:evenodd;stroke:none;stroke-width:0.1"
           id="path52" />
        <path
           d="m 172.031,314.585 2.322,-17.021 h 0.983 l -2.385,17.068 -0.92,-0.047"
           style="fill:#211c1d;fill-opacity:1;fill-rule:evenodd;stroke:none;stroke-width:0.1"
           id="path54" />
        <path
           d="m 174.187,314.696 2.337,-17.132 h 0.983 l -2.4,17.179 -0.92,-0.047"
           style="fill:#211c1d;fill-opacity:1;fill-rule:evenodd;stroke:none;stroke-width:0.1"
           id="path56" />
        <path
           d="m 176.343,314.807 2.353,-17.243 h 0.983 l -2.416,17.291 -0.92,-0.048"
           style="fill:#211c1d;fill-opacity:1;fill-rule:evenodd;stroke:none;stroke-width:0.1"
           id="path58" />
        <path
           d="m 178.5,314.919 2.367,-17.355 h 0.983 l -2.431,17.403 -0.919,-0.048"
           style="fill:#211c1d;fill-opacity:1;fill-rule:evenodd;stroke:none;stroke-width:0.1"
           id="path60" />
        <path
           d="m 180.656,315.03 2.383,-17.466 h 0.983 l -2.447,17.514 -0.919,-0.048"
           style="fill:#211c1d;fill-opacity:1;fill-rule:evenodd;stroke:none;stroke-width:0.1"
           id="path62" />
        <path
           d="m 182.812,315.141 2.398,-17.577 h 0.983 l -2.462,17.625 -0.919,-0.048"
           style="fill:#211c1d;fill-opacity:1;fill-rule:evenodd;stroke:none;stroke-width:0.1"
           id="path64" />
        <path
           d="m 283.458,282.469 c 0.223,-1.648 -0.638,-3.255 -2.006,-3.663 -1.441,-0.43 -2.898,0.629 -3.255,2.367 -0.144,0.704 -0.083,1.411 0.134,2.031 h -5.035 c -0.295,0 -0.537,0.086 -0.537,0.19 v 0.733 c 0,0.104 0.242,0.189 0.537,0.189 h 6.558 c 0.296,0 0.538,-0.085 0.538,-0.189 v -0.733 c 0,-0.104 -0.242,-0.19 -0.538,-0.19 h -0.395 c 0.005,-0.23 0.031,-0.466 0.08,-0.705 0.293,-1.427 1.276,-2.362 2.196,-2.087 0.659,0.196 1.108,0.959 1.201,1.901 l 0.522,0.156"
           style="fill:#2eaa49;fill-opacity:1;fill-rule:evenodd;stroke:none;stroke-width:0.1"
           id="path66" />
        <path
           d="m 216.036,321.399 h 1.875 v -16.695 h -1.875 v 16.695"
           style="fill:#3a3a3c;fill-opacity:1;fill-rule:evenodd;stroke:none;stroke-width:0.1"
           id="path68" />
        <path
           d="m 216.58,342.096 c 0,3.966 22.045,4.148 33.295,3.356 3.965,-0.278 4.019,-2.763 4.254,-4.93 h -2.887 c -0.202,0.871 -0.663,1.574 -4.288,1.574 H 216.58"
           style="fill:#2eaa49;fill-opacity:1;fill-rule:evenodd;stroke:none;stroke-width:0.1"
           id="path70" />
        <path
           d="m 215.333,322.669 h 24.406 v -1.584 l -24.663,0.068 0.257,1.516"
           style="fill:#3a3a3c;fill-opacity:1;fill-rule:evenodd;stroke:none;stroke-width:0.1"
           id="path72" />
        <path
           d="m 253.808,339.66 v 0 c 0.29,0.892 1.256,1.385 2.149,1.095 l 1.1,-0.357 -1.053,-3.244 -1.1,0.357 c -0.892,0.29 -1.385,1.256 -1.096,2.149"
           style="fill:#3a3a3c;fill-opacity:1;fill-rule:evenodd;stroke:none;stroke-width:0.1"
           id="path74" />
        <path
           d="m 213.894,337.257 h 2.352 c 0.419,0 0.761,-0.342 0.761,-0.762 v -7.965 c 0,-0.419 -0.342,-0.761 -0.761,-0.761 h -2.352 c -0.419,0 -0.762,0.342 -0.762,0.761 v 7.965 c 0,0.42 0.343,0.762 0.762,0.762"
           style="fill:#3a3a3c;fill-opacity:1;fill-rule:evenodd;stroke:none;stroke-width:0.1"
           id="path76" />
        <path
           d="m 215.288,335.974 h -0.709 v 2.822 c 0,1.436 1.169,2.612 2.606,2.621 l 3.607,0.02 0.004,-0.708 -3.607,-0.021 c -1.048,-0.006 -1.901,-0.864 -1.901,-1.912 v -2.822"
           style="fill:#3a3a3c;fill-opacity:1;fill-rule:nonzero;stroke:none;stroke-width:0.1"
           id="path78" />
        <path
           d="m 174.187,316.296 c 5.334,2.126 25.688,3.685 40.392,4.121 l 0.157,-3.064 c -10.611,0.124 -28.414,-0.498 -40.549,-1.442 v 0.385"
           style="fill:#f9dd09;fill-opacity:1;fill-rule:evenodd;stroke:none;stroke-width:0.1"
           id="path80" />
        <path
           d="m 280.516,309.856 c -1.139,4.074 -16.43,15.108 -30.14,11.041 -12.457,-3.694 -19.333,-12.177 -19.543,-29.547 l 16.134,0.011 33.549,18.495"
           style="fill:#3a3a3c;fill-opacity:1;fill-rule:evenodd;stroke:none;stroke-width:0.1"
           id="path82" />
        <path
           d="m 256.931,315.716 c 13.169,0 23.848,-10.679 23.848,-23.848 0,-13.169 -10.679,-23.848 -23.848,-23.848 -13.168,0 -23.848,10.679 -23.848,23.848 0,13.169 10.68,23.848 23.848,23.848"
           style="fill:#3a3a3c;fill-opacity:1;fill-rule:evenodd;stroke:none;stroke-width:0.1"
           id="path84" />
        <path
           d="m 256.931,312.319 c 11.293,0 20.451,-9.158 20.451,-20.451 0,-11.293 -9.158,-20.451 -20.451,-20.451 -11.293,0 -20.45,9.158 -20.45,20.451 0,11.293 9.157,20.451 20.45,20.451"
           style="fill:#505256;fill-opacity:1;fill-rule:evenodd;stroke:none;stroke-width:0.1"
           id="path86" />
        <path
           d="m 250.859,315.046 c 0.457,0.119 0.919,0.225 1.386,0.317 l 1.245,-4.075 c -0.659,-0.116 -1.306,-0.264 -1.941,-0.444 l -0.69,4.202 m -4.685,-1.771 c 0.423,0.213 0.852,0.413 1.288,0.601 l 2.065,-3.727 c -0.618,-0.251 -1.22,-0.532 -1.804,-0.841 l -1.549,3.967 m -4.213,-2.709 c 0.37,0.297 0.748,0.583 1.135,0.858 l 2.794,-3.216 c -0.551,-0.373 -1.081,-0.774 -1.59,-1.199 l -2.339,3.557 m -3.561,-3.52 c 0.302,0.367 0.613,0.724 0.935,1.073 l 3.401,-2.565 c -0.461,-0.478 -0.898,-0.979 -1.309,-1.501 l -3.027,2.993 m -2.754,-4.182 c 0.218,0.421 0.45,0.836 0.692,1.242 l 3.861,-1.802 c -0.351,-0.562 -0.674,-1.142 -0.968,-1.74 l -3.585,2.3 m -1.821,-4.666 c 0.125,0.459 0.262,0.913 0.414,1.36 l 4.153,-0.96 c -0.226,-0.62 -0.42,-1.256 -0.584,-1.903 l -3.983,1.503 m -0.807,-4.943 c 0.028,0.476 0.069,0.949 0.124,1.417 l 4.259,-0.075 c -0.091,-0.652 -0.148,-1.313 -0.174,-1.984 l -4.209,0.642 m 0.231,-5.002 c -0.071,0.466 -0.127,0.938 -0.17,1.412 l 4.183,0.812 c 0.046,-0.669 0.126,-1.329 0.238,-1.977 l -4.251,-0.247 m 1.268,-4.845 c -0.167,0.442 -0.324,0.89 -0.464,1.344 l 3.924,1.664 c 0.184,-0.641 0.4,-1.27 0.646,-1.883 l -4.106,-1.125 m 2.25,-4.474 c -0.256,0.399 -0.499,0.805 -0.731,1.219 l 3.49,2.443 c 0.314,-0.587 0.656,-1.157 1.025,-1.707 l -3.784,-1.955 m 3.133,-3.907 c -0.333,0.337 -0.657,0.684 -0.969,1.041 l 2.906,3.115 c 0.427,-0.509 0.88,-0.995 1.356,-1.458 l -3.293,-2.698 m 3.872,-3.174 c -0.396,0.261 -0.785,0.532 -1.165,0.815 l 2.196,3.653 c 0.523,-0.408 1.067,-0.79 1.63,-1.145 l -2.661,-3.323 m 4.447,-2.304 c -0.443,0.173 -0.879,0.36 -1.308,0.558 l 1.389,4.029 c 0.594,-0.29 1.205,-0.552 1.831,-0.782 l -1.912,-3.805 m 4.832,-1.321 c -0.471,0.077 -0.936,0.167 -1.396,0.271 l 0.52,4.229 c 0.639,-0.159 1.292,-0.285 1.954,-0.38 l -1.078,-4.12 m 4.999,-0.288 c -0.371,-0.017 -0.743,-0.027 -1.119,-0.027 -0.101,0 -0.202,0.003 -0.303,0.004 l -0.37,4.244 c 0.223,-0.008 0.448,-0.013 0.674,-0.013 0.442,0 0.881,0.017 1.317,0.046 l -0.199,-4.254 m 4.951,0.751 c -0.456,-0.119 -0.919,-0.225 -1.385,-0.318 l -1.245,4.075 c 0.658,0.117 1.306,0.265 1.94,0.445 l 0.69,-4.202 m 4.686,1.77 c -0.423,-0.213 -0.852,-0.413 -1.288,-0.602 l -2.066,3.729 c 0.618,0.25 1.22,0.531 1.805,0.84 l 1.549,-3.967 m 4.213,2.708 c -0.37,-0.296 -0.748,-0.583 -1.135,-0.857 l -2.795,3.216 c 0.552,0.373 1.082,0.773 1.591,1.199 l 2.339,-3.558 m 3.561,3.521 c -0.301,-0.367 -0.613,-0.725 -0.935,-1.073 l -3.401,2.565 c 0.461,0.478 0.898,0.978 1.309,1.501 l 3.027,-2.993 m 2.754,4.181 c -0.218,-0.421 -0.449,-0.835 -0.691,-1.242 l -3.862,1.802 c 0.351,0.562 0.674,1.143 0.969,1.74 l 3.584,-2.3 m 1.822,4.666 c -0.126,-0.459 -0.262,-0.913 -0.414,-1.36 l -4.153,0.96 c 0.226,0.621 0.42,1.256 0.584,1.903 l 3.983,-1.503 m 0.808,4.943 c -0.028,-0.476 -0.069,-0.949 -0.124,-1.417 l -4.26,0.076 c 0.091,0.651 0.149,1.313 0.174,1.983 l 4.21,-0.642 m -0.231,5.003 c 0.071,-0.467 0.126,-0.937 0.17,-1.412 l -4.183,-0.812 c -0.046,0.669 -0.127,1.328 -0.238,1.977 l 4.251,0.247 m -1.268,4.845 c 0.167,-0.442 0.323,-0.89 0.464,-1.343 l -3.924,-1.665 c -0.184,0.642 -0.401,1.27 -0.646,1.883 l 4.106,1.125 m -2.25,4.475 c 0.256,-0.399 0.499,-0.806 0.731,-1.22 l -3.491,-2.442 c -0.313,0.587 -0.655,1.157 -1.024,1.706 l 3.784,1.956 m -3.133,3.907 c 0.333,-0.337 0.656,-0.684 0.969,-1.04 l -2.907,-3.116 c -0.427,0.509 -0.88,0.995 -1.356,1.458 l 3.294,2.698 m -3.873,3.175 c 0.396,-0.261 0.785,-0.533 1.165,-0.816 l -2.196,-3.652 c -0.522,0.408 -1.067,0.79 -1.629,1.144 l 2.66,3.324 m -4.447,2.303 c 0.442,-0.173 0.878,-0.359 1.308,-0.557 l -1.389,-4.029 c -0.594,0.29 -1.205,0.551 -1.831,0.782 l 1.912,3.804 m -4.832,1.321 c 0.47,-0.077 0.935,-0.167 1.396,-0.27 l -0.521,-4.229 c -0.639,0.158 -1.292,0.285 -1.954,0.379 l 1.079,4.12 m -5,0.287 -0.199,-4.253 c 0.436,0.029 0.876,0.045 1.32,0.045 0.225,0 0.448,-0.005 0.671,-0.013 l -0.37,4.244 c -0.101,10e-4 -0.201,0.004 -0.302,0.004 -0.375,0 -0.749,-0.01 -1.12,-0.027"
           style="fill:#505256;fill-opacity:1;fill-rule:evenodd;stroke:none;stroke-width:0.1"
           id="path88" />
        <path
           d="m 256.931,305.117 c 7.317,0 13.249,-5.933 13.249,-13.249 0,-7.316 -5.932,-13.249 -13.249,-13.249 -7.316,0 -13.248,5.933 -13.248,13.249 0,7.316 5.932,13.249 13.248,13.249"
           style="fill:#f9dd09;fill-opacity:1;fill-rule:evenodd;stroke:none;stroke-width:0.1"
           id="path90" />
        <path
           d="m 256.932,302.807 c 6.04,0 10.938,-4.899 10.938,-10.939 0,-6.041 -4.898,-10.939 -10.938,-10.939 -6.041,0 -10.94,4.898 -10.94,10.939 0,6.04 4.899,10.939 10.94,10.939"
           style="fill:#eab512;fill-opacity:1;fill-rule:evenodd;stroke:none;stroke-width:0.1"
           id="path92" />
        <path
           d="m 256.932,296.42 c 2.513,0 4.552,-2.039 4.552,-4.552 0,-2.514 -2.039,-4.553 -4.552,-4.553 -2.514,0 -4.553,2.039 -4.553,4.553 0,2.513 2.039,4.552 4.553,4.552"
           style="fill:#f9dd09;fill-opacity:1;fill-rule:evenodd;stroke:none;stroke-width:0.1"
           id="path94" />
        <path
           d="m 256.932,299.001 c 0.388,0 0.703,-0.315 0.703,-0.703 0,-0.388 -0.315,-0.703 -0.703,-0.703 -0.389,0 -0.704,0.315 -0.704,0.703 0,0.388 0.315,0.703 0.704,0.703"
           style="fill:#f9dd09;fill-opacity:1;fill-rule:evenodd;stroke:none;stroke-width:0.1"
           id="path96" />
        <path
           d="m 252.738,297.639 c 0.315,0.229 0.754,0.159 0.983,-0.155 0.228,-0.314 0.158,-0.754 -0.156,-0.983 -0.314,-0.228 -0.754,-0.158 -0.982,0.156 -0.228,0.314 -0.158,0.754 0.155,0.982"
           style="fill:#f9dd09;fill-opacity:1;fill-rule:evenodd;stroke:none;stroke-width:0.1"
           id="path98" />
        <path
           d="m 250.146,294.073 c 0.121,0.37 0.518,0.572 0.887,0.452 0.369,-0.12 0.571,-0.517 0.451,-0.886 -0.12,-0.37 -0.517,-0.572 -0.886,-0.452 -0.369,0.12 -0.572,0.517 -0.452,0.886"
           style="fill:#f9dd09;fill-opacity:1;fill-rule:evenodd;stroke:none;stroke-width:0.1"
           id="path100" />
        <path
           d="m 250.146,289.665 c -0.12,0.369 0.082,0.766 0.451,0.886 0.369,0.119 0.766,-0.083 0.886,-0.452 0.121,-0.369 -0.082,-0.766 -0.451,-0.886 -0.369,-0.12 -0.766,0.082 -0.886,0.452"
           style="fill:#f9dd09;fill-opacity:1;fill-rule:evenodd;stroke:none;stroke-width:0.1"
           id="path102" />
        <path
           d="m 252.736,286.098 c -0.313,0.228 -0.383,0.667 -0.155,0.982 0.228,0.314 0.668,0.383 0.982,0.155 0.314,-0.228 0.384,-0.668 0.156,-0.982 -0.228,-0.314 -0.668,-0.384 -0.983,-0.155"
           style="fill:#f9dd09;fill-opacity:1;fill-rule:evenodd;stroke:none;stroke-width:0.1"
           id="path104" />
        <path
           d="m 256.929,284.734 c -0.388,0 -0.703,0.316 -0.703,0.704 0,0.388 0.315,0.703 0.703,0.703 0.389,0 0.703,-0.315 0.703,-0.703 0,-0.388 -0.314,-0.704 -0.703,-0.704"
           style="fill:#f9dd09;fill-opacity:1;fill-rule:evenodd;stroke:none;stroke-width:0.1"
           id="path106" />
        <path
           d="m 261.122,286.096 c -0.314,-0.228 -0.754,-0.159 -0.982,0.156 -0.228,0.314 -0.158,0.754 0.156,0.982 0.314,0.228 0.754,0.159 0.982,-0.156 0.228,-0.314 0.158,-0.754 -0.156,-0.982"
           style="fill:#f9dd09;fill-opacity:1;fill-rule:evenodd;stroke:none;stroke-width:0.1"
           id="path108" />
        <path
           d="m 263.714,289.662 c -0.12,-0.369 -0.517,-0.571 -0.886,-0.451 -0.369,0.12 -0.571,0.517 -0.452,0.886 0.121,0.369 0.517,0.571 0.887,0.451 0.369,-0.12 0.571,-0.517 0.451,-0.886"
           style="fill:#f9dd09;fill-opacity:1;fill-rule:evenodd;stroke:none;stroke-width:0.1"
           id="path110" />
        <path
           d="m 263.715,294.071 c 0.12,-0.369 -0.082,-0.766 -0.451,-0.886 -0.37,-0.12 -0.767,0.082 -0.887,0.451 -0.12,0.369 0.083,0.766 0.452,0.887 0.369,0.119 0.766,-0.083 0.886,-0.452"
           style="fill:#f9dd09;fill-opacity:1;fill-rule:evenodd;stroke:none;stroke-width:0.1"
           id="path112" />
        <path
           d="m 261.124,297.638 c 0.314,-0.228 0.384,-0.668 0.156,-0.982 -0.229,-0.314 -0.669,-0.384 -0.982,-0.156 -0.315,0.229 -0.384,0.668 -0.156,0.982 0.228,0.314 0.668,0.384 0.982,0.156"
           style="fill:#f9dd09;fill-opacity:1;fill-rule:evenodd;stroke:none;stroke-width:0.1"
           id="path114" />
        <path
           d="m 221.611,348.269 h 1.089 v -9.273 h -1.089 v 9.273"
           style="fill:#3a3a3c;fill-opacity:1;fill-rule:evenodd;stroke:none;stroke-width:0.1"
           id="path116" />
        <path
           d="m 222.155,352.959 v 0 c 1.02,0 1.853,-0.833 1.853,-1.852 v -1.259 c 0,-1.019 -0.833,-1.852 -1.853,-1.852 -1.019,0 -1.852,0.833 -1.852,1.852 v 1.259 c 0,1.019 0.833,1.852 1.852,1.852"
           style="fill:#f37016;fill-opacity:1;fill-rule:evenodd;stroke:none;stroke-width:0.1"
           id="path118" />
        <path
           d="m 224.008,349.905 v -0.057 c 0,-1.019 -0.833,-1.852 -1.853,-1.852 -1.019,0 -1.852,0.833 -1.852,1.852 v 0.057 h 3.705"
           style="fill:#3a3a3c;fill-opacity:1;fill-rule:evenodd;stroke:none;stroke-width:0.1"
           id="path120" />
        <path
           d="m 183.967,315.189 c 7.116,0.67 21.241,0.926 32.068,0.914 l 0.001,-11.4 h 14.27 l -0.562,-13.347 -38.297,0.209 -5.598,17.139 -1.882,6.485"
           style="fill:#2a8646;fill-opacity:1;fill-rule:evenodd;stroke:none;stroke-width:0.1"
           id="path122" />
        <path
           d="m 176.413,306.045 v 0 c 0.01,-1.133 -1.31,-2.065 -2.936,-2.073 l -2.003,-0.009 -0.038,4.12 2.004,0.008 c 1.624,0.007 2.962,-0.913 2.973,-2.046"
           style="fill:#505256;fill-opacity:1;fill-rule:evenodd;stroke:none;stroke-width:0.1"
           id="path124" />
        <path
           d="m 226.689,302.507 -0.931,-19.306 h 3.526 l 1.089,19.306 h -3.684"
           style="fill:#2eaa49;fill-opacity:1;fill-rule:evenodd;stroke:none;stroke-width:0.1"
           id="path126" />
        <path
           d="m 211.016,307.022 h 10.004 l -1.129,-22.16 h -6.056 c -0.594,0 -1.085,0.455 -1.13,1.048 -0.512,6.807 -1.332,12.971 -3.138,17.072 -0.136,0.308 -0.133,0.627 0.009,0.933 l 1.44,3.107"
           style="fill:#505256;fill-opacity:1;fill-rule:evenodd;stroke:none;stroke-width:0.1"
           id="path128" />
        <path
           d="m 219.735,302.507 -0.934,-19.358 3.529,0.052 1.09,19.306 h -3.685"
           style="fill:#2eaa49;fill-opacity:1;fill-rule:evenodd;stroke:none;stroke-width:0.1"
           id="path130" />
        <path
           d="m 220.514,298.77 h 9.03 v -0.933 h -9.03 v 0.933"
           style="fill:#97d221;fill-opacity:1;fill-rule:evenodd;stroke:none;stroke-width:0.1"
           id="path132" />
        <path
           d="m 220.098,292.024 h 9.031 v -0.934 h -9.031 v 0.934"
           style="fill:#97d221;fill-opacity:1;fill-rule:evenodd;stroke:none;stroke-width:0.1"
           id="path134" />
        <path
           d="m 219.683,284.135 h 9.03 v -0.934 h -9.03 v 0.934"
           style="fill:#97d221;fill-opacity:1;fill-rule:evenodd;stroke:none;stroke-width:0.1"
           id="path136" />
        <path
           d="m 188.362,303.407 -1.651,9.323 c -0.135,0.765 0.087,1.469 0.654,2.071 0.568,0.602 1.323,0.935 2.224,0.982 l 2.987,0.153 c 1.582,0.081 2.966,-0.858 3.237,-2.198 l 1.895,-9.361 c 0.159,-0.78 -0.06,-1.506 -0.64,-2.123 -0.58,-0.617 -1.359,-0.954 -2.282,-0.987 l -3.232,-0.116 c -1.586,-0.058 -2.954,0.909 -3.192,2.256"
           style="fill:#2eaa49;fill-opacity:1;fill-rule:evenodd;stroke:none;stroke-width:0.1"
           id="path138" />
        <path
           d="m 188.996,304.164 -1.207,7.949 c -0.1,0.653 0.063,1.253 0.478,1.766 0.415,0.514 0.968,0.797 1.627,0.837 l 2.185,0.131 c 1.158,0.069 2.17,-0.732 2.369,-1.874 l 1.386,-7.982 c 0.116,-0.665 -0.044,-1.284 -0.468,-1.81 -0.425,-0.526 -0.995,-0.814 -1.67,-0.842 l -2.364,-0.099 c -1.161,-0.049 -2.161,0.775 -2.336,1.924"
           style="fill:#3a3a3c;fill-opacity:1;fill-rule:evenodd;stroke:none;stroke-width:0.1"
           id="path140" />
        <path
           d="m 187.415,311.593 8.172,0.801 -0.058,-0.915 -8.114,-0.801 v 0.915"
           style="fill:#2eaa49;fill-opacity:1;fill-rule:evenodd;stroke:none;stroke-width:0.1"
           id="path142" />
        <path
           d="m 188.307,306.258 7.902,2.232 0.105,-0.912 -7.845,-2.22 -0.162,0.9"
           style="fill:#2eaa49;fill-opacity:1;fill-rule:evenodd;stroke:none;stroke-width:0.1"
           id="path144" />
        <path
           d="m 177.13,307.246 c 17.284,6.176 32.582,-6.004 31.828,-19.735 -0.743,-0.247 -1.486,-0.495 -2.228,-0.743 -2.629,18.075 -15.2,22.824 -28,19.62 0.247,0.362 -1.848,0.496 -1.6,0.858"
           style="fill:#65686c;fill-opacity:1;fill-rule:evenodd;stroke:none;stroke-width:0.1"
           id="path146" />
        <path
           d="m 211.016,307.022 h 10.004 l -0.176,-3.469 h -11.371 c 0.013,0.122 0.047,0.243 0.103,0.362 l 1.44,3.107"
           style="fill:#65686c;fill-opacity:1;fill-rule:evenodd;stroke:none;stroke-width:0.1"
           id="path148" />
        <path
           d="m 212.132,309.876 h 1.402 c 0.256,0 0.466,-0.21 0.466,-0.466 v -2.491 c 0,-0.258 -0.21,-0.468 -0.466,-0.468 h -1.402 c -0.257,0 -0.467,0.21 -0.467,0.468 v 2.491 c 0,0.256 0.21,0.466 0.467,0.466"
           style="fill:#505256;fill-opacity:1;fill-rule:evenodd;stroke:none;stroke-width:0.1"
           id="path150" />
        <path
           d="m 219.733,307.06 h 11.835 c -0.659,-1.98 -0.773,-3.295 -1.02,-4.597 h -10.815 v 4.597"
           style="fill:#3a3a3c;fill-opacity:1;fill-rule:evenodd;stroke:none;stroke-width:0.1"
           id="path152" />
        <path
           d="m 184.786,306.175 c 10.564,0 19.131,-8.567 19.131,-19.131 0,-10.564 -8.567,-19.131 -19.131,-19.131 -10.564,0 -19.131,8.567 -19.131,19.131 0,10.564 8.567,19.131 19.131,19.131"
           style="fill:#3a3a3c;fill-opacity:1;fill-rule:evenodd;stroke:none;stroke-width:0.1"
           id="path154" />
        <path
           d="m 184.786,303.45 c 9.059,0 16.406,-7.347 16.406,-16.406 0,-9.059 -7.347,-16.405 -16.406,-16.405 -9.059,0 -16.405,7.346 -16.405,16.405 0,9.059 7.346,16.406 16.405,16.406"
           style="fill:#505256;fill-opacity:1;fill-rule:evenodd;stroke:none;stroke-width:0.1"
           id="path156" />
        <path
           d="m 179.915,305.637 c 0.367,0.096 0.737,0.18 1.112,0.255 l 0.999,-3.269 c -0.529,-0.093 -1.048,-0.212 -1.558,-0.356 l -0.553,3.37 m -3.759,-1.42 c 0.339,0.17 0.684,0.331 1.034,0.482 l 1.656,-2.99 c -0.495,-0.201 -0.978,-0.427 -1.447,-0.675 l -1.243,3.183 m -3.379,-2.173 c 0.296,0.238 0.6,0.467 0.91,0.687 l 2.242,-2.579 c -0.442,-0.3 -0.868,-0.621 -1.276,-0.962 l -1.876,2.854 m -2.856,-2.824 c 0.241,0.294 0.491,0.581 0.749,0.86 l 2.729,-2.057 c -0.369,-0.384 -0.72,-0.785 -1.05,-1.204 l -2.428,2.401 m -2.21,-3.355 c 0.175,0.338 0.361,0.67 0.555,0.996 l 3.098,-1.445 c -0.282,-0.451 -0.541,-0.917 -0.778,-1.396 l -2.875,1.845 m -1.461,-3.743 c 0.101,0.368 0.211,0.732 0.333,1.091 l 3.331,-0.77 c -0.181,-0.498 -0.338,-1.007 -0.468,-1.527 l -3.196,1.206 m -0.647,-3.965 c 0.022,0.381 0.055,0.761 0.099,1.136 l 3.417,-0.06 c -0.073,-0.523 -0.119,-1.053 -0.14,-1.591 l -3.376,0.515 m 0.185,-4.013 c -0.057,0.374 -0.102,0.752 -0.136,1.133 l 3.355,0.651 c 0.037,-0.537 0.102,-1.065 0.191,-1.586 l -3.41,-0.198 m 1.017,-3.887 c -0.134,0.355 -0.259,0.714 -0.372,1.078 l 3.148,1.336 c 0.148,-0.515 0.321,-1.019 0.518,-1.511 l -3.294,-0.903 m 1.806,-3.588 c -0.206,0.319 -0.401,0.645 -0.587,0.977 l 2.8,1.96 c 0.251,-0.471 0.525,-0.928 0.822,-1.37 l -3.035,-1.567 m 2.512,-3.135 c -0.267,0.27 -0.526,0.549 -0.777,0.835 l 2.331,2.499 c 0.343,-0.408 0.706,-0.798 1.089,-1.169 l -2.643,-2.165 m 3.107,-2.546 c -0.318,0.209 -0.63,0.427 -0.935,0.654 l 1.762,2.93 c 0.419,-0.327 0.856,-0.633 1.307,-0.918 l -2.134,-2.666 m 3.567,-1.848 c -0.355,0.139 -0.705,0.288 -1.049,0.447 l 1.114,3.232 c 0.477,-0.233 0.966,-0.442 1.469,-0.627 l -1.534,-3.052 m 3.875,-1.06 c -0.376,0.062 -0.75,0.134 -1.119,0.217 l 0.418,3.393 c 0.512,-0.127 1.036,-0.229 1.567,-0.305 l -0.866,-3.305 m 4.012,-0.231 c -0.298,-0.013 -0.597,-0.021 -0.898,-0.021 l -0.243,0.003 -0.297,3.404 c 0.179,-0.006 0.359,-0.01 0.54,-0.01 0.355,0 0.708,0.013 1.057,0.036 l -0.159,-3.412 m 3.971,0.602 c -0.366,-0.095 -0.737,-0.18 -1.111,-0.255 l -0.999,3.27 c 0.529,0.093 1.048,0.212 1.557,0.356 l 0.553,-3.371 m 3.759,1.421 c -0.339,-0.171 -0.683,-0.332 -1.033,-0.483 l -1.657,2.99 c 0.496,0.201 0.979,0.427 1.448,0.675 l 1.242,-3.182 m 3.38,2.172 c -0.297,-0.238 -0.6,-0.468 -0.911,-0.688 l -2.241,2.58 c 0.442,0.299 0.867,0.62 1.275,0.962 l 1.877,-2.854 m 2.856,2.824 c -0.241,-0.294 -0.491,-0.581 -0.749,-0.86 l -2.729,2.057 c 0.37,0.383 0.72,0.785 1.05,1.204 l 2.428,-2.401 m 2.21,3.354 c -0.175,-0.338 -0.36,-0.67 -0.555,-0.996 l -3.098,1.446 c 0.282,0.45 0.541,0.916 0.777,1.395 l 2.876,-1.845 m 1.461,3.743 c -0.1,-0.368 -0.21,-0.732 -0.332,-1.091 l -3.331,0.77 c 0.181,0.498 0.337,1.008 0.468,1.527 l 3.195,-1.206 m 0.648,3.965 c -0.022,-0.381 -0.055,-0.76 -0.099,-1.136 l -3.417,0.06 c 0.073,0.523 0.119,1.054 0.14,1.592 l 3.376,-0.516 m -0.185,4.014 c 0.057,-0.374 0.102,-0.752 0.136,-1.133 l -3.355,-0.651 c -0.037,0.536 -0.101,1.065 -0.191,1.586 l 3.41,0.198 m -1.016,3.887 c 0.133,-0.355 0.258,-0.714 0.371,-1.078 l -3.148,-1.335 c -0.147,0.515 -0.321,1.018 -0.518,1.51 l 3.295,0.903 m -1.806,3.589 c 0.205,-0.319 0.4,-0.646 0.587,-0.978 l -2.801,-1.959 c -0.251,0.471 -0.525,0.928 -0.822,1.369 l 3.036,1.568 m -2.514,3.135 c 0.268,-0.271 0.527,-0.549 0.778,-0.835 l -2.332,-2.499 c -0.342,0.408 -0.706,0.798 -1.087,1.169 l 2.641,2.165 m -3.106,2.547 c 0.318,-0.21 0.63,-0.427 0.934,-0.655 l -1.761,-2.93 c -0.419,0.328 -0.856,0.634 -1.307,0.919 l 2.134,2.666 m -3.567,1.847 c 0.355,-0.139 0.704,-0.288 1.049,-0.447 l -1.114,-3.232 c -0.477,0.233 -0.967,0.442 -1.469,0.627 l 1.534,3.052 m -3.877,1.06 c 0.377,-0.062 0.751,-0.134 1.12,-0.217 l -0.417,-3.393 c -0.513,0.127 -1.037,0.229 -1.568,0.305 l 0.865,3.305 m -4.011,0.23 -0.16,-3.412 c 0.351,0.024 0.703,0.036 1.059,0.036 0.181,0 0.36,-0.004 0.539,-0.01 l -0.297,3.404 -0.242,0.003 c -0.302,0 -0.601,-0.007 -0.899,-0.021"
           style="fill:#505256;fill-opacity:1;fill-rule:evenodd;stroke:none;stroke-width:0.1"
           id="path158" />
        <path
           d="m 184.786,297.672 c 5.869,0 10.628,-4.759 10.628,-10.628 0,-5.869 -4.759,-10.628 -10.628,-10.628 -5.869,0 -10.628,4.759 -10.628,10.628 0,5.869 4.759,10.628 10.628,10.628"
           style="fill:#f9dd09;fill-opacity:1;fill-rule:evenodd;stroke:none;stroke-width:0.1"
           id="path160" />
        <path
           d="m 184.786,295.819 c 4.846,0 8.775,-3.93 8.775,-8.775 0,-4.846 -3.929,-8.775 -8.775,-8.775 -4.845,0 -8.775,3.929 -8.775,8.775 0,4.845 3.93,8.775 8.775,8.775"
           style="fill:#eab512;fill-opacity:1;fill-rule:evenodd;stroke:none;stroke-width:0.1"
           id="path162" />
        <path
           d="m 184.786,290.696 c 2.016,0 3.652,-1.635 3.652,-3.652 0,-2.017 -1.636,-3.652 -3.652,-3.652 -2.016,0 -3.652,1.635 -3.652,3.652 0,2.017 1.636,3.652 3.652,3.652"
           style="fill:#f9dd09;fill-opacity:1;fill-rule:evenodd;stroke:none;stroke-width:0.1"
           id="path164" />
        <path
           d="m 184.786,292.766 c 0.312,0 0.564,-0.253 0.564,-0.564 0,-0.311 -0.252,-0.564 -0.564,-0.564 -0.311,0 -0.564,0.253 -0.564,0.564 0,0.311 0.253,0.564 0.564,0.564"
           style="fill:#f9dd09;fill-opacity:1;fill-rule:evenodd;stroke:none;stroke-width:0.1"
           id="path166" />
        <path
           d="m 181.423,291.674 c 0.251,0.183 0.604,0.127 0.787,-0.125 0.184,-0.251 0.128,-0.605 -0.124,-0.788 -0.252,-0.183 -0.605,-0.127 -0.788,0.125 -0.183,0.252 -0.127,0.605 0.125,0.788"
           style="fill:#f9dd09;fill-opacity:1;fill-rule:evenodd;stroke:none;stroke-width:0.1"
           id="path168" />
        <path
           d="m 179.343,288.813 c 0.096,0.296 0.415,0.458 0.711,0.362 0.296,-0.096 0.458,-0.414 0.362,-0.711 -0.096,-0.296 -0.414,-0.458 -0.711,-0.362 -0.295,0.096 -0.458,0.415 -0.362,0.711"
           style="fill:#f9dd09;fill-opacity:1;fill-rule:evenodd;stroke:none;stroke-width:0.1"
           id="path170" />
        <path
           d="m 179.343,285.277 c -0.096,0.295 0.066,0.614 0.362,0.71 0.296,0.096 0.614,-0.066 0.711,-0.362 0.096,-0.296 -0.066,-0.615 -0.363,-0.711 -0.296,-0.096 -0.614,0.066 -0.71,0.363"
           style="fill:#f9dd09;fill-opacity:1;fill-rule:evenodd;stroke:none;stroke-width:0.1"
           id="path172" />
        <path
           d="m 181.421,282.415 c -0.252,0.183 -0.308,0.536 -0.125,0.788 0.184,0.252 0.536,0.308 0.788,0.125 0.252,-0.184 0.308,-0.536 0.125,-0.788 -0.183,-0.252 -0.536,-0.308 -0.788,-0.125"
           style="fill:#f9dd09;fill-opacity:1;fill-rule:evenodd;stroke:none;stroke-width:0.1"
           id="path174" />
        <path
           d="m 184.785,281.322 c -0.312,0 -0.565,0.252 -0.565,0.564 0,0.311 0.253,0.564 0.565,0.564 0.311,0 0.563,-0.253 0.563,-0.564 0,-0.312 -0.252,-0.564 -0.563,-0.564"
           style="fill:#f9dd09;fill-opacity:1;fill-rule:evenodd;stroke:none;stroke-width:0.1"
           id="path176" />
        <path
           d="m 188.148,282.414 c -0.252,-0.183 -0.605,-0.127 -0.788,0.125 -0.183,0.251 -0.127,0.605 0.125,0.787 0.252,0.184 0.605,0.128 0.788,-0.124 0.183,-0.252 0.127,-0.605 -0.125,-0.788"
           style="fill:#f9dd09;fill-opacity:1;fill-rule:evenodd;stroke:none;stroke-width:0.1"
           id="path178" />
        <path
           d="m 190.227,285.275 c -0.096,-0.296 -0.414,-0.459 -0.711,-0.363 -0.295,0.097 -0.458,0.415 -0.362,0.711 0.097,0.297 0.415,0.459 0.711,0.362 0.296,-0.096 0.459,-0.414 0.362,-0.71"
           style="fill:#f9dd09;fill-opacity:1;fill-rule:evenodd;stroke:none;stroke-width:0.1"
           id="path180" />
        <path
           d="m 190.228,288.811 c 0.096,-0.296 -0.066,-0.614 -0.362,-0.711 -0.296,-0.096 -0.615,0.067 -0.711,0.363 -0.096,0.296 0.066,0.614 0.362,0.71 0.296,0.097 0.615,-0.065 0.711,-0.362"
           style="fill:#f9dd09;fill-opacity:1;fill-rule:evenodd;stroke:none;stroke-width:0.1"
           id="path182" />
        <path
           d="m 188.149,291.673 c 0.252,-0.183 0.308,-0.536 0.125,-0.788 -0.183,-0.252 -0.536,-0.308 -0.787,-0.125 -0.253,0.183 -0.308,0.536 -0.125,0.788 0.183,0.252 0.536,0.308 0.787,0.125"
           style="fill:#f9dd09;fill-opacity:1;fill-rule:evenodd;stroke:none;stroke-width:0.1"
           id="path184" />
        <path
           d="m 184.534,267.927 c -0.01,0 -0.021,0 -0.031,0 v 0.36 l 0.031,-0.36 m 1.154,0.007 0.127,2.736 c 0.646,0.04 1.28,0.117 1.903,0.23 l 0.801,-2.623 c -0.922,-0.182 -1.868,-0.298 -2.831,-0.343 m 3.954,0.601 -0.444,2.704 c 0.62,0.173 1.225,0.381 1.813,0.622 l 1.329,-2.398 c -0.868,-0.374 -1.77,-0.685 -2.698,-0.928 m 3.741,1.415 -0.996,2.552 c 0.568,0.298 1.116,0.628 1.643,0.987 l 1.798,-2.069 c -0.774,-0.548 -1.591,-1.04 -2.445,-1.47 m 3.365,2.164 -1.506,2.289 c 0.493,0.408 0.961,0.844 1.403,1.306 l 2.189,-1.651 c -0.646,-0.698 -1.343,-1.348 -2.086,-1.944 m 2.842,2.813 -1.948,1.926 c 0.397,0.5 0.765,1.024 1.103,1.568 l 2.484,-1.16 c -0.489,-0.82 -1.037,-1.599 -1.639,-2.334 m 2.199,3.341 -2.306,1.479 c 0.284,0.57 0.535,1.159 0.752,1.764 l 2.672,-0.617 c -0.309,-0.908 -0.683,-1.785 -1.118,-2.626 m 1.454,3.727 -2.563,0.967 c 0.157,0.614 0.28,1.242 0.365,1.882 l 2.741,-0.048 c -0.071,-0.607 -0.171,-1.207 -0.297,-1.796 -0.073,-0.339 -0.155,-0.673 -0.246,-1.005 m 0.643,3.948 -2.709,0.414 c 0.01,0.227 0.015,0.457 0.015,0.687 0,0.413 -0.016,0.823 -0.046,1.228 l 2.692,0.523 c 0.052,-0.577 0.079,-1.16 0.079,-1.751 0,-0.37 -0.01,-0.737 -0.031,-1.101 m -2.922,3.837 c -0.106,0.636 -0.25,1.26 -0.428,1.869 l 2.525,1.071 c 0.279,-0.901 0.494,-1.829 0.638,-2.781 l -2.735,-0.159 m -0.921,3.304 c -0.236,0.598 -0.507,1.177 -0.809,1.738 l 2.246,1.572 c 0.463,-0.826 0.867,-1.69 1.206,-2.585 l -2.643,-0.725 m -1.591,3.039 c -0.355,0.533 -0.741,1.045 -1.154,1.531 l 1.87,2.004 c 0.627,-0.714 1.202,-1.475 1.718,-2.277 l -2.434,-1.258 m -2.188,2.642 c -0.456,0.447 -0.939,0.867 -1.445,1.259 l 1.413,2.349 c 0.763,-0.57 1.482,-1.196 2.151,-1.872 l -2.119,-1.736 m -2.687,2.132 c -0.538,0.342 -1.097,0.654 -1.675,0.933 l 0.894,2.592 c 0.868,-0.401 1.701,-0.865 2.493,-1.387 l -1.712,-2.138 m -3.071,1.528 c -0.595,0.221 -1.208,0.409 -1.833,0.561 l 0.334,2.721 c 0.938,-0.211 1.849,-0.491 2.729,-0.834 l -1.23,-2.448 m -3.323,0.851 c -0.626,0.091 -1.263,0.148 -1.909,0.167 l -0.239,2.73 c 0.967,-0.012 1.915,-0.096 2.842,-0.247 l -0.694,-2.65"
           style="fill:#282626;fill-opacity:1;fill-rule:nonzero;stroke:none;stroke-width:0.1"
           id="path1060" />
        <path
           d="m 185.815,270.67 0.028,0.591 c -0.349,-0.023 -0.702,-0.036 -1.057,-0.036 -0.094,0 -0.189,10e-4 -0.283,0.003 v 5.191 c 0.094,-0.002 0.189,-0.003 0.283,-0.003 5.869,0 10.628,4.759 10.628,10.628 0,5.869 -4.759,10.628 -10.628,10.628 -0.094,0 -0.189,-0.001 -0.283,-0.003 v 5.192 c 0.094,0.001 0.188,0.002 0.283,0.002 0.181,0 0.36,-0.004 0.539,-0.01 v 0 0 l -0.051,0.59 c 0.646,-0.019 1.283,-0.076 1.909,-0.167 l -0.15,-0.572 c 0.531,-0.076 1.055,-0.178 1.568,-0.305 l 0.072,0.587 c 0.625,-0.152 1.238,-0.34 1.833,-0.561 l -0.265,-0.528 c 0.502,-0.185 0.992,-0.394 1.469,-0.627 l 0.192,0.56 c 0.578,-0.279 1.137,-0.591 1.675,-0.933 l -0.369,-0.461 c 0.451,-0.285 0.888,-0.591 1.307,-0.919 l 0.304,0.507 c 0.506,-0.392 0.989,-0.812 1.445,-1.259 l -0.457,-0.375 c 0.381,-0.371 0.745,-0.761 1.087,-1.169 l 0.404,0.433 c 0.413,-0.486 0.799,-0.998 1.154,-1.531 l -0.526,-0.271 c 0.297,-0.441 0.571,-0.898 0.822,-1.369 l 0.486,0.339 c 0.302,-0.561 0.573,-1.14 0.809,-1.738 l -0.57,-0.156 c 0.197,-0.492 0.371,-0.995 0.518,-1.51 l 0.545,0.231 c 0.178,-0.609 0.322,-1.233 0.428,-1.869 l -0.59,-0.034 c 0.09,-0.521 0.154,-1.05 0.191,-1.586 l 0.581,0.112 c 0.03,-0.405 0.046,-0.815 0.046,-1.228 0,-0.23 -0.005,-0.46 -0.015,-0.687 l -0.584,0.089 c -0.021,-0.538 -0.067,-1.069 -0.14,-1.592 l 0.592,-0.01 c -0.085,-0.64 -0.208,-1.268 -0.365,-1.882 l -0.554,0.209 c -0.131,-0.519 -0.287,-1.029 -0.468,-1.527 l 0.577,-0.133 c -0.217,-0.605 -0.468,-1.194 -0.752,-1.764 l -0.499,0.32 c -0.236,-0.479 -0.495,-0.945 -0.777,-1.395 l 0.538,-0.251 c -0.338,-0.544 -0.706,-1.068 -1.103,-1.568 l -0.42,0.416 c -0.33,-0.419 -0.68,-0.821 -1.05,-1.204 l 0.473,-0.356 c -0.442,-0.462 -0.91,-0.898 -1.403,-1.306 l -0.325,0.495 c -0.408,-0.342 -0.833,-0.663 -1.275,-0.962 l 0.388,-0.447 c -0.527,-0.359 -1.075,-0.689 -1.643,-0.987 l -0.215,0.552 c -0.469,-0.248 -0.952,-0.474 -1.448,-0.675 l 0.287,-0.518 c -0.588,-0.241 -1.193,-0.449 -1.813,-0.622 l -0.096,0.583 c -0.509,-0.144 -1.028,-0.263 -1.557,-0.356 l 0.173,-0.566 c -0.623,-0.113 -1.257,-0.19 -1.903,-0.23"
           style="fill:#363637;fill-opacity:1;fill-rule:nonzero;stroke:none;stroke-width:0.1"
           id="path1062" />
        <path
           d="m 184.786,267.913 c -0.085,0 -0.168,0.01 -0.252,0.014 l -0.031,0.36 v 2.941 c 0.094,-0.002 0.189,-0.003 0.283,-0.003 0.355,0 0.708,0.013 1.057,0.036 l -0.028,-0.591 -0.127,-2.736 c -0.299,-0.014 -0.6,-0.021 -0.902,-0.021 m 3.733,0.364 v 0 l -0.801,2.623 -0.173,0.566 c 0.529,0.093 1.048,0.212 1.557,0.356 l 0.096,-0.583 0.444,-2.704 c -0.371,-0.097 -0.745,-0.183 -1.123,-0.258 m 3.821,1.186 v 0 l -1.329,2.398 -0.287,0.518 c 0.496,0.201 0.979,0.427 1.448,0.675 l 0.215,-0.552 0.996,-2.552 c -0.342,-0.173 -0.689,-0.335 -1.043,-0.487 m 3.488,1.957 v 0 l -1.798,2.069 -0.388,0.447 c 0.442,0.299 0.867,0.62 1.275,0.962 l 0.325,-0.495 1.506,-2.289 c -0.3,-0.24 -0.607,-0.472 -0.92,-0.694 m 3.006,2.638 v 0 l -2.189,1.651 -0.473,0.356 c 0.37,0.383 0.72,0.785 1.05,1.204 l 0.42,-0.416 1.948,-1.926 c -0.243,-0.297 -0.496,-0.587 -0.756,-0.869 m 2.395,3.203 v 0 l -2.484,1.16 -0.538,0.251 c 0.282,0.45 0.541,0.916 0.777,1.395 l 0.499,-0.32 2.306,-1.479 c -0.176,-0.341 -0.363,-0.678 -0.56,-1.007 m 1.678,3.633 v 0 l -2.672,0.617 -0.577,0.133 c 0.181,0.498 0.337,1.008 0.468,1.527 l 0.554,-0.209 2.563,-0.967 c -0.101,-0.372 -0.214,-0.739 -0.336,-1.101 m 0.879,3.902 v 0 l -2.741,0.048 -0.592,0.01 c 0.073,0.523 0.119,1.054 0.14,1.592 l 0.584,-0.089 2.709,-0.414 c -0.022,-0.386 -0.055,-0.768 -0.1,-1.147 m -3.221,3.364 c -0.037,0.536 -0.101,1.065 -0.191,1.586 l 0.59,0.034 2.735,0.159 c 0.058,-0.377 0.104,-0.759 0.139,-1.144 l -2.692,-0.523 -0.581,-0.112 m -0.574,3.258 c -0.147,0.515 -0.321,1.018 -0.518,1.51 l 0.57,0.156 2.643,0.725 c 0.135,-0.358 0.261,-0.722 0.375,-1.089 l -2.525,-1.071 -0.545,-0.231 m -1.243,3.065 c -0.251,0.471 -0.525,0.928 -0.822,1.369 l 0.526,0.271 2.434,1.258 c 0.207,-0.323 0.406,-0.652 0.594,-0.987 l -2.246,-1.572 -0.486,-0.339 m -1.854,2.738 c -0.342,0.408 -0.706,0.798 -1.087,1.169 l 0.457,0.375 2.119,1.736 c 0.27,-0.273 0.532,-0.554 0.785,-0.843 l -1.87,-2.004 -0.404,-0.433 m -2.379,2.296 c -0.419,0.328 -0.856,0.634 -1.307,0.919 l 0.369,0.461 1.712,2.138 c 0.321,-0.211 0.636,-0.432 0.943,-0.662 l -1.413,-2.349 -0.304,-0.507 m -2.805,1.753 c -0.477,0.233 -0.967,0.442 -1.469,0.627 l 0.265,0.528 1.23,2.448 c 0.359,-0.14 0.712,-0.291 1.06,-0.451 l -0.894,-2.592 -0.192,-0.56 m -3.109,1.129 c -0.513,0.127 -1.037,0.229 -1.568,0.305 l 0.15,0.572 0.694,2.65 c 0.38,-0.062 0.758,-0.135 1.13,-0.219 l -0.334,-2.721 -0.072,-0.587 m -3.276,0.454 c -0.179,0.006 -0.358,0.01 -0.539,0.01 -0.095,0 -0.189,-10e-4 -0.283,-0.002 v 3.3 c 0.095,10e-4 0.187,0.014 0.283,0.014 0.083,0 0.167,-0.001 0.249,-0.002 l 0.239,-2.73 0.051,-0.59"
           style="fill:#363637;fill-opacity:1;fill-rule:nonzero;stroke:none;stroke-width:0.1"
           id="path1064" />
        <path
           d="m 184.786,276.416 c -0.094,0 -0.189,10e-4 -0.283,0.003 v 1.854 c 0.094,-0.003 0.188,-0.004 0.283,-0.004 4.846,0 8.775,3.929 8.775,8.775 0,4.845 -3.929,8.775 -8.775,8.775 -0.095,0 -0.189,-0.001 -0.283,-0.004 v 1.854 c 0.094,0.002 0.189,0.003 0.283,0.003 5.869,0 10.628,-4.759 10.628,-10.628 0,-5.869 -4.759,-10.628 -10.628,-10.628"
           style="fill:#a3931f;fill-opacity:1;fill-rule:nonzero;stroke:none;stroke-width:0.1"
           id="path1066" />
        <path
           d="m 184.786,278.269 c -0.095,0 -0.189,10e-4 -0.283,0.004 v 3.124 c 0.083,-0.048 0.179,-0.075 0.282,-0.075 0.311,0 0.563,0.252 0.563,0.564 0,0.311 -0.252,0.564 -0.563,0.564 -0.103,0 -0.199,-0.028 -0.282,-0.075 v 1.028 c 0.093,-0.008 0.188,-0.011 0.283,-0.011 2.016,0 3.652,1.635 3.652,3.652 0,2.017 -1.636,3.652 -3.652,3.652 -0.095,0 -0.19,-0.004 -0.283,-0.011 v 1.029 c 0.083,-0.048 0.18,-0.076 0.283,-0.076 0.312,0 0.564,0.253 0.564,0.564 0,0.311 -0.252,0.564 -0.564,0.564 -0.103,0 -0.2,-0.028 -0.283,-0.076 v 3.125 c 0.094,0.003 0.188,0.004 0.283,0.004 4.846,0 8.775,-3.93 8.775,-8.775 0,-4.846 -3.929,-8.775 -8.775,-8.775 m 3.03,5.165 c -0.115,0 -0.231,-0.035 -0.331,-0.108 -0.252,-0.182 -0.308,-0.536 -0.125,-0.787 0.111,-0.152 0.283,-0.233 0.457,-0.233 0.115,0 0.231,0.035 0.331,0.108 0.252,0.183 0.308,0.536 0.125,0.788 -0.111,0.152 -0.282,0.232 -0.457,0.232 m 1.875,2.579 c -0.238,0 -0.459,-0.151 -0.537,-0.39 -0.096,-0.296 0.067,-0.614 0.362,-0.711 0.058,-0.018 0.117,-0.027 0.174,-0.027 0.238,0 0.46,0.151 0.537,0.39 0.097,0.296 -0.066,0.614 -0.362,0.71 -0.058,0.019 -0.117,0.028 -0.174,0.028 m 0.001,3.188 c -0.058,0 -0.117,-0.009 -0.175,-0.028 -0.296,-0.096 -0.458,-0.414 -0.362,-0.71 0.077,-0.239 0.299,-0.39 0.537,-0.39 0.057,0 0.116,0.009 0.174,0.027 0.296,0.097 0.458,0.415 0.362,0.711 -0.078,0.239 -0.299,0.39 -0.536,0.39 m -1.874,2.579 c -0.174,0 -0.346,-0.08 -0.456,-0.232 -0.183,-0.252 -0.128,-0.605 0.125,-0.788 0.1,-0.073 0.215,-0.108 0.33,-0.108 0.175,0 0.347,0.081 0.457,0.233 0.183,0.252 0.127,0.605 -0.125,0.788 -0.1,0.072 -0.216,0.107 -0.331,0.107"
           style="fill:#98771f;fill-opacity:1;fill-rule:nonzero;stroke:none;stroke-width:0.1"
           id="path1068" />
        <path
           d="m 184.786,283.392 c -0.095,0 -0.19,0.003 -0.283,0.011 v 7.282 c 0.093,0.007 0.188,0.011 0.283,0.011 2.016,0 3.652,-1.635 3.652,-3.652 0,-2.017 -1.636,-3.652 -3.652,-3.652"
           style="fill:#a3931f;fill-opacity:1;fill-rule:nonzero;stroke:none;stroke-width:0.1"
           id="path1070" />
        <path
           d="m 184.786,291.638 c -0.103,0 -0.2,0.028 -0.283,0.076 v 0.976 c 0.083,0.048 0.18,0.076 0.283,0.076 0.312,0 0.564,-0.253 0.564,-0.564 0,-0.311 -0.252,-0.564 -0.564,-0.564"
           style="fill:#a3931f;fill-opacity:1;fill-rule:nonzero;stroke:none;stroke-width:0.1"
           id="path1072" />
        <path
           d="m 184.785,281.322 c -0.103,0 -0.199,0.027 -0.282,0.075 v 0.978 c 0.083,0.047 0.179,0.075 0.282,0.075 0.311,0 0.563,-0.253 0.563,-0.564 0,-0.312 -0.252,-0.564 -0.563,-0.564"
           style="fill:#a3931f;fill-opacity:1;fill-rule:nonzero;stroke:none;stroke-width:0.1"
           id="path1074" />
        <path
           d="m 187.817,282.306 c -0.174,0 -0.346,0.081 -0.457,0.233 -0.183,0.251 -0.127,0.605 0.125,0.787 0.1,0.073 0.216,0.108 0.331,0.108 0.175,0 0.346,-0.08 0.457,-0.232 0.183,-0.252 0.127,-0.605 -0.125,-0.788 -0.1,-0.073 -0.216,-0.108 -0.331,-0.108"
           style="fill:#a3931f;fill-opacity:1;fill-rule:nonzero;stroke:none;stroke-width:0.1"
           id="path1076" />
        <path
           d="m 189.69,284.885 c -0.057,0 -0.116,0.009 -0.174,0.027 -0.295,0.097 -0.458,0.415 -0.362,0.711 0.078,0.239 0.299,0.39 0.537,0.39 0.057,0 0.116,-0.009 0.174,-0.028 0.296,-0.096 0.459,-0.414 0.362,-0.71 -0.077,-0.239 -0.299,-0.39 -0.537,-0.39"
           style="fill:#a3931f;fill-opacity:1;fill-rule:nonzero;stroke:none;stroke-width:0.1"
           id="path1078" />
        <path
           d="m 189.692,288.073 c -0.238,0 -0.46,0.151 -0.537,0.39 -0.096,0.296 0.066,0.614 0.362,0.71 0.058,0.019 0.117,0.028 0.175,0.028 0.237,0 0.458,-0.151 0.536,-0.39 0.096,-0.296 -0.066,-0.614 -0.362,-0.711 -0.058,-0.018 -0.117,-0.027 -0.174,-0.027"
           style="fill:#a3931f;fill-opacity:1;fill-rule:nonzero;stroke:none;stroke-width:0.1"
           id="path1080" />
        <path
           d="m 187.817,290.652 c -0.115,0 -0.23,0.035 -0.33,0.108 -0.253,0.183 -0.308,0.536 -0.125,0.788 0.11,0.152 0.282,0.232 0.456,0.232 0.115,0 0.231,-0.035 0.331,-0.107 0.252,-0.183 0.308,-0.536 0.125,-0.788 -0.11,-0.152 -0.282,-0.233 -0.457,-0.233"
           style="fill:#a3931f;fill-opacity:1;fill-rule:nonzero;stroke:none;stroke-width:0.1"
           id="path1082" />
        <path
           d="m 258.055,268.046 0.16,3.411 c 0.804,0.049 1.595,0.146 2.371,0.286 l 0.999,-3.269 c -1.149,-0.227 -2.329,-0.372 -3.53,-0.428 m 4.929,0.749 -0.553,3.37 c 0.773,0.216 1.527,0.475 2.26,0.776 l 1.657,-2.989 c -1.083,-0.466 -2.206,-0.854 -3.364,-1.157 m 4.664,1.764 -1.242,3.181 c 0.709,0.371 1.392,0.783 2.048,1.231 l 2.241,-2.579 c -0.965,-0.683 -1.983,-1.297 -3.047,-1.833 m 4.194,2.698 -1.876,2.853 c 0.614,0.508 1.198,1.052 1.748,1.628 l 2.728,-2.057 c -0.805,-0.871 -1.674,-1.682 -2.6,-2.424 m 3.544,3.507 -2.428,2.4 c 0.494,0.623 0.954,1.276 1.374,1.955 l 3.097,-1.445 c -0.609,-1.022 -1.293,-1.994 -2.043,-2.91 m 2.741,4.164 -2.875,1.844 c 0.354,0.711 0.667,1.444 0.938,2.199 l 3.33,-0.77 c -0.384,-1.131 -0.851,-2.225 -1.393,-3.273 m 1.812,4.645 -3.195,1.207 c 0.196,0.765 0.349,1.548 0.456,2.346 l 3.416,-0.061 c -0.037,-0.315 -0.08,-0.628 -0.129,-0.939 -0.137,-0.868 -0.32,-1.719 -0.548,-2.553 m 0.801,4.923 -3.375,0.515 c 0.011,0.284 0.017,0.57 0.017,0.857 0,0.516 -0.019,1.026 -0.056,1.532 l 3.355,0.651 c 0.065,-0.719 0.098,-1.447 0.098,-2.183 0,-0.461 -0.013,-0.918 -0.039,-1.372 m -3.641,4.783 c -0.133,0.793 -0.312,1.57 -0.534,2.329 l 3.147,1.335 c 0.348,-1.123 0.616,-2.28 0.796,-3.466 l -3.409,-0.198 m -1.148,4.119 c -0.295,0.745 -0.632,1.467 -1.01,2.166 l 2.8,1.959 c 0.578,-1.029 1.082,-2.106 1.504,-3.223 l -3.294,-0.902 m -1.984,3.788 c -0.442,0.664 -0.923,1.302 -1.438,1.908 l 2.331,2.498 c 0.781,-0.89 1.497,-1.838 2.141,-2.838 l -3.034,-1.568 m -2.728,3.293 c -0.568,0.557 -1.17,1.081 -1.8,1.57 l 1.76,2.928 c 0.952,-0.711 1.848,-1.492 2.681,-2.334 l -2.641,-2.164 m -3.349,2.658 c -0.67,0.426 -1.367,0.815 -2.088,1.162 l 1.114,3.232 c 1.082,-0.5 2.121,-1.079 3.108,-1.729 l -2.134,-2.665 m -3.828,1.904 c -0.742,0.276 -1.506,0.511 -2.286,0.7 l 0.418,3.392 c 1.168,-0.263 2.305,-0.612 3.401,-1.04 l -1.533,-3.052 m -4.143,1.061 c -0.78,0.114 -1.574,0.184 -2.38,0.208 l -0.296,3.404 c 1.204,-0.015 2.386,-0.12 3.541,-0.308 l -0.865,-3.304"
           style="fill:#282626;fill-opacity:1;fill-rule:nonzero;stroke:none;stroke-width:0.1"
           id="path1084" />
        <path
           d="m 258.215,271.457 0.034,0.737 c -0.436,-0.029 -0.875,-0.046 -1.317,-0.046 -0.001,0 -0.002,0 -0.003,0 v 6.471 c 0.001,0 0.002,0 0.002,0 7.317,0 13.249,5.933 13.249,13.249 0,7.316 -5.932,13.249 -13.249,13.249 0,0 -10e-4,0 -0.002,0 v 6.471 c 0.001,0 0.002,0 0.003,0 0.225,0 0.448,-0.005 0.671,-0.013 v 0 0 l -0.064,0.735 c 0.806,-0.024 1.6,-0.094 2.38,-0.208 l -0.187,-0.713 c 0.662,-0.094 1.315,-0.221 1.954,-0.379 l 0.09,0.731 c 0.78,-0.189 1.544,-0.424 2.286,-0.7 l -0.331,-0.657 c 0.626,-0.231 1.237,-0.492 1.831,-0.782 l 0.24,0.697 c 0.721,-0.347 1.418,-0.736 2.088,-1.162 l -0.46,-0.576 c 0.562,-0.354 1.107,-0.736 1.629,-1.144 l 0.38,0.632 c 0.63,-0.489 1.232,-1.013 1.8,-1.57 l -0.57,-0.467 c 0.476,-0.463 0.929,-0.949 1.356,-1.458 l 0.504,0.54 c 0.515,-0.606 0.996,-1.244 1.438,-1.908 l -0.655,-0.339 c 0.369,-0.549 0.711,-1.119 1.024,-1.706 l 0.605,0.423 c 0.378,-0.699 0.715,-1.421 1.01,-2.166 l -0.711,-0.195 c 0.245,-0.613 0.462,-1.241 0.646,-1.883 l 0.679,0.288 c 0.222,-0.759 0.401,-1.536 0.534,-2.329 l -0.736,-0.043 c 0.111,-0.649 0.192,-1.308 0.238,-1.977 l 0.725,0.141 c 0.037,-0.506 0.056,-1.016 0.056,-1.532 0,-0.287 -0.006,-0.573 -0.017,-0.857 l -0.73,0.111 c -0.025,-0.67 -0.083,-1.332 -0.174,-1.983 l 0.739,-0.013 c -0.107,-0.798 -0.26,-1.581 -0.456,-2.346 l -0.69,0.26 c -0.164,-0.647 -0.358,-1.282 -0.584,-1.903 l 0.72,-0.166 c -0.271,-0.755 -0.584,-1.488 -0.938,-2.199 l -0.621,0.399 c -0.295,-0.597 -0.618,-1.178 -0.969,-1.74 l 0.67,-0.312 c -0.42,-0.679 -0.88,-1.332 -1.374,-1.955 l -0.524,0.519 c -0.411,-0.523 -0.848,-1.023 -1.309,-1.501 l 0.589,-0.444 c -0.55,-0.576 -1.134,-1.12 -1.748,-1.628 l -0.405,0.617 c -0.509,-0.426 -1.039,-0.826 -1.591,-1.199 l 0.484,-0.557 c -0.656,-0.448 -1.339,-0.86 -2.048,-1.231 l -0.268,0.688 c -0.585,-0.309 -1.187,-0.59 -1.805,-0.84 l 0.358,-0.647 c -0.733,-0.301 -1.487,-0.56 -2.26,-0.776 l -0.12,0.728 c -0.634,-0.18 -1.282,-0.328 -1.94,-0.445 l 0.215,-0.705 c -0.776,-0.14 -1.567,-0.237 -2.371,-0.286"
           style="fill:#363637;fill-opacity:1;fill-rule:nonzero;stroke:none;stroke-width:0.1"
           id="path1086" />
        <path
           d="m 256.931,268.02 h -0.002 v 4.128 c 0.001,0 0.002,0 0.003,0 0.442,0 0.881,0.017 1.317,0.046 l -0.034,-0.737 -0.16,-3.411 c -0.373,-0.017 -0.747,-0.026 -1.124,-0.026 m 4.654,0.454 -0.999,3.269 -0.215,0.705 c 0.658,0.117 1.306,0.265 1.94,0.445 l 0.12,-0.728 0.553,-3.37 c -0.461,-0.12 -0.927,-0.227 -1.399,-0.321 m 4.763,1.478 -1.657,2.989 -0.358,0.647 c 0.618,0.25 1.22,0.531 1.805,0.84 l 0.268,-0.688 1.242,-3.181 c -0.426,-0.215 -0.86,-0.418 -1.3,-0.607 m 4.347,2.44 -2.241,2.579 -0.484,0.557 c 0.552,0.373 1.082,0.773 1.591,1.199 l 0.405,-0.617 1.876,-2.853 c -0.373,-0.3 -0.755,-0.588 -1.147,-0.865 m 3.747,3.289 -2.728,2.057 -0.589,0.444 c 0.461,0.478 0.898,0.978 1.309,1.501 l 0.524,-0.519 2.428,-2.4 c -0.304,-0.37 -0.619,-0.732 -0.944,-1.083 m 2.987,3.993 -3.097,1.445 -0.67,0.312 c 0.351,0.562 0.674,1.143 0.969,1.74 l 0.621,-0.399 2.875,-1.844 c -0.22,-0.425 -0.453,-0.844 -0.698,-1.254 m 2.091,4.527 -3.33,0.77 -0.72,0.166 c 0.226,0.621 0.42,1.256 0.584,1.903 l 0.69,-0.26 3.195,-1.207 c -0.126,-0.463 -0.266,-0.92 -0.419,-1.372 m 1.096,4.864 v 0 l -3.416,0.061 -0.739,0.013 c 0.091,0.651 0.149,1.313 0.174,1.983 l 0.73,-0.111 3.375,-0.515 c -0.027,-0.481 -0.068,-0.958 -0.124,-1.431 m -4.015,4.194 c -0.046,0.669 -0.127,1.328 -0.238,1.977 l 0.736,0.043 3.409,0.198 c 0.071,-0.471 0.129,-0.947 0.173,-1.426 l -3.355,-0.651 -0.725,-0.141 m -0.715,4.061 c -0.184,0.642 -0.401,1.27 -0.646,1.883 l 0.711,0.195 3.294,0.902 c 0.169,-0.446 0.325,-0.899 0.467,-1.357 l -3.147,-1.335 -0.679,-0.288 m -1.55,3.821 c -0.313,0.587 -0.655,1.157 -1.024,1.706 l 0.655,0.339 3.034,1.568 c 0.258,-0.403 0.505,-0.813 0.74,-1.231 l -2.8,-1.959 -0.605,-0.423 m -2.311,3.413 c -0.427,0.509 -0.88,0.995 -1.356,1.458 l 0.57,0.467 2.641,2.164 c 0.337,-0.341 0.664,-0.691 0.98,-1.051 l -2.331,-2.498 -0.504,-0.54 m -2.966,2.863 c -0.522,0.408 -1.067,0.79 -1.629,1.144 l 0.46,0.576 2.134,2.665 c 0.401,-0.263 0.792,-0.538 1.175,-0.825 l -1.76,-2.928 -0.38,-0.632 m -3.497,2.185 c -0.594,0.29 -1.205,0.551 -1.831,0.782 l 0.331,0.657 1.533,3.052 c 0.447,-0.175 0.887,-0.362 1.321,-0.562 l -1.114,-3.232 -0.24,-0.697 m -3.876,1.408 c -0.639,0.158 -1.292,0.285 -1.954,0.379 l 0.187,0.713 0.865,3.304 c 0.475,-0.077 0.945,-0.168 1.41,-0.273 l -0.418,-3.392 -0.09,-0.731 m -4.083,0.565 c -0.223,0.008 -0.446,0.013 -0.671,0.013 -0.001,0 -0.002,0 -0.003,0 v 4.128 h 0.002 c 0.104,0 0.208,-0.001 0.312,-0.002 l 0.296,-3.404 0.064,-0.735"
           style="fill:#363637;fill-opacity:1;fill-rule:nonzero;stroke:none;stroke-width:0.1"
           id="path1088" />
        <path
           d="m 256.931,278.619 c 0,0 -10e-4,0 -0.002,0 v 2.31 c 0.001,0 0.002,0 0.003,0 6.04,0 10.938,4.898 10.938,10.939 0,6.04 -4.898,10.939 -10.938,10.939 -0.001,0 -0.002,0 -0.003,0 v 2.31 c 0.001,0 0.002,0 0.002,0 7.317,0 13.249,-5.933 13.249,-13.249 0,-7.316 -5.932,-13.249 -13.249,-13.249"
           style="fill:#a3931f;fill-opacity:1;fill-rule:nonzero;stroke:none;stroke-width:0.1"
           id="path1090" />
        <path
           d="m 256.932,280.929 c -0.001,0 -0.002,0 -0.003,0 v 3.805 0 c 0.389,0 0.703,0.316 0.703,0.704 0,0.388 -0.314,0.703 -0.703,0.703 v 0 1.174 c 0.001,0 0.002,0 0.003,0 2.513,0 4.552,2.039 4.552,4.553 0,2.513 -2.039,4.552 -4.552,4.552 -0.001,0 -0.002,0 -0.003,0 v 1.175 c 0.001,0 0.002,0 0.003,0 0.388,0 0.703,0.315 0.703,0.703 0,0.388 -0.315,0.703 -0.703,0.703 -0.001,0 -0.002,0 -0.003,0 v 3.806 c 0.001,0 0.002,0 0.003,0 6.04,0 10.938,-4.899 10.938,-10.939 0,-6.041 -4.898,-10.939 -10.938,-10.939 m 3.776,6.439 c -0.143,0 -0.287,-0.044 -0.412,-0.134 -0.314,-0.228 -0.384,-0.668 -0.156,-0.982 0.138,-0.19 0.352,-0.29 0.569,-0.29 0.144,0 0.288,0.044 0.413,0.134 0.314,0.228 0.384,0.668 0.156,0.982 -0.138,0.19 -0.352,0.29 -0.57,0.29 m 2.337,3.215 c -0.296,0 -0.572,-0.189 -0.669,-0.486 -0.119,-0.369 0.083,-0.766 0.452,-0.886 0.072,-0.023 0.146,-0.035 0.218,-0.035 0.296,0 0.572,0.189 0.668,0.486 0.12,0.369 -0.082,0.766 -0.451,0.886 -0.072,0.024 -0.146,0.035 -0.218,0.035 m 10e-4,3.974 c -0.072,0 -0.145,-0.011 -0.217,-0.034 -0.369,-0.121 -0.572,-0.518 -0.452,-0.887 0.097,-0.297 0.373,-0.486 0.669,-0.486 0.072,0 0.146,0.011 0.218,0.035 0.369,0.12 0.571,0.517 0.451,0.886 -0.097,0.297 -0.373,0.486 -0.669,0.486 m -2.335,3.215 c -0.217,0 -0.432,-0.1 -0.569,-0.29 -0.228,-0.314 -0.159,-0.753 0.156,-0.982 0.124,-0.09 0.269,-0.134 0.412,-0.134 0.218,0 0.432,0.101 0.57,0.29 0.228,0.314 0.158,0.754 -0.156,0.982 -0.125,0.091 -0.269,0.134 -0.413,0.134"
           style="fill:#98771f;fill-opacity:1;fill-rule:nonzero;stroke:none;stroke-width:0.1"
           id="path1092" />
        <path
           d="m 256.932,287.315 c -0.001,0 -0.002,0 -0.003,0 v 9.105 c 0.001,0 0.002,0 0.003,0 2.513,0 4.552,-2.039 4.552,-4.552 0,-2.514 -2.039,-4.553 -4.552,-4.553"
           style="fill:#a3931f;fill-opacity:1;fill-rule:nonzero;stroke:none;stroke-width:0.1"
           id="path1094" />
        <path
           d="m 256.932,297.595 c -0.001,0 -0.002,0 -0.003,0 v 1.406 c 0.001,0 0.002,0 0.003,0 0.388,0 0.703,-0.315 0.703,-0.703 0,-0.388 -0.315,-0.703 -0.703,-0.703"
           style="fill:#a3931f;fill-opacity:1;fill-rule:nonzero;stroke:none;stroke-width:0.1"
           id="path1096" />
        <path
           d="m 256.929,284.734 v 0 1.407 0 c 0.389,0 0.703,-0.315 0.703,-0.703 0,-0.388 -0.314,-0.704 -0.703,-0.704"
           style="fill:#a3931f;fill-opacity:1;fill-rule:nonzero;stroke:none;stroke-width:0.1"
           id="path1098" />
        <path
           d="m 260.709,285.962 c -0.217,0 -0.431,0.1 -0.569,0.29 -0.228,0.314 -0.158,0.754 0.156,0.982 0.125,0.09 0.269,0.134 0.412,0.134 0.218,0 0.432,-0.1 0.57,-0.29 0.228,-0.314 0.158,-0.754 -0.156,-0.982 -0.125,-0.09 -0.269,-0.134 -0.413,-0.134"
           style="fill:#a3931f;fill-opacity:1;fill-rule:nonzero;stroke:none;stroke-width:0.1"
           id="path1100" />
        <path
           d="m 263.046,289.176 c -0.072,0 -0.146,0.012 -0.218,0.035 -0.369,0.12 -0.571,0.517 -0.452,0.886 0.097,0.297 0.373,0.486 0.669,0.486 0.072,0 0.146,-0.011 0.218,-0.035 0.369,-0.12 0.571,-0.517 0.451,-0.886 -0.096,-0.297 -0.372,-0.486 -0.668,-0.486"
           style="fill:#a3931f;fill-opacity:1;fill-rule:nonzero;stroke:none;stroke-width:0.1"
           id="path1102" />
        <path
           d="m 263.046,293.15 c -0.296,0 -0.572,0.189 -0.669,0.486 -0.12,0.369 0.083,0.766 0.452,0.887 0.072,0.023 0.145,0.034 0.217,0.034 0.296,0 0.572,-0.189 0.669,-0.486 0.12,-0.369 -0.082,-0.766 -0.451,-0.886 -0.072,-0.024 -0.146,-0.035 -0.218,-0.035"
           style="fill:#a3931f;fill-opacity:1;fill-rule:nonzero;stroke:none;stroke-width:0.1"
           id="path1104" />
        <path
           d="m 260.71,296.366 c -0.143,0 -0.288,0.044 -0.412,0.134 -0.315,0.229 -0.384,0.668 -0.156,0.982 0.137,0.19 0.352,0.29 0.569,0.29 0.144,0 0.288,-0.043 0.413,-0.134 0.314,-0.228 0.384,-0.668 0.156,-0.982 -0.138,-0.189 -0.352,-0.29 -0.57,-0.29"
           style="fill:#a3931f;fill-opacity:1;fill-rule:nonzero;stroke:none;stroke-width:0.1"
           id="path1106" />
      </g>
    </g>
  </g>
</svg>
